<svg version="1.1" xmlns="http://www.w3.org/2000/svg" viewBox="0 0 891.4173537558343 1076.6684112652133" width="1782.8347075116685" height="2153.3368225304266" filter="invert(93%) hue-rotate(180deg)">
  <!-- svg-source:excalidraw -->

  <defs>
    <style class="style-fonts">
      @font-face {
        font-family: "Virgil";
        src: url("https://unpkg.com/@excalidraw/excalidraw@undefined/dist/excalidraw-assets/Virgil.woff2");
      }
      @font-face {
        font-family: "Cascadia";
        src: url("https://unpkg.com/@excalidraw/excalidraw@undefined/dist/excalidraw-assets/Cascadia.woff2");
      }
    </style>

  </defs>
  <rect x="0" y="0" width="891.4173537558343" height="1076.6684112652133" fill="#ffffff"></rect><g stroke-linecap="round" transform="translate(113.64936277295772 347.46706786162207) rotate(0 61.26171875 61.26171875)"><path d="M58.31 -0.59 C67.09 -1.84, 77.73 2.03, 86.47 6.32 C95.21 10.6, 104.84 17.69, 110.76 25.1 C116.67 32.51, 120.46 41.7, 121.94 50.77 C123.42 59.84, 122.56 70.28, 119.62 79.52 C116.69 88.75, 111.29 99.3, 104.31 106.17 C97.34 113.04, 86.88 118.14, 77.78 120.73 C68.68 123.33, 58.86 123.85, 49.69 121.73 C40.53 119.61, 30.28 114.16, 22.8 108.02 C15.31 101.88, 8.68 93.5, 4.8 84.91 C0.91 76.32, -1.26 65.9, -0.52 56.5 C0.21 47.1, 3.92 36.63, 9.21 28.51 C14.49 20.4, 20.92 12.32, 31.17 7.82 C41.42 3.33, 62.37 2.02, 70.72 1.53 C79.07 1.04, 81.47 3.88, 81.26 4.87 M68.63 -1.16 C77.75 -1.02, 88.03 4.42, 95.91 9.91 C103.78 15.4, 111.55 23.62, 115.88 31.76 C120.21 39.89, 121.94 49.16, 121.89 58.73 C121.84 68.29, 119.76 80.43, 115.58 89.16 C111.4 97.89, 104.51 105.55, 96.83 111.1 C89.15 116.66, 78.64 121.09, 69.49 122.49 C60.33 123.9, 50.71 122.63, 41.88 119.55 C33.04 116.48, 23.14 111.25, 16.46 104.05 C9.79 96.85, 4.17 85.81, 1.84 76.35 C-0.48 66.89, 0.54 56.52, 2.51 47.29 C4.48 38.06, 7.54 28.36, 13.65 20.99 C19.77 13.61, 30.31 6.31, 39.21 3.05 C48.1 -0.22, 62.48 1.5, 67.04 1.38 C71.6 1.26, 66.51 1.63, 66.55 2.34" stroke="none" stroke-width="0" fill="#a5d8ff"></path><path d="M76.09 1.61 C84.97 3.1, 93.96 9.59, 101.15 15.89 C108.34 22.19, 115.58 30.67, 119.22 39.4 C122.87 48.12, 124.28 58.92, 123.02 68.24 C121.76 77.56, 117.1 87.38, 111.64 95.34 C106.18 103.3, 98.52 111.5, 90.24 116 C81.96 120.51, 71.29 122.3, 61.97 122.4 C52.64 122.5, 42.62 120.99, 34.3 116.6 C25.97 112.21, 17.53 103.95, 12.01 96.05 C6.48 88.15, 2.42 78.61, 1.14 69.18 C-0.13 59.76, 1.25 48.34, 4.34 39.49 C7.43 30.64, 12.85 22.47, 19.71 16.1 C26.56 9.73, 35 3.33, 45.48 1.27 C55.96 -0.79, 75.05 2.59, 82.56 3.74 C90.07 4.88, 90.73 7.14, 90.55 8.16 M38.59 3.13 C46.73 -0.99, 59.33 -0.13, 68.78 1.07 C78.22 2.28, 87.63 5.17, 95.24 10.34 C102.85 15.5, 109.89 23.78, 114.43 32.05 C118.96 40.32, 122.41 50.34, 122.42 59.96 C122.44 69.58, 119.15 81.03, 114.5 89.76 C109.86 98.49, 102.43 106.72, 94.55 112.32 C86.67 117.92, 76.31 122.19, 67.21 123.35 C58.12 124.51, 48.8 122.67, 39.96 119.28 C31.12 115.88, 20.55 110.31, 14.16 102.98 C7.76 95.65, 3.82 84.9, 1.6 75.3 C-0.63 65.69, -1.33 54.42, 0.79 45.36 C2.9 36.3, 8.04 27.98, 14.28 20.93 C20.52 13.88, 33.86 5.71, 38.22 3.06 C42.59 0.42, 40.09 4.15, 40.45 5.04" stroke="#1e1e1e" stroke-width="2" fill="none"></path></g><g stroke-linecap="round" transform="translate(239.1577654278633 525.186146152558) rotate(0 61.26171875 61.26171875)"><path d="M37.28 6.03 C45.17 1.62, 55.29 -0.08, 64.52 0.54 C73.76 1.17, 84.4 4.99, 92.69 9.78 C100.97 14.57, 109.28 21.31, 114.23 29.29 C119.18 37.27, 121.98 48.1, 122.4 57.66 C122.82 67.22, 120.64 77.81, 116.77 86.65 C112.91 95.49, 106.67 104.89, 99.2 110.68 C91.74 116.47, 81.45 120.03, 71.97 121.4 C62.49 122.76, 51.4 121.89, 42.31 118.89 C33.23 115.88, 24.09 110, 17.48 103.35 C10.87 96.7, 5.54 87.84, 2.65 79.01 C-0.24 70.18, -1.76 59.72, 0.12 50.35 C2.01 40.99, 7.16 30.79, 13.97 22.82 C20.78 14.85, 35.52 5.85, 40.97 2.52 C46.43 -0.8, 46.34 1.69, 46.69 2.89 M55.16 -0.31 C63.8 -1.97, 74.34 0.67, 83.09 4.26 C91.84 7.86, 101.42 14.03, 107.67 21.26 C113.91 28.5, 118.36 38.52, 120.54 47.67 C122.72 56.83, 123.1 66.92, 120.76 76.18 C118.41 85.44, 112.85 96.3, 106.49 103.25 C100.14 110.19, 91.37 114.8, 82.62 117.86 C73.86 120.91, 63.46 122.77, 53.98 121.56 C44.5 120.34, 33.43 116.06, 25.73 110.57 C18.03 105.07, 12.08 97.1, 7.79 88.61 C3.5 80.11, 0.27 68.83, -0.01 59.59 C-0.29 50.34, 1.77 41.35, 6.12 33.14 C10.47 24.92, 18.21 15.7, 26.08 10.3 C33.94 4.91, 48.58 2.42, 53.31 0.78 C58.04 -0.86, 54.32 -0.68, 54.46 0.46" stroke="none" stroke-width="0" fill="#a5d8ff"></path><path d="M33.74 7.45 C41.26 2.7, 52.07 0.79, 61.56 0.59 C71.04 0.39, 82.32 1.84, 90.66 6.26 C99 10.68, 106.26 19.22, 111.6 27.12 C116.93 35.01, 121.68 44.12, 122.68 53.63 C123.68 63.14, 121.14 75.36, 117.59 84.16 C114.03 92.96, 108.5 100.44, 101.34 106.42 C94.18 112.4, 83.79 117.8, 74.62 120.03 C65.45 122.26, 55.32 121.9, 46.33 119.81 C37.34 117.73, 27.88 113.85, 20.69 107.54 C13.5 101.22, 6.69 91.02, 3.19 81.93 C-0.32 72.83, -1.63 62.17, -0.34 52.96 C0.96 43.75, 4.92 34.61, 10.94 26.65 C16.96 18.7, 31.12 8.73, 35.77 5.25 C40.42 1.77, 38.34 4.72, 38.84 5.77 M69.65 0.29 C78.75 0.23, 87.63 4.66, 95.45 10.13 C103.27 15.61, 112.13 24.86, 116.57 33.15 C121.02 41.43, 122.16 50.24, 122.12 59.84 C122.08 69.44, 120.84 82.11, 116.31 90.73 C111.77 99.35, 103.05 106.52, 94.88 111.55 C86.72 116.58, 76.33 119.97, 67.34 120.92 C58.34 121.86, 49.67 120.48, 40.89 117.23 C32.11 113.98, 21.11 108.05, 14.64 101.4 C8.17 94.75, 4.29 86.35, 2.06 77.35 C-0.17 68.35, -0.95 56.87, 1.28 47.4 C3.51 37.93, 9.11 27.75, 15.42 20.54 C21.72 13.34, 30.3 7.53, 39.12 4.17 C47.94 0.8, 63.27 0.87, 68.33 0.36 C73.4 -0.15, 69.49 0.29, 69.52 1.12" stroke="#1e1e1e" stroke-width="2" fill="none"></path></g><g transform="translate(292.20091352611087 574.1292881472898) rotate(0 8.399993896484375 12.5)"><text x="8.399993896484375" y="0" font-family="Virgil, Segoe UI Emoji" font-size="20px" fill="#1e1e1e" text-anchor="middle" style="white-space: pre;" direction="ltr" dominant-baseline="text-before-edge">F '</text></g><g stroke-linecap="round" transform="translate(10 542.5555288586895) rotate(0 61.26171875 61.26171875)"><path d="M52.35 0.23 C61.16 -2.12, 72.16 -0.83, 80.92 2.38 C89.69 5.59, 98.46 12.5, 104.92 19.48 C111.39 26.47, 117.1 35.18, 119.71 44.27 C122.33 53.37, 122.45 64.85, 120.59 74.05 C118.74 83.24, 114.6 92.04, 108.58 99.45 C102.56 106.86, 93.36 114.84, 84.47 118.5 C75.59 122.16, 64.53 122.5, 55.26 121.42 C46 120.35, 36.81 117.04, 28.9 112.06 C20.99 107.08, 12.71 99.5, 7.79 91.54 C2.88 83.59, -0.32 73.83, -0.58 64.32 C-0.83 54.81, 1.94 43.08, 6.28 34.47 C10.62 25.87, 16.89 18.5, 25.48 12.71 C34.07 6.91, 51.66 1.73, 57.83 -0.3 C64 -2.33, 62.52 -0.59, 62.49 0.53 M64.28 -0.91 C73.7 -1.13, 84.31 4.37, 92.17 9.22 C100.03 14.07, 106.47 20.29, 111.41 28.21 C116.36 36.12, 120.47 47.52, 121.82 56.7 C123.16 65.89, 122.94 74.67, 119.47 83.33 C116 91.99, 108.49 102.59, 100.98 108.68 C93.47 114.78, 83.9 117.94, 74.43 119.9 C64.97 121.86, 53.15 122.62, 44.2 120.45 C35.26 118.27, 27.32 113.23, 20.76 106.86 C14.2 100.5, 8.26 91.3, 4.86 82.25 C1.46 73.2, -0.68 62.29, 0.37 52.57 C1.42 42.84, 5.53 31.5, 11.15 23.91 C16.78 16.32, 25.4 11.1, 34.13 7.01 C42.86 2.92, 58.73 0.23, 63.55 -0.65 C68.36 -1.53, 63.21 0.56, 63.04 1.74" stroke="none" stroke-width="0" fill="#b2f2bb"></path><path d="M34.73 7 C42.49 2.4, 53.46 0.35, 62.93 0.49 C72.4 0.63, 83.26 3.22, 91.53 7.84 C99.81 12.46, 107.47 20.21, 112.58 28.21 C117.68 36.2, 121.16 46.42, 122.16 55.8 C123.15 65.18, 122.12 75.84, 118.57 84.48 C115.02 93.11, 108.35 101.51, 100.84 107.63 C93.34 113.74, 83.03 119.23, 73.54 121.18 C64.04 123.12, 52.89 121.74, 43.85 119.3 C34.81 116.86, 25.91 113.04, 19.29 106.53 C12.67 100.03, 7.15 89.45, 4.13 80.24 C1.1 71.03, -0.31 60.45, 1.12 51.27 C2.55 42.09, 6.25 33.12, 12.71 25.17 C19.17 17.22, 34.22 7.3, 39.89 3.57 C45.56 -0.16, 46.28 1.71, 46.71 2.76 M88.1 5.32 C96.51 8.35, 105.05 16.14, 110.68 24 C116.32 31.86, 120.77 42.71, 121.91 52.48 C123.06 62.24, 120.57 73.71, 117.56 82.59 C114.55 91.47, 110.6 99.67, 103.86 105.75 C97.11 111.83, 86.25 116.58, 77.09 119.06 C67.92 121.53, 58.13 122.31, 48.88 120.59 C39.64 118.87, 29.09 114.63, 21.63 108.74 C14.17 102.85, 7.92 94.02, 4.12 85.25 C0.33 76.48, -2.02 65.76, -1.14 56.1 C-0.26 46.45, 3.91 35.34, 9.39 27.31 C14.87 19.28, 23.29 12.54, 31.76 7.94 C40.24 3.34, 50.69 -0.04, 60.27 -0.28 C69.85 -0.52, 84.64 5.28, 89.24 6.52 C93.85 7.75, 88.28 6.25, 87.88 7.14" stroke="#1e1e1e" stroke-width="2" fill="none"></path></g><g transform="translate(64.70314413096241 591.4986708534213) rotate(0 6.739997863769531 12.5)"><text x="6.739997863769531" y="0" font-family="Virgil, Segoe UI Emoji" font-size="20px" fill="#1e1e1e" text-anchor="middle" style="white-space: pre;" direction="ltr" dominant-baseline="text-before-edge">E</text></g><g stroke-linecap="round" transform="translate(167.03066279064547 742.4753637532037) rotate(0 61.26171875 61.26171875)"><path d="M50.01 1.02 C58.68 -1.6, 69.23 0.58, 78.36 3.4 C87.49 6.21, 97.87 11.32, 104.79 17.89 C111.71 24.46, 117.03 33.7, 119.88 42.82 C122.73 51.94, 123.61 63.49, 121.9 72.63 C120.19 81.77, 115.36 90.24, 109.64 97.68 C103.92 105.11, 96.3 112.96, 87.57 117.24 C78.83 121.53, 66.98 124.03, 57.22 123.39 C47.47 122.75, 37.1 118.54, 29.06 113.4 C21.01 108.26, 13.82 100.6, 8.93 92.55 C4.03 84.49, 0.16 74.56, -0.31 65.08 C-0.78 55.6, 2.15 44.29, 6.11 35.67 C10.07 27.04, 15.77 19.27, 23.44 13.34 C31.1 7.41, 46.77 1.96, 52.08 0.08 C57.39 -1.8, 55.13 0.78, 55.29 2.05 M46.83 0.59 C55 -2.39, 65.97 0.37, 74.93 2.83 C83.88 5.29, 93.25 9.24, 100.57 15.35 C107.9 21.45, 115.36 30.42, 118.86 39.47 C122.37 48.53, 122.68 60.44, 121.61 69.66 C120.53 78.87, 117.76 87.02, 112.43 94.76 C107.09 102.51, 98.38 111.58, 89.62 116.13 C80.85 120.69, 69.5 122.37, 59.82 122.09 C50.14 121.82, 39.87 118.65, 31.56 114.5 C23.24 110.34, 14.89 104.91, 9.94 97.16 C5 89.41, 2.69 77.68, 1.9 68 C1.11 58.33, 2.07 47.81, 5.2 39.11 C8.32 30.41, 13.93 22.12, 20.64 15.79 C27.35 9.47, 41.25 3.22, 45.43 1.16 C49.62 -0.89, 45.22 2.47, 45.75 3.46" stroke="none" stroke-width="0" fill="#a5d8ff"></path><path d="M48.45 0.38 C57.03 -2.17, 68.07 -0.03, 77.33 2.66 C86.6 5.34, 96.89 10.05, 104.02 16.5 C111.16 22.94, 117.17 32.44, 120.12 41.31 C123.08 50.18, 123.37 60.38, 121.76 69.71 C120.14 79.03, 116.02 89.63, 110.43 97.27 C104.83 104.91, 96.75 111.44, 88.19 115.57 C79.63 119.69, 68.62 122.21, 59.09 122.01 C49.57 121.81, 39.17 118.78, 31.03 114.34 C22.89 109.91, 15.27 103.43, 10.25 95.4 C5.24 87.38, 1.96 75.88, 0.93 66.2 C-0.1 56.51, 0.55 45.85, 4.07 37.29 C7.58 28.73, 13.65 20.95, 22.02 14.85 C30.38 8.74, 47.98 2.81, 54.25 0.64 C60.52 -1.53, 59.46 0.84, 59.62 1.83 M48.04 1.15 C56.85 -1.61, 70.04 -0.75, 79.11 1.99 C88.17 4.72, 95.72 11.02, 102.42 17.58 C109.13 24.14, 116.29 32.58, 119.33 41.35 C122.37 50.13, 122.08 60.96, 120.65 70.22 C119.22 79.47, 116.29 89.26, 110.73 96.9 C105.17 104.54, 96.07 111.75, 87.28 116.04 C78.48 120.33, 67.35 122.89, 57.96 122.66 C48.57 122.43, 39 119.57, 30.92 114.66 C22.84 109.75, 14.57 101.18, 9.47 93.22 C4.38 85.25, 0.96 75.99, 0.34 66.88 C-0.29 57.78, 1.86 47.28, 5.72 38.58 C9.58 29.88, 16.17 21.02, 23.5 14.68 C30.84 8.35, 45.63 2.84, 49.74 0.56 C53.85 -1.73, 48.35 0.03, 48.16 0.99" stroke="#1e1e1e" stroke-width="2" fill="none"></path></g><g stroke-linecap="round" transform="translate(376.75631581245534 728.8487855769363) rotate(0 61.26171875 61.26171875)"><path d="M77.87 1.39 C86.88 3.1, 97.5 11.06, 104.24 17.62 C110.98 24.18, 115.38 31.97, 118.31 40.73 C121.23 49.49, 123.23 60.81, 121.79 70.19 C120.35 79.57, 115.23 89.41, 109.67 97.02 C104.11 104.63, 96.96 111.72, 88.41 115.83 C79.86 119.95, 68 122.08, 58.36 121.71 C48.73 121.35, 38.58 118.21, 30.6 113.64 C22.62 109.08, 15.55 102.23, 10.48 94.31 C5.4 86.4, 1.14 75.59, 0.15 66.16 C-0.85 56.74, 0.74 46.32, 4.5 37.78 C8.26 29.24, 15.2 21.14, 22.69 14.93 C30.17 8.71, 38.41 1.99, 49.4 0.48 C60.39 -1.03, 80.46 3.67, 88.63 5.88 C96.8 8.08, 98.98 12.59, 98.42 13.71 M85.57 3.66 C94.24 6.68, 103.38 15.36, 109.36 23.01 C115.35 30.67, 119.57 40.38, 121.49 49.57 C123.42 58.76, 123.73 69.32, 120.9 78.17 C118.08 87.02, 111.11 95.61, 104.55 102.7 C98 109.78, 90.29 117.61, 81.56 120.69 C72.83 123.77, 61.83 123.02, 52.17 121.18 C42.51 119.34, 31.25 115.07, 23.62 109.63 C15.98 104.2, 10.32 96.84, 6.34 88.58 C2.36 80.32, -0.36 69.5, -0.26 60.08 C-0.16 50.67, 2.28 40.28, 6.91 32.11 C11.55 23.94, 19.36 16.6, 27.54 11.06 C35.71 5.51, 46.47 0.05, 55.97 -1.17 C65.48 -2.39, 79.77 2.34, 84.56 3.76 C89.36 5.18, 84.96 6.14, 84.73 7.34" stroke="none" stroke-width="0" fill="#b2f2bb"></path><path d="M66.99 0.79 C75.91 0.7, 85.27 4.78, 93.24 9.65 C101.21 14.52, 109.97 21.9, 114.8 30.01 C119.62 38.12, 122.01 48.79, 122.2 58.33 C122.38 67.86, 119.81 78.38, 115.89 87.22 C111.97 96.06, 106.26 105.48, 98.7 111.37 C91.14 117.25, 80.08 121.23, 70.54 122.54 C61 123.84, 50.34 122.52, 41.46 119.2 C32.58 115.88, 23.83 109.62, 17.25 102.62 C10.67 95.62, 4.57 86.12, 1.97 77.19 C-0.63 68.26, -0.29 58.04, 1.64 49.05 C3.58 40.07, 7.63 30.49, 13.56 23.26 C19.49 16.04, 27.74 9.49, 37.24 5.7 C46.74 1.92, 64.49 1.23, 70.56 0.56 C76.63 -0.11, 73.88 0.67, 73.65 1.69 M52.11 0.93 C60.68 -0.77, 72.44 1.24, 81.78 4.48 C91.13 7.72, 101.71 13.6, 108.17 20.38 C114.64 27.16, 118.23 36.19, 120.57 45.15 C122.92 54.12, 124.62 65.02, 122.25 74.19 C119.87 83.36, 112.77 92.67, 106.31 100.16 C99.85 107.64, 92.27 115.32, 83.48 119.1 C74.68 122.87, 63.15 123.77, 53.55 122.81 C43.96 121.85, 33.47 118.61, 25.89 113.34 C18.3 108.06, 12.51 99.67, 8.04 91.15 C3.56 82.63, -0.55 71.76, -0.96 62.22 C-1.38 52.67, 0.86 42.26, 5.56 33.87 C10.27 25.48, 19.31 17.19, 27.26 11.88 C35.22 6.57, 49 3.6, 53.31 2.02 C57.61 0.43, 52.95 1.8, 53.11 2.36" stroke="#1e1e1e" stroke-width="2" fill="none"></path></g><g transform="translate(432.749460858945 777.7919275716681) rotate(0 5.4499969482421875 12.5)"><text x="5.4499969482421875" y="0" font-family="Virgil, Segoe UI Emoji" font-size="20px" fill="#1e1e1e" text-anchor="middle" style="white-space: pre;" direction="ltr" dominant-baseline="text-before-edge">I</text></g><g stroke-linecap="round" transform="translate(165.09545850947643 944.1449737652133) rotate(0 61.26171875 61.26171875)"><path d="M62.27 0.51 C71.46 -0.33, 83 3.53, 91.15 8.01 C99.31 12.5, 106.04 19.64, 111.2 27.42 C116.35 35.2, 120.94 45.43, 122.07 54.69 C123.2 63.95, 121.29 74.34, 117.99 82.99 C114.69 91.64, 109.24 100.11, 102.26 106.58 C95.29 113.05, 85.53 119.43, 76.14 121.81 C66.75 124.19, 55.17 123.52, 45.93 120.87 C36.69 118.22, 27.57 112.46, 20.7 105.91 C13.83 99.36, 7.96 90.28, 4.7 81.56 C1.44 72.84, 0.04 62.82, 1.13 53.59 C2.22 44.37, 5.89 34.15, 11.24 26.19 C16.58 18.22, 23.64 10.07, 33.2 5.81 C42.77 1.55, 61.76 1.21, 68.63 0.64 C75.49 0.07, 74.69 1.54, 74.38 2.38 M59.79 0.81 C68.96 -0.15, 81.58 2.84, 90.29 6.88 C99.01 10.93, 106.88 17.43, 112.09 25.08 C117.3 32.72, 120.38 43.34, 121.56 52.75 C122.75 62.16, 122.24 72.35, 119.17 81.54 C116.11 90.72, 110.34 101.29, 103.19 107.87 C96.03 114.46, 85.66 119.1, 76.23 121.03 C66.81 122.97, 55.71 121.8, 46.64 119.48 C37.56 117.17, 28.59 112.98, 21.77 107.13 C14.95 101.29, 9.08 93.09, 5.72 84.42 C2.37 75.75, 0.92 64.5, 1.62 55.14 C2.33 45.78, 4.88 36.46, 9.96 28.25 C15.04 20.04, 23.59 10.6, 32.09 5.89 C40.58 1.17, 56.23 0.91, 60.94 -0.04 C65.66 -0.98, 60.39 -0.71, 60.38 0.2" stroke="none" stroke-width="0" fill="#a5d8ff"></path><path d="M56.76 0.79 C65.5 -0.56, 76.18 2, 84.98 5.62 C93.78 9.25, 103.54 15.36, 109.57 22.54 C115.61 29.72, 119.49 39.57, 121.17 48.7 C122.85 57.83, 122.37 68.19, 119.64 77.34 C116.91 86.49, 111.17 96.57, 104.78 103.62 C98.39 110.68, 90.08 116.55, 81.29 119.67 C72.5 122.79, 61.62 124.03, 52.04 122.34 C42.45 120.65, 31.5 115.46, 23.76 109.53 C16.02 103.6, 9.45 95.34, 5.61 86.75 C1.77 78.17, 0.44 67.3, 0.72 58.03 C1.01 48.76, 2.54 39.21, 7.31 31.14 C12.08 23.07, 20.37 14.89, 29.37 9.61 C38.36 4.33, 55.43 0.9, 61.29 -0.54 C67.14 -1.97, 64.74 -0.15, 64.49 1.01 M88.14 5.08 C96.66 8.4, 106.71 18.57, 112.1 26.59 C117.49 34.6, 119.5 43.94, 120.49 53.17 C121.48 62.41, 120.83 72.99, 118.05 82 C115.27 91.01, 110.8 100.62, 103.82 107.24 C96.85 113.85, 85.54 119.63, 76.2 121.67 C66.86 123.72, 56.78 121.6, 47.78 119.52 C38.78 117.44, 29.28 114.97, 22.2 109.2 C15.12 103.44, 9 93.8, 5.3 84.95 C1.6 76.1, -0.63 65.85, -0.01 56.11 C0.61 46.37, 3.86 34.54, 9.02 26.5 C14.18 18.46, 22.22 12.45, 30.97 7.87 C39.72 3.3, 52.06 -0.62, 61.51 -0.94 C70.96 -1.26, 83.22 4.68, 87.69 5.95 C92.17 7.21, 88.63 5.49, 88.36 6.67" stroke="#1e1e1e" stroke-width="2" fill="none"></path></g><g stroke-linecap="round"><g transform="translate(271.2823314734351 652.6321099635286) rotate(0 -22.694956222828466 34.992679318379174)"><path d="M-0.18 -0.13 C-7.7 11.66, -38.03 58.84, -45.58 70.56 M0.54 -0.58 C-7.01 11.11, -38.22 58.11, -45.93 69.98" stroke="#1e1e1e" stroke-width="2" fill="none"></path></g><g transform="translate(271.2823314734351 652.6321099635286) rotate(0 -22.694956222828466 34.992679318379174)"><path d="M-39.02 40.79 C-40.73 46.84, -41.23 53.06, -45.93 69.98 M-39.02 40.79 C-41.55 49.35, -43.6 57.88, -45.93 69.98" stroke="#1e1e1e" stroke-width="2" fill="none"></path></g><g transform="translate(271.2823314734351 652.6321099635286) rotate(0 -22.694956222828466 34.992679318379174)"><path d="M-21.87 52.06 C-27.13 55.75, -31.19 59.62, -45.93 69.98 M-21.87 52.06 C-29.5 57.26, -36.68 62.41, -45.93 69.98" stroke="#1e1e1e" stroke-width="2" fill="none"></path></g></g><mask></mask><g stroke-linecap="round"><g transform="translate(226.49407272041367 873.1817614584186) rotate(0 -0.48064042563572684 25.5499784730456)"><path d="M-0.03 -0.06 C-0.22 8.48, -0.89 42.61, -1.08 51.16 M0.22 -0.22 C0.01 8.35, -0.92 42.79, -1.18 51.32" stroke="#1e1e1e" stroke-width="2" fill="none"></path></g><g transform="translate(226.49407272041367 873.1817614584186) rotate(0 -0.48064042563572684 25.5499784730456)"><path d="M-9.25 27.01 C-6.79 34.95, -4.17 42.59, -1.18 51.32 M-9.25 27.01 C-6.52 34.95, -4.05 42.84, -1.18 51.32" stroke="#1e1e1e" stroke-width="2" fill="none"></path></g><g transform="translate(226.49407272041367 873.1817614584186) rotate(0 -0.48064042563572684 25.5499784730456)"><path d="M8.26 27.51 C5.06 35.29, 2.02 42.76, -1.18 51.32 M8.26 27.51 C5.25 35.28, 1.97 43, -1.18 51.32" stroke="#1e1e1e" stroke-width="2" fill="none"></path></g></g><mask></mask><g transform="translate(221.02860599737244 993.0881157599451) rotate(0 5.5099945068359375 12.5)"><text x="5.5099945068359375" y="0" font-family="Virgil, Segoe UI Emoji" font-size="20px" fill="#1e1e1e" text-anchor="middle" style="white-space: pre;" direction="ltr" dominant-baseline="text-before-edge">H</text></g><g stroke-linecap="round" transform="translate(360.1950165478372 10) rotate(0 61.26171875 61.26171875)"><path d="M48.49 0.6 C57.11 -2.09, 68.5 0.56, 77.62 3.19 C86.74 5.81, 96.24 10.15, 103.23 16.35 C110.21 22.54, 116.59 31.49, 119.54 40.37 C122.49 49.25, 122.48 60.03, 120.92 69.62 C119.37 79.21, 115.81 90.01, 110.21 97.89 C104.6 105.78, 95.65 112.93, 87.29 116.95 C78.93 120.96, 69.33 122.2, 60.04 121.97 C50.74 121.75, 39.86 120.23, 31.53 115.62 C23.21 111.01, 15.31 102.44, 10.09 94.33 C4.86 86.23, 1.06 76.4, 0.2 66.99 C-0.67 57.58, 1.31 46.67, 4.89 37.88 C8.48 29.09, 12.49 20.66, 21.71 14.26 C30.94 7.87, 51.77 1.6, 60.23 -0.48 C68.68 -2.56, 72.45 0.8, 72.43 1.77 M56.01 -0.24 C65.1 -1.9, 77.05 0.39, 85.62 4.33 C94.18 8.27, 101.54 16.3, 107.41 23.41 C113.28 30.52, 118.69 38.05, 120.83 46.99 C122.98 55.92, 122.7 67.51, 120.26 77.05 C117.82 86.58, 112.53 97.22, 106.2 104.2 C99.88 111.19, 91.15 116.12, 82.31 118.93 C73.47 121.75, 62.55 122.67, 53.18 121.1 C43.81 119.52, 34.11 115.14, 26.08 109.5 C18.05 103.86, 9.14 95.69, 5 87.24 C0.86 78.79, 0.91 68.15, 1.25 58.79 C1.59 49.43, 2.54 39.26, 7.03 31.06 C11.51 22.86, 19.99 14.88, 28.15 9.57 C36.31 4.26, 51.56 0.69, 56 -0.82 C60.43 -2.34, 54.64 -0.62, 54.76 0.48" stroke="none" stroke-width="0" fill="#a5d8ff"></path><path d="M71.38 1.67 C80.38 2.35, 90.88 7.01, 98.43 12.65 C105.99 18.29, 112.81 27, 116.72 35.5 C120.63 44.01, 122.42 54.17, 121.9 63.69 C121.37 73.21, 118.37 84.38, 113.58 92.62 C108.79 100.86, 101.13 108.23, 93.17 113.15 C85.22 118.07, 75.22 121.41, 65.86 122.13 C56.51 122.86, 45.81 121.22, 37.06 117.51 C28.32 113.81, 19.47 107.09, 13.4 99.89 C7.34 92.69, 2.4 83.56, 0.68 74.29 C-1.03 65.03, 0.54 53.57, 3.11 44.29 C5.68 35.01, 9.82 25.55, 16.1 18.62 C22.39 11.69, 31.39 5.52, 40.82 2.71 C50.26 -0.1, 67.01 1.62, 72.71 1.77 C78.41 1.93, 75.16 2.65, 75.02 3.63 M64.98 1.13 C74.06 0.73, 83.68 3.25, 91.87 7.97 C100.06 12.7, 108.98 21.63, 114.12 29.48 C119.26 37.33, 122.22 45.78, 122.72 55.08 C123.21 64.37, 120.68 76.4, 117.11 85.25 C113.54 94.11, 108.39 102.41, 101.29 108.22 C94.2 114.03, 84.08 118.25, 74.55 120.13 C65.02 122.01, 53.57 121.92, 44.11 119.5 C34.65 117.07, 24.48 112.08, 17.8 105.6 C11.12 99.11, 6.74 89.44, 4.04 80.57 C1.33 71.7, 0.21 61.85, 1.57 52.37 C2.92 42.88, 6.66 31.39, 12.17 23.66 C17.67 15.93, 26.01 10.01, 34.6 6 C43.19 1.98, 58.89 0.4, 63.71 -0.41 C68.54 -1.22, 63.36 0.05, 63.53 1.11" stroke="#1e1e1e" stroke-width="2" fill="none"></path></g><g transform="translate(415.0781609839753 58.943141994731945) rotate(0 6.55999755859375 12.5)"><text x="6.55999755859375" y="0" font-family="Virgil, Segoe UI Emoji" font-size="20px" fill="#1e1e1e" text-anchor="middle" style="white-space: pre;" direction="ltr" dominant-baseline="text-before-edge">A</text></g><g stroke-linecap="round" transform="translate(614.2385219944404 338.77925221656966) rotate(0 61.26171875 61.26171875)"><path d="M71.79 1.88 C80.81 2.63, 91.09 6.99, 98.68 12.48 C106.27 17.97, 113.5 26.3, 117.31 34.83 C121.11 43.36, 122.16 54, 121.52 63.68 C120.88 73.36, 118.33 84.52, 113.5 92.91 C108.66 101.31, 100.43 109.24, 92.52 114.07 C84.6 118.89, 75.28 121.15, 66 121.85 C56.73 122.56, 45.61 122.07, 36.87 118.29 C28.14 114.51, 19.55 106.74, 13.58 99.18 C7.61 91.61, 2.82 82.18, 1.04 72.9 C-0.75 63.62, 0.17 52.6, 2.89 43.5 C5.6 34.41, 10.7 25.15, 17.33 18.31 C23.95 11.47, 32.62 5.23, 42.63 2.44 C52.64 -0.34, 70.99 1.37, 77.39 1.6 C83.8 1.82, 81.46 2.76, 81.06 3.79 M48.36 1.26 C56.73 -1.34, 66.87 1.16, 75.84 3.38 C84.81 5.6, 95.03 8.53, 102.19 14.58 C109.35 20.63, 115.47 30.37, 118.81 39.69 C122.16 49, 123.38 60.98, 122.28 70.45 C121.19 79.93, 117.6 89.07, 112.23 96.52 C106.87 103.97, 98.54 111.01, 90.09 115.16 C81.64 119.3, 71.4 121.55, 61.52 121.4 C51.65 121.24, 39.18 118.69, 30.86 114.24 C22.53 109.8, 16.82 102.48, 11.59 94.72 C6.37 86.96, 0.68 77.05, -0.51 67.68 C-1.7 58.31, 0.78 47.48, 4.46 38.49 C8.14 29.51, 14.59 20.09, 21.58 13.78 C28.57 7.46, 41.94 2.52, 46.38 0.59 C50.81 -1.35, 47.9 0.84, 48.19 2.16" stroke="none" stroke-width="0" fill="#b2f2bb"></path><path d="M48.45 1.93 C57.01 -0.95, 68.47 0.36, 77.45 2.78 C86.43 5.21, 95.54 9.98, 102.33 16.47 C109.12 22.96, 115.1 32.75, 118.2 41.71 C121.3 50.67, 122.22 61, 120.92 70.22 C119.62 79.44, 115.84 89.39, 110.38 97.01 C104.92 104.64, 96.66 111.75, 88.16 115.96 C79.66 120.17, 68.9 122.34, 59.37 122.26 C49.84 122.18, 39.08 120.03, 30.99 115.46 C22.89 110.89, 16.07 102.91, 10.81 94.82 C5.55 86.73, 0.64 76.45, -0.56 66.94 C-1.76 57.43, -0.01 46.39, 3.61 37.75 C7.23 29.11, 12.09 21.25, 21.16 15.09 C30.22 8.94, 50.15 2.99, 58 0.83 C65.85 -1.34, 68.16 1.24, 68.26 2.11 M39.66 3.66 C47.75 -0.38, 60.4 0.39, 69.89 1.39 C79.38 2.39, 89.07 4.4, 96.6 9.65 C104.14 14.91, 110.56 24.36, 115.1 32.9 C119.64 41.45, 123.61 51.62, 123.84 60.93 C124.07 70.23, 121.16 80.35, 116.49 88.73 C111.83 97.11, 104.01 105.6, 95.84 111.19 C87.67 116.78, 76.73 121.07, 67.46 122.28 C58.2 123.48, 48.83 121.68, 40.26 118.42 C31.69 115.16, 22.49 109.96, 16.05 102.72 C9.6 95.48, 4.04 84.34, 1.6 74.97 C-0.85 65.61, -0.93 55.67, 1.39 46.52 C3.7 37.36, 9.12 27.16, 15.48 20.04 C21.83 12.91, 35.21 6.29, 39.53 3.75 C43.85 1.22, 40.89 3.63, 41.4 4.85" stroke="#1e1e1e" stroke-width="2" fill="none"></path></g><g stroke-linecap="round" transform="translate(242.34468442860953 192.3923870134049) rotate(0 61.26171875 61.26171875)"><path d="M37.81 4.46 C45.86 -0.13, 57.85 -1.32, 67.14 -0.55 C76.43 0.21, 85.71 3.69, 93.54 9.04 C101.37 14.38, 109.44 23.03, 114.12 31.53 C118.8 40.02, 121.14 50.67, 121.6 60 C122.06 69.33, 120.83 78.91, 116.88 87.49 C112.93 96.08, 105.58 105.83, 97.89 111.51 C90.2 117.18, 80.19 120.24, 70.76 121.53 C61.32 122.82, 50.24 122.31, 41.28 119.27 C32.31 116.22, 23.52 110.17, 16.97 103.26 C10.43 96.34, 4.62 86.98, 2.03 77.77 C-0.56 68.55, -0.67 57.32, 1.46 47.98 C3.59 38.64, 7.57 29.48, 14.82 21.71 C22.07 13.93, 38.66 4.68, 44.96 1.35 C51.27 -1.99, 52.43 0.52, 52.64 1.68 M50.29 2.23 C58.83 -0.32, 70.95 -0.94, 80.11 1.69 C89.26 4.32, 98.54 10.8, 105.25 18.01 C111.96 25.22, 117.49 35.78, 120.35 44.95 C123.2 54.12, 124.1 64.02, 122.37 73.04 C120.64 82.06, 115.94 91.85, 109.98 99.08 C104.02 106.3, 95.7 112.67, 86.61 116.4 C77.51 120.13, 64.83 122.12, 55.39 121.47 C45.94 120.83, 37.94 117.44, 29.95 112.52 C21.97 107.6, 12.43 100.11, 7.47 91.98 C2.52 83.84, 0.46 73.35, 0.23 63.72 C0.01 54.08, 2.29 42.86, 6.12 34.15 C9.95 25.43, 15.63 17.09, 23.22 11.44 C30.81 5.79, 47.1 1.62, 51.68 0.22 C56.26 -1.18, 50.72 2.02, 50.7 3.04" stroke="none" stroke-width="0" fill="#a5d8ff"></path><path d="M88.09 6.75 C96.42 9.8, 104.42 17.26, 109.9 24.92 C115.38 32.59, 119.58 43.33, 120.98 52.72 C122.37 62.11, 121.27 72.45, 118.26 81.26 C115.25 90.07, 109.68 99.09, 102.9 105.55 C96.12 112.02, 86.7 117.48, 77.56 120.04 C68.43 122.61, 57.42 122.78, 48.09 120.95 C38.76 119.12, 28.71 115.09, 21.61 109.06 C14.51 103.04, 9.18 93.71, 5.48 84.8 C1.77 75.88, -1.18 65.11, -0.62 55.59 C-0.07 46.07, 3.65 35.5, 8.83 27.67 C14.01 19.84, 22.11 13.07, 30.47 8.59 C38.83 4.11, 48.49 0.6, 58.98 0.79 C69.47 0.97, 86.87 7.53, 93.42 9.69 C99.97 11.86, 98.92 12.86, 98.29 13.79 M83.92 4.86 C92.75 7.02, 101.37 12.32, 107.42 19.24 C113.46 26.17, 117.77 37.08, 120.22 46.41 C122.67 55.75, 124.08 66.24, 122.09 75.27 C120.1 84.31, 114.79 93.51, 108.28 100.62 C101.77 107.72, 92.25 114.29, 83.04 117.9 C73.83 121.51, 62.28 123.31, 53.01 122.27 C43.75 121.24, 35 116.94, 27.47 111.7 C19.94 106.46, 12.45 99.33, 7.85 90.82 C3.24 82.31, 0.08 70.26, -0.14 60.63 C-0.36 50.99, 2.11 41.37, 6.52 33.01 C10.92 24.65, 18.46 15.91, 26.3 10.46 C34.14 5.01, 43.92 1.43, 53.56 0.3 C63.19 -0.82, 79.19 2.69, 84.11 3.72 C89.04 4.75, 83.78 5.46, 83.1 6.46" stroke="#1e1e1e" stroke-width="2" fill="none"></path></g><g transform="translate(167.29250934532638 396.410209856354) rotate(0 7.799995422363281 12.5)"><text x="7.799995422363281" y="0" font-family="Virgil, Segoe UI Emoji" font-size="20px" fill="#1e1e1e" text-anchor="middle" style="white-space: pre;" direction="ltr" dominant-baseline="text-before-edge">D</text></g><g transform="translate(669.5516667357542 387.7223942113016) rotate(0 6.129997253417969 12.5)"><text x="6.129997253417969" y="0" font-family="Virgil, Segoe UI Emoji" font-size="20px" fill="#1e1e1e" text-anchor="middle" style="white-space: pre;" direction="ltr" dominant-baseline="text-before-edge">K</text></g><g stroke-linecap="round" transform="translate(478.8059092871847 190.96735161413443) rotate(0 61.26171875 61.26171875)"><path d="M90.13 6.22 C98.37 9.52, 105.51 17.7, 110.75 25.72 C116 33.73, 120.46 44.64, 121.61 54.29 C122.76 63.95, 120.85 74.92, 117.65 83.64 C114.45 92.35, 109.31 100.25, 102.4 106.59 C95.49 112.93, 85.46 119.37, 76.19 121.68 C66.93 124, 56.08 122.87, 46.81 120.46 C37.54 118.04, 27.67 113.44, 20.57 107.19 C13.48 100.94, 7.65 91.83, 4.26 82.94 C0.86 74.06, -0.91 63.36, 0.21 53.87 C1.32 44.37, 5.41 33.85, 10.95 25.97 C16.49 18.1, 25.09 11.1, 33.45 6.63 C41.82 2.16, 51.18 -1.22, 61.14 -0.83 C71.1 -0.44, 87.45 6.72, 93.21 8.96 C98.98 11.21, 96.3 11.65, 95.74 12.65 M54.33 -1.03 C63.34 -3.24, 74.76 -0.25, 83.69 3.62 C92.63 7.5, 101.56 14.95, 107.94 22.2 C114.32 29.45, 119.68 38.17, 121.96 47.13 C124.25 56.08, 124.03 66.91, 121.66 75.94 C119.28 84.98, 114.46 94.34, 107.7 101.34 C100.93 108.34, 89.96 114.61, 81.06 117.94 C72.17 121.27, 63.68 122.47, 54.33 121.33 C44.98 120.19, 32.88 116.53, 24.96 111.1 C17.05 105.68, 10.94 97.39, 6.83 88.78 C2.73 80.16, 0.4 69.02, 0.32 59.4 C0.23 49.79, 1.8 39.38, 6.34 31.11 C10.89 22.84, 19.66 14.75, 27.6 9.79 C35.54 4.83, 49.54 2.81, 53.96 1.36 C58.38 -0.1, 54.04 0.06, 54.13 1.08" stroke="none" stroke-width="0" fill="#b2f2bb"></path><path d="M74.91 1.81 C83.72 3.06, 93.65 9.73, 100.73 15.99 C107.82 22.24, 113.92 30.66, 117.41 39.33 C120.89 48, 122.6 58.66, 121.63 68.03 C120.66 77.39, 116.92 87.68, 111.59 95.52 C106.25 103.36, 98.02 110.45, 89.61 115.05 C81.2 119.65, 70.4 123.04, 61.12 123.13 C51.84 123.23, 42.4 120.12, 33.92 115.62 C25.45 111.11, 15.96 103.93, 10.24 96.1 C4.52 88.26, 0.78 77.85, -0.38 68.59 C-1.53 59.33, -0.11 49.24, 3.3 40.55 C6.71 31.86, 12.96 22.82, 20.08 16.46 C27.19 10.09, 34.96 4.23, 45.97 2.34 C56.99 0.45, 78.08 3.4, 86.15 5.1 C94.22 6.79, 94.72 11.55, 94.41 12.5 M56.43 -1.07 C65.08 -2.91, 75.61 0.93, 84.52 4.73 C93.42 8.54, 103.55 14.64, 109.85 21.77 C116.15 28.91, 120.59 38.28, 122.3 47.56 C124.01 56.83, 123.06 68.08, 120.12 77.43 C117.17 86.78, 111.03 96.7, 104.65 103.67 C98.27 110.64, 90.53 116.04, 81.83 119.22 C73.14 122.4, 62.03 124.34, 52.49 122.75 C42.94 121.15, 32.36 115.45, 24.55 109.64 C16.74 103.83, 9.7 96.39, 5.6 87.88 C1.51 79.38, -0.4 68.15, -0.02 58.62 C0.36 49.1, 2.95 38.92, 7.88 30.72 C12.8 22.52, 21.39 14.28, 29.53 9.42 C37.67 4.57, 52.39 2.93, 56.72 1.6 C61.05 0.28, 55.45 0.65, 55.51 1.49" stroke="#1e1e1e" stroke-width="2" fill="none"></path></g><g stroke-linecap="round" transform="translate(758.8939162558343 523.7381328701317) rotate(0 61.26171875 61.26171875)"><path d="M53.38 -0.35 C62.09 -2.06, 74.07 0.89, 82.92 4.55 C91.77 8.22, 100.1 14.63, 106.51 21.62 C112.91 28.61, 118.95 37.22, 121.35 46.5 C123.75 55.77, 123.29 68.05, 120.9 77.28 C118.52 86.52, 113.44 95.01, 107.04 101.92 C100.64 108.84, 91.4 115.42, 82.51 118.77 C73.63 122.11, 63.16 123.2, 53.72 121.98 C44.28 120.75, 33.67 116.94, 25.87 111.42 C18.07 105.9, 11.13 97.35, 6.93 88.86 C2.73 80.36, 0.64 69.99, 0.67 60.44 C0.7 50.9, 2.78 39.91, 7.11 31.58 C11.43 23.25, 17.44 15.69, 26.64 10.46 C35.83 5.24, 54.97 1.54, 62.3 0.23 C69.64 -1.07, 70.63 1.76, 70.65 2.64 M88.71 5.87 C97.28 9.49, 105.63 18.74, 111.34 26.51 C117.05 34.29, 121.52 43.42, 122.97 52.53 C124.42 61.64, 123.23 72.41, 120.04 81.19 C116.85 89.98, 111.19 98.84, 103.82 105.24 C96.45 111.64, 84.97 117.08, 75.82 119.59 C66.67 122.11, 58.12 122.33, 48.92 120.35 C39.72 118.37, 28.02 113.82, 20.63 107.72 C13.23 101.63, 7.9 92.74, 4.56 83.77 C1.23 74.8, -0.14 63.48, 0.63 53.92 C1.4 44.36, 3.9 34.23, 9.17 26.4 C14.45 18.57, 23.92 11.17, 32.3 6.94 C40.67 2.7, 50.15 1.16, 59.44 1.01 C68.74 0.85, 83.43 4.74, 88.08 6 C92.73 7.27, 87.79 7.56, 87.36 8.58" stroke="none" stroke-width="0" fill="#b2f2bb"></path><path d="M80.21 4.15 C88.97 6.22, 98.15 12.6, 104.74 19.31 C111.32 26.02, 117.03 35.34, 119.71 44.41 C122.4 53.48, 122.82 64.44, 120.86 73.72 C118.91 82.99, 114.05 92.61, 107.96 100.06 C101.87 107.5, 92.87 114.69, 84.33 118.38 C75.78 122.07, 66.18 123.18, 56.68 122.2 C47.19 121.22, 35.59 117.69, 27.33 112.5 C19.08 107.31, 11.77 99.15, 7.14 91.06 C2.5 82.97, -0.27 73.21, -0.49 63.93 C-0.7 54.66, 1.68 43.97, 5.85 35.4 C10.03 26.83, 16.9 18.31, 24.57 12.51 C32.25 6.7, 41.38 1.47, 51.9 0.58 C62.42 -0.31, 80.45 5.36, 87.69 7.15 C94.94 8.95, 95.73 10.43, 95.37 11.33 M79.34 2.83 C88.36 4.83, 99.22 11.11, 106.15 17.68 C113.08 24.24, 118.39 33.15, 120.93 42.21 C123.47 51.28, 123.5 62.51, 121.39 72.06 C119.27 81.61, 114 91.98, 108.27 99.51 C102.53 107.03, 95.35 113.24, 86.97 117.22 C78.59 121.19, 67.61 124.11, 57.97 123.36 C48.33 122.61, 37.41 117.84, 29.12 112.73 C20.83 107.63, 13.06 100.84, 8.21 92.74 C3.36 84.64, 0.51 73.66, 0.04 64.14 C-0.44 54.62, 1.2 44.22, 5.36 35.63 C9.52 27.04, 17.37 18.15, 25.02 12.6 C32.67 7.05, 42.22 3.93, 51.25 2.32 C60.28 0.71, 74.4 2.58, 79.19 2.92 C83.98 3.26, 80.38 3.38, 79.98 4.35" stroke="#1e1e1e" stroke-width="2" fill="none"></path></g><g transform="translate(812.6770622178512 572.6812748648638) rotate(0 7.659996032714844 12.5)"><text x="7.659996032714844" y="0" font-family="Virgil, Segoe UI Emoji" font-size="20px" fill="#1e1e1e" text-anchor="middle" style="white-space: pre;" direction="ltr" dominant-baseline="text-before-edge">M</text></g><g stroke-linecap="round" transform="translate(517.4936507179711 538.1515803636355) rotate(0 61.26171875 61.26171875)"><path d="M36.95 5.25 C44.91 1.14, 55.87 0.24, 65.48 0.87 C75.1 1.51, 86.47 3.92, 94.67 9.06 C102.87 14.2, 110 23.46, 114.67 31.74 C119.34 40.01, 122.39 49.36, 122.69 58.7 C122.99 68.03, 120.55 79.16, 116.46 87.76 C112.38 96.37, 105.82 104.64, 98.19 110.3 C90.55 115.97, 80.07 120.33, 70.67 121.75 C61.27 123.17, 50.64 121.92, 41.79 118.82 C32.95 115.73, 24.2 110.1, 17.61 103.18 C11.02 96.26, 5.01 86.38, 2.25 77.3 C-0.5 68.21, -0.78 57.8, 1.09 48.69 C2.96 39.57, 6.37 30.18, 13.47 22.59 C20.57 14.99, 37.46 6.62, 43.69 3.1 C49.92 -0.41, 50.34 0.66, 50.83 1.5 M34.22 7.42 C42.06 2.65, 53.93 -0.13, 63.55 -0.22 C73.17 -0.31, 83.62 2.44, 91.94 6.88 C100.26 11.31, 108.63 18.48, 113.48 26.38 C118.33 34.27, 120.05 44.73, 121.02 54.25 C121.99 63.77, 122.8 74.58, 119.31 83.5 C115.82 92.43, 107.48 101.59, 100.08 107.81 C92.67 114.02, 83.94 118.84, 74.88 120.77 C65.81 122.69, 55.07 121.93, 45.7 119.35 C36.33 116.77, 25.61 111.64, 18.67 105.28 C11.73 98.92, 7.17 89.8, 4.04 81.19 C0.92 72.59, -1.23 63.01, -0.08 53.63 C1.06 44.26, 5.39 32.64, 10.92 24.94 C16.44 17.24, 29.24 10.3, 33.08 7.43 C36.92 4.55, 33.32 7.1, 33.96 7.7" stroke="none" stroke-width="0" fill="#b2f2bb"></path><path d="M64.34 0.34 C73.45 -0.14, 84.56 3.95, 92.76 8.84 C100.96 13.73, 108.67 21.56, 113.53 29.7 C118.39 37.83, 121.44 48.06, 121.92 57.67 C122.4 67.28, 120.13 78.68, 116.39 87.34 C112.65 95.99, 107.05 103.96, 99.5 109.61 C91.95 115.26, 80.71 119.66, 71.1 121.25 C61.48 122.84, 50.81 121.87, 41.82 119.15 C32.83 116.42, 23.73 111.46, 17.17 104.92 C10.61 98.38, 5.16 89, 2.44 79.9 C-0.28 70.8, -0.94 59.8, 0.87 50.32 C2.69 40.85, 7.53 30.43, 13.34 23.05 C19.15 15.67, 26.29 9.82, 35.72 6.06 C45.16 2.3, 63.79 0.98, 69.95 0.48 C76.12 -0.02, 72.86 2.01, 72.71 3.07 M36.93 5.11 C45 0.33, 56.24 -1.56, 65.48 -1.09 C74.73 -0.61, 84.59 2.89, 92.41 7.95 C100.23 13.01, 107.26 21.11, 112.4 29.28 C117.55 37.44, 122.32 47.36, 123.27 56.96 C124.22 66.55, 122.11 78.3, 118.12 86.87 C114.13 95.44, 106.95 102.6, 99.34 108.38 C91.72 114.15, 81.71 119.67, 72.41 121.51 C63.11 123.36, 52.55 122.24, 43.51 119.45 C34.47 116.67, 24.7 111.42, 18.15 104.81 C11.6 98.2, 6.96 88.58, 4.19 79.8 C1.43 71.02, 0.27 61.45, 1.58 52.14 C2.89 42.84, 6.3 31.66, 12.06 23.96 C17.82 16.26, 32.32 8.8, 36.13 5.93 C39.95 3.07, 34.36 5.87, 34.95 6.77" stroke="#1e1e1e" stroke-width="2" fill="none"></path></g><g transform="translate(572.9467948489335 587.0947223583676) rotate(0 5.989997863769531 12.5)"><text x="5.989997863769531" y="0" font-family="Virgil, Segoe UI Emoji" font-size="20px" fill="#1e1e1e" text-anchor="middle" style="white-space: pre;" direction="ltr" dominant-baseline="text-before-edge">L</text></g><g stroke-linecap="round"><g transform="translate(374.0507783708945 130.24307401711488) rotate(0 -16.213562217331855 26.903276790217994)"><path d="M0.2 -0.18 C-5.25 8.77, -27.22 44.71, -32.63 53.69 M-0.03 0.33 C-5.41 9.33, -26.74 45.05, -32.12 53.99" stroke="#1e1e1e" stroke-width="2" fill="none"></path></g><g transform="translate(374.0507783708945 130.24307401711488) rotate(0 -16.213562217331855 26.903276790217994)"><path d="M-26.43 24.53 C-28.72 34.07, -30.5 44.77, -32.12 53.99 M-26.43 24.53 C-27.91 32.31, -29.36 40.16, -32.12 53.99" stroke="#1e1e1e" stroke-width="2" fill="none"></path></g><g transform="translate(374.0507783708945 130.24307401711488) rotate(0 -16.213562217331855 26.903276790217994)"><path d="M-8.83 35.08 C-17.06 41.08, -24.8 48.22, -32.12 53.99 M-8.83 35.08 C-14.94 40.05, -21.05 45.1, -32.12 53.99" stroke="#1e1e1e" stroke-width="2" fill="none"></path></g></g><mask></mask><g stroke-linecap="round"><g transform="translate(470.71773576656983 124.64021695780464) rotate(0 18.317605207851557 32.56751238937635)"><path d="M0.14 -0.26 C6.27 10.57, 30.77 54.23, 36.8 65.14 M-0.17 0.29 C5.93 11.13, 30.48 54.54, 36.67 65.4" stroke="#1e1e1e" stroke-width="2" fill="none"></path></g><g transform="translate(470.71773576656983 124.64021695780464) rotate(0 18.317605207851557 32.56751238937635)"><path d="M13.83 45.95 C20.53 52.45, 27.66 57.72, 36.67 65.4 M13.83 45.95 C18.72 50.48, 24.2 54.83, 36.67 65.4" stroke="#1e1e1e" stroke-width="2" fill="none"></path></g><g transform="translate(470.71773576656983 124.64021695780464) rotate(0 18.317605207851557 32.56751238937635)"><path d="M31.68 35.82 C32.79 45.53, 34.33 53.96, 36.67 65.4 M31.68 35.82 C32.53 42.63, 33.96 49.27, 36.67 65.4" stroke="#1e1e1e" stroke-width="2" fill="none"></path></g></g><mask></mask><g stroke-linecap="round"><g transform="translate(247.81037218098868 296.21129910193105) rotate(0 -16.87775271435129 25.58739613379725)"><path d="M0.06 -0.21 C-5.57 8.39, -27.99 42.79, -33.56 51.39 M-0.26 0.3 C-5.94 8.83, -28.29 42.51, -33.81 50.94" stroke="#1e1e1e" stroke-width="2" fill="none"></path></g><g transform="translate(247.81037218098868 296.21129910193105) rotate(0 -16.87775271435129 25.58739613379725)"><path d="M-26.84 21.76 C-29.86 32.36, -31.81 43.5, -33.81 50.94 M-26.84 21.76 C-29.16 31.43, -31.8 41.63, -33.81 50.94" stroke="#1e1e1e" stroke-width="2" fill="none"></path></g><g transform="translate(247.81037218098868 296.21129910193105) rotate(0 -16.87775271435129 25.58739613379725)"><path d="M-9.72 33.06 C-19 39.53, -27.23 46.52, -33.81 50.94 M-9.72 33.06 C-17.8 38.93, -26.21 45.33, -33.81 50.94" stroke="#1e1e1e" stroke-width="2" fill="none"></path></g></g><mask></mask><g stroke-linecap="round"><g transform="translate(129.283879521279 465.3449967858639) rotate(0 -19.956532464977215 30.445046903418614)"><path d="M0 -0.33 C-6.7 9.8, -33.33 50.61, -39.91 60.78 M-0.42 0.26 C-7.04 10.45, -32.75 51.08, -39.29 61.22" stroke="#1e1e1e" stroke-width="2" fill="none"></path></g><g transform="translate(129.283879521279 465.3449967858639) rotate(0 -19.956532464977215 30.445046903418614)"><path d="M-32.77 31.94 C-35.85 42.35, -37.7 54.1, -39.29 61.22 M-32.77 31.94 C-34.6 40.38, -36.55 48.73, -39.29 61.22" stroke="#1e1e1e" stroke-width="2" fill="none"></path></g><g transform="translate(129.283879521279 465.3449967858639) rotate(0 -19.956532464977215 30.445046903418614)"><path d="M-15.47 42.98 C-25.06 49.24, -33.42 56.84, -39.29 61.22 M-15.47 42.98 C-22.19 48.27, -29.01 53.51, -39.29 61.22" stroke="#1e1e1e" stroke-width="2" fill="none"></path></g></g><mask></mask><g stroke-linecap="round"><g transform="translate(227.17500019802605 460.9500418313889) rotate(0 20.07009397025132 29.875543495612277)"><path d="M-0.05 0.16 C6.7 10.04, 33.83 49.48, 40.66 59.36 M-0.52 -0.07 C6.18 9.86, 33.46 49.83, 40.35 59.82" stroke="#1e1e1e" stroke-width="2" fill="none"></path></g><g transform="translate(227.17500019802605 460.9500418313889) rotate(0 20.07009397025132 29.875543495612277)"><path d="M15.95 42.37 C24.37 48.11, 32.15 54.44, 40.35 59.82 M15.95 42.37 C23.82 48.02, 31.43 53.95, 40.35 59.82" stroke="#1e1e1e" stroke-width="2" fill="none"></path></g><g transform="translate(227.17500019802605 460.9500418313889) rotate(0 20.07009397025132 29.875543495612277)"><path d="M32.88 30.77 C35.69 40.34, 37.86 50.53, 40.35 59.82 M32.88 30.77 C35.26 40.11, 37.41 49.78, 40.35 59.82" stroke="#1e1e1e" stroke-width="2" fill="none"></path></g></g><mask></mask><g stroke-linecap="round"><g transform="translate(593.044234015973 298.2207732858129) rotate(0 16.749922086887977 21.227608171402395)"><path d="M0.13 0.11 C5.77 7.19, 28.05 35.2, 33.65 42.25 M-0.15 -0.08 C5.46 7.05, 27.77 35.4, 33.39 42.54" stroke="#1e1e1e" stroke-width="2" fill="none"></path></g><g transform="translate(593.044234015973 298.2207732858129) rotate(0 16.749922086887977 21.227608171402395)"><path d="M10.36 28.26 C15.97 31.47, 20.88 35, 33.39 42.54 M10.36 28.26 C16.99 32.63, 24.06 36.72, 33.39 42.54" stroke="#1e1e1e" stroke-width="2" fill="none"></path></g><g transform="translate(593.044234015973 298.2207732858129) rotate(0 16.749922086887977 21.227608171402395)"><path d="M24.92 16.8 C27.08 22.73, 28.55 28.97, 33.39 42.54 M24.92 16.8 C27.22 24.61, 29.96 32.11, 33.39 42.54" stroke="#1e1e1e" stroke-width="2" fill="none"></path></g></g><mask></mask><g stroke-linecap="round"><g transform="translate(633.2365651720434 456.65901866158316) rotate(0 -17.65475374407663 33.54716802223412)"><path d="M0.3 -0.08 C-5.61 11.14, -29.44 56.26, -35.48 67.48 M0.08 -0.39 C-5.85 10.73, -29.7 55.71, -35.61 67.04" stroke="#1e1e1e" stroke-width="2" fill="none"></path></g><g transform="translate(633.2365651720434 456.65901866158316) rotate(0 -17.65475374407663 33.54716802223412)"><path d="M-31.55 37.31 C-32.84 46.43, -33.53 54.19, -35.61 67.04 M-31.55 37.31 C-32.87 45.73, -33.68 54.17, -35.61 67.04" stroke="#1e1e1e" stroke-width="2" fill="none"></path></g><g transform="translate(633.2365651720434 456.65901866158316) rotate(0 -17.65475374407663 33.54716802223412)"><path d="M-13.39 46.87 C-20.01 53.25, -26.01 58.22, -35.61 67.04 M-13.39 46.87 C-19.93 52.56, -25.96 58.25, -35.61 67.04" stroke="#1e1e1e" stroke-width="2" fill="none"></path></g></g><mask></mask><g stroke-linecap="round"><g transform="translate(725.3108590298903 444.44744944484023) rotate(0 27.30228524444192 34.59066678447188)"><path d="M0.03 -0.08 C9.03 11.37, 44.55 57.68, 53.76 69.37 M-1.41 -1.17 C7.98 10.33, 46.63 58.28, 56.01 70.35" stroke="#1e1e1e" stroke-width="2" fill="none"></path></g><g transform="translate(725.3108590298903 444.44744944484023) rotate(0 27.30228524444192 34.59066678447188)"><path d="M30.45 54.65 C37.59 57.61, 43.11 64.59, 56.01 70.35 M30.45 54.65 C36.86 59.57, 43.91 63.8, 56.01 70.35" stroke="#1e1e1e" stroke-width="2" fill="none"></path></g><g transform="translate(725.3108590298903 444.44744944484023) rotate(0 27.30228524444192 34.59066678447188)"><path d="M46.52 41.89 C49.22 48.44, 50.23 59, 56.01 70.35 M46.52 41.89 C48.51 50.28, 51.19 57.98, 56.01 70.35" stroke="#1e1e1e" stroke-width="2" fill="none"></path></g></g><mask></mask><g stroke-linecap="round"><g transform="translate(353.68562773737995 640.0245495559757) rotate(0 29.57396918884035 40.74391939533578)"><path d="M0.2 0.27 C10.15 13.79, 50.43 68.68, 60.31 82.12 M-1.16 -0.63 C8.57 13.08, 48.82 66.69, 59.33 80.48" stroke="#1e1e1e" stroke-width="2" fill="none"></path></g><g transform="translate(353.68562773737995 640.0245495559757) rotate(0 29.57396918884035 40.74391939533578)"><path d="M34.15 64.16 C43.59 69.76, 53.51 74.08, 59.33 80.48 M34.15 64.16 C40.4 69.31, 48.77 73.1, 59.33 80.48" stroke="#1e1e1e" stroke-width="2" fill="none"></path></g><g transform="translate(353.68562773737995 640.0245495559757) rotate(0 29.57396918884035 40.74391939533578)"><path d="M50.53 51.79 C54.31 61.77, 58.47 70.44, 59.33 80.48 M50.53 51.79 C52.27 60.48, 56.14 67.68, 59.33 80.48" stroke="#1e1e1e" stroke-width="2" fill="none"></path></g></g><mask></mask><g transform="translate(292.53409417531884 242.76795425408562) rotate(0 7.269996643066406 12.5)"><text x="0" y="0" font-family="Virgil, Segoe UI Emoji" font-size="20px" fill="#1e1e1e" text-anchor="start" style="white-space: pre;" direction="ltr" dominant-baseline="text-before-edge">B</text></g><g transform="translate(220.58380539572897 791.4185057479358) rotate(0 7.8899993896484375 12.5)"><text x="7.8899993896484375" y="0" font-family="Virgil, Segoe UI Emoji" font-size="20px" fill="#1e1e1e" text-anchor="middle" style="white-space: pre;" direction="ltr" dominant-baseline="text-before-edge">G</text></g><g transform="translate(533.9090549440259 239.91049360886637) rotate(0 6.339996337890625 12.5)"><text x="6.339996337890625" y="0" font-family="Virgil, Segoe UI Emoji" font-size="20px" fill="#1e1e1e" text-anchor="middle" style="white-space: pre;" direction="ltr" dominant-baseline="text-before-edge">J</text></g></svg>
