<?xml version="1.0" encoding="utf-8"?>
<!DOCTYPE svg PUBLIC "-//W3C//DTD SVG 1.0//EN" "http://www.w3.org/TR/2001/REC-SVG-20010904/DTD/svg10.dtd">
<svg version="1.0" xmlns="http://www.w3.org/2000/svg" width="800px" height="350px" viewBox="0 600 2636 1155" preserveAspectRatio="xMidYMid meet">
 <g fill="#040404">
 </g>
 <g fill="#151515">
 </g>
 <g fill="#292929">
  <path d="M0 970 l0 -970 1318 0 1318 0 0 970 0 970 -1318 0 -1318 0 0 -970z"/>
 </g>
 <g fill="#424242">
  <path d="M0 970 l0 -970 1318 0 1318 0 0 970 0 970 -1318 0 -1318 0 0 -970z m1418.8 -801.7 c-3.8 -0.2 -9.8 -0.2 -13.5 0 l-6.8 0.3 13.5 0 13.5 0 -6.7 -0.3z m42 -1 c-4.2 -0.2 -11.4 -0.2 -16 0 l-8.3 0.3 16 0 16 0 -7.7 -0.3z m41.5 -1 c-5.1 -0.2 -13.6 -0.2 -19 0 l-9.8 0.3 19 0 19 0 -9.2 -0.3z m139.7 -2.9 c59.1 -1.4 107.6 -2.7 107.9 -3 0.2 -0.2 0.2 -0.6 -0.1 -0.9 -0.3 -0.4 -184.9 4.3 -229.3 5.8 l-9 0.3 11.5 0.2 c6.3 0.1 59.9 -0.9 119 -2.4z"/>
 </g>
 <g fill="#5a5a5a">
  <path d="M990 1059.5 l0 -880.5 5.8 0 c6.6 0 110.6 -2.5 165.2 -4 20.6 -0.5 86.8 -2.1 147 -3.5 60.2 -1.4 184.2 -4.3 275.5 -6.4 l165.9 -3.9 0.4 -1.1 c0.2 -0.6 0.8 -1.1 1.3 -1.1 l0.9 0 0 423.5 0 423.4 14.8 -0.5 c8.1 -0.3 198.1 -4.8 422.2 -9.9 224.1 -5.2 416.4 -9.7 427.3 -10.1 l19.7 -0.6 0 1.6 0 1.6 -5.2 0 c-2.9 0 -71.4 1.6 -152.3 3.5 -80.8 1.9 -150 3.5 -153.7 3.5 l-6.8 0 0 219.1 0 219 15.8 -0.6 c8.6 -0.3 74.9 -1.9 147.2 -3.5 72.3 -1.6 136.8 -3.1 143.3 -3.3 l11.7 -0.4 0 1.2 0 1.3 -16.2 0.6 c-9 0.4 -202.4 4.9 -429.8 10.1 -227.4 5.2 -419 9.8 -425.8 10.1 l-12.2 0.6 0 245.4 0 245.4 -1.5 0 -1.5 0 0 -39.6 0 -39.7 -6.7 0.6 c-3.8 0.4 -11.9 0.7 -18 0.7 l-11.3 0 0 39 0 39 -1 0 -1 0 0 -39.2 0 -39.1 -10.7 0.6 c-5.8 0.4 -14.4 0.7 -19 0.7 l-8.3 0 0 38.5 0 38.5 -1.5 0 -1.5 0 0 -38.5 0 -38.5 -3.5 0 -3.5 0 0 38.5 0 38.5 -1.5 0 -1.5 0 0 -38.4 0 -38.4 -12.2 0.5 c-6.8 0.2 -129.3 3.1 -272.3 6.3 -143 3.3 -267.8 6.2 -277.2 6.6 l-17.3 0.6 0 31.4 0 31.4 -1 0 -1 0 0 -31.5 0 -31.5 -3.5 0 -3.5 0 0 31.5 0 31.5 -1.5 0 -1.5 0 0 -31.7 0 -31.6 -10.7 0.6 c-5.8 0.4 -14.4 0.7 -19 0.7 l-8.3 0 0 31 0 31 -1 0 -1 0 0 -31.2 0 -31.1 -12.7 0.6 c-7.1 0.4 -15.2 0.7 -18 0.7 l-5.3 0 0 30.5 0 30.5 -1.5 0 -1.5 0 0 -880.5z m31.3 815.9 l7.7 -0.7 0 -62.8 0 -62.9 -18 0 -18 0 0 63.5 0 63.5 10.3 0 c5.7 0 13.8 -0.3 18 -0.6z m48.2 -2.2 l2 -1.1 143 -3.1 c78.7 -1.7 145.8 -3.3 149.3 -3.6 l6.2 -0.6 0 -8.4 0 -8.4 -4.2 0 c-2.4 0 -78.3 1.8 -168.8 3.9 -90.4 2.2 -164.8 3.7 -165.2 3.5 l-0.8 -0.5 0 10.2 0 10.1 18.3 -0.4 18.2 -0.4 2 -1.2z m463 -11.6 l138 -3.3 0.9 0.8 1 0.9 14 0 c7.8 0 16.5 -0.3 19.4 -0.6 l5.2 -0.7 0 -9.9 0 -9.9 -0.9 0.5 -0.9 0.6 -152.8 3.5 c-84.1 1.9 -159.8 3.8 -168.1 4.1 l-15.3 0.6 0 8.4 0 8.4 10.8 0 c5.9 -0.1 72.8 -1.6 148.7 -3.4z m214.9 -3.2 l1.6 -0.6 0 -62.9 0 -62.9 -14.9 0 c-8.2 0 -16.3 0.3 -18 0.6 l-3.1 0.7 0 62.8 0 62.9 16.4 0 16.4 0 1.6 -0.6z m-541.8 -8.9 c82.6 -1.9 153.3 -3.5 157.3 -3.5 l7.1 0 0 -4.2 0 -4.1 -18.7 0.6 c-10.4 0.4 -34.6 1 -53.9 1.3 l-35.1 0.7 -0.9 2.1 -0.9 2.1 -47 1.1 c-25.8 0.6 -61.9 1.5 -80.2 1.9 l-33.1 0.7 -0.4 -1.8 -0.3 -1.9 -24.5 0 -24.5 0 -0.3 -48.2 -0.2 -48.3 -8.5 0 -8.5 0 0 52.8 0 52.7 11.3 -0.3 c6.1 -0.1 78.7 -1.8 161.3 -3.7z m-12.6 -5.6 l55.5 -1.1 5.5 -0.8 5.5 -0.8 -13 -0.1 c-7.1 0 -38.9 0.6 -70.5 1.4 -31.6 0.8 -61.2 1.5 -65.7 1.5 l-8.3 0 0 1.1 0 1.2 17.8 -0.6 c9.7 -0.4 42.7 -1.2 73.2 -1.8z m355.3 -2.4 c82.4 -1.9 152.3 -3.5 155.3 -3.5 l5.4 0 0 -52.5 0 -52.5 -8.5 0 -8.5 0 0 47.9 0 47.9 -1.2 1 -1.3 0.9 -37.5 0.7 c-20.6 0.3 -43 0.9 -49.7 1.2 l-12.1 0.7 -0.5 1.8 -0.5 1.9 -6.9 0 c-3.9 0 -16.5 0.3 -28.2 0.7 l-21.2 0.6 -0.6 -2.2 -0.6 -2.2 -14.6 0.5 c-8 0.4 -36 1.1 -62.1 1.6 -26.1 0.5 -55.3 1.3 -64.7 1.6 l-17.3 0.6 0 3.7 0 3.8 12.8 -0.4 c7 -0.2 80.1 -1.9 162.5 -3.8z m-463.5 0.8 l15.2 -0.6 0 -14.3 0 -14.3 0.8 -0.4 c0.4 -0.3 13.9 -0.8 30 -1.2 l29.2 -0.8 0 -19.4 0 -19.4 1.8 -0.7 1.7 -0.7 19 0 19 0 0.3 19.9 0.2 19.9 10.3 -0.7 c5.6 -0.3 18.6 -0.7 28.8 -0.7 l18.6 -0.2 1.1 0.7 1.2 0.7 0 14.1 0 14.1 26.3 -0.6 c14.4 -0.4 38.7 -1 54 -1.3 l27.7 -0.7 0 -47.4 0 -47.3 -9.7 0 c-5.4 0 -75.9 1.6 -156.8 3.5 -80.8 1.9 -148 3.5 -149.2 3.5 l-2.3 0 0 47.5 0 47.5 8.8 0 c4.9 0 15.7 -0.3 24 -0.7z m106.7 -2.3 c29.2 -0.6 56.3 -1.3 60.3 -1.6 l7.2 -0.6 0 -13.4 0 -13.4 -11.6 0 c-6.3 0 -24.7 0.4 -40.7 1 -16.1 0.5 -46.2 1.2 -66.9 1.6 l-37.8 0.6 0 14.1 0 14 18.3 -0.6 c10 -0.4 42.1 -1.2 71.2 -1.7z m272 -6.5 c35.2 -0.8 65 -1.5 66.3 -1.5 l2.3 0 -0.7 -34.5 -0.7 -34.4 1.5 -0.6 1.4 -0.6 28.5 -0.2 28.4 -0.2 -0.3 34.8 -0.3 34.9 3.8 -0.6 c2.1 -0.3 20.7 -0.8 41.3 -1.1 20.6 -0.3 41.2 -0.8 45.8 -1.1 l8.2 -0.6 0 -47.5 0 -47.5 -13.2 0.6 c-7.3 0.3 -77.4 2 -155.8 3.7 -78.4 1.7 -143.5 3.3 -144.7 3.5 l-2.3 0.4 0 47.4 0 47.4 13.3 -0.4 c7.2 -0.3 42 -1.1 77.2 -1.9z m124 0.2 l1 -1 -20.5 0.7 c-11.3 0.3 -23.5 0.6 -27.2 0.6 l-6.8 0 0 1 0 1 26.3 -0.6 26.2 -0.7 1 -1z m-0.7 -3.3 l1.2 -0.3 0 -13.4 0 -13.4 -25.7 0.4 c-14.2 0.3 -26.4 0.6 -27 0.8 l-1.3 0.4 0 13.6 0 13.5 25.8 -0.6 c14.1 -0.3 26.3 -0.7 27 -1z m-387.8 -38.9 l0 -18.5 -18 0 -18 0 0 18.5 0 18.5 18 0 18 0 0 -18.5z m388.8 9 l1.2 -0.4 0 -18.3 0 -18.3 -19.2 0.3 c-10.6 0.1 -23 0.5 -27.5 0.8 l-8.3 0.6 0 18.3 0 18.3 26.3 -0.5 c14.4 -0.2 26.8 -0.6 27.5 -0.8z m-572.2 -54.5 l13.4 0 0 -1.5 0 -1.5 -16.2 -0.2 -16.3 -0.3 0 -3.5 0 -3.5 3 -0.6 c1.7 -0.4 9 -0.7 16.3 -0.8 l13.2 -0.1 0 -88.9 0 -89 1.1 -0.7 1.1 -0.6 339.5 -8 339.5 -7.9 1.4 0.5 1.4 0.5 0 89.2 0 89.1 13.3 -0.3 13.2 -0.4 0 4 0 4 -12 0.6 c-6.6 0.4 -12.6 0.7 -13.2 0.8 l-1.3 0.1 0 1.7 0 1.6 10.7 -0.6 c5.8 -0.4 13.9 -0.7 18 -0.7 l7.3 0 0 -140 0 -140 -11.9 0 c-6.5 0 -14.6 0.3 -17.9 0.6 l-6.1 0.7 -0.3 15.1 -0.3 15.1 -8.5 0.7 -8.5 0.8 -331.8 7.6 -331.7 7.6 -1.5 -0.6 -1.5 -0.5 0 -444 0 -443.9 11.3 -0.6 c6.1 -0.3 159.4 -4 340.5 -8.2 l329.3 -7.6 1.5 0.6 1.4 0.5 0 207.2 0 207.2 3.8 -0.7 c2 -0.3 10.1 -0.6 18 -0.6 l14.2 0 0 -236 0 -236 -7.7 0 c-4.3 0 -171.1 3.8 -370.8 8.5 -199.6 4.7 -366.3 8.5 -370.2 8.5 l-7.3 0 0 598.1 0 598.2 4.6 -0.7 c2.6 -0.3 10.7 -0.6 18 -0.6z m28.3 -0.6 l6.1 -0.7 0 -1.3 0 -1.4 -8.5 0 -8.5 0 0 2 0 2 2.4 0 c1.2 0 5.1 -0.3 8.5 -0.6z m323.6 -7.4 c171.1 -3.9 313.4 -7.3 316.3 -7.6 l5.2 -0.5 0 -1.5 0 -1.5 -17.2 0.6 c-13.4 0.5 -611.4 14.5 -618.2 14.5 l-1.6 0 0 1.5 0 1.5 2.3 0 c1.2 0.1 142.2 -3.1 313.2 -7z m-351.7 2 l13.2 0 0 -1.5 0 -1.5 -15.5 0 -15.5 0 0 2.1 0 2.1 2.3 -0.6 c1.2 -0.3 8.2 -0.6 15.5 -0.6z m29.6 -0.6 l4.6 -0.7 0 -1.4 0 -1.4 -8.2 0.3 -8.3 0.3 -0.3 1.8 -0.3 1.7 3.9 0 c2.2 0 6 -0.3 8.6 -0.6z m324.6 -7.4 c171.9 -3.9 314 -7.4 315.8 -7.6 l3.2 -0.5 0 -1.5 0 -1.5 -16.7 0.6 c-13.6 0.5 -611.1 14.5 -618.2 14.5 l-2.1 0 0 1.5 0 1.5 2.8 0 c1.5 0.1 143.3 -3.1 315.2 -7z m-323.7 1.4 l3.7 -0.7 0 -29.8 0 -29.8 1 -0.6 1.1 -0.7 318.6 -7.4 318.6 -7.5 1.4 0.5 1.3 0.5 0 30.1 0 30 8.5 0 8.5 0 0 -87.6 0 -87.5 -17.7 0.6 c-9.8 0.3 -153.2 3.7 -318.8 7.5 -165.5 3.8 -309.7 7.2 -320.2 7.6 l-19.3 0.6 0 87.4 0 87.4 4.8 0 c2.6 0 6.4 -0.3 8.5 -0.6z m324.7 -7.4 c172.4 -4 314.5 -7.4 315.8 -7.6 l2.2 -0.4 0 -29.6 0 -29.5 -17.2 0.6 c-13.3 0.5 -611.5 14.5 -618.3 14.5 l-1.5 0 0 29.5 0 29.5 2.8 0 c1.5 0.1 143.8 -3.1 316.2 -7z m338 2.5 l0 -1.5 -8.5 0 -8.5 0 0 1.5 0 1.5 8.5 0 8.5 0 0 -1.5z m0 -6 l0 -1.5 -8.5 0 -8.5 0 0 1.5 0 1.5 8.5 0 8.5 0 0 -1.5z m21.9 0.9 l6.1 -0.7 0 -1.3 0 -1.4 -7.4 0 c-4 0 -9.4 0.3 -12 0.6 l-4.6 0.7 0 1.3 0 1.4 5.9 0 c3.2 0 8.6 -0.3 12 -0.6z m-357.4 -236.4 c166.7 -3.8 310.8 -7.2 320.3 -7.6 l17.2 -0.6 0 -14.4 0 -14.4 -15.2 0 c-8.4 0 -17 0.3 -19 0.6 l-3.7 0.6 -0.3 4.1 -0.3 4 -1.5 0.8 -1.5 0.8 -299 6.9 -299 6.9 -1.2 -1 -1.3 -0.9 0 -302 0 -301.9 1.3 -0.4 c1.8 -0.6 601 -14.4 601.9 -13.9 l0.8 0.5 0 76.6 0 76.5 1.6 -0.6 1.6 -0.6 17.4 0 17.4 0 0 -85.8 0 -85.8 -3.7 0.4 c-3 0.2 -602.7 14.2 -662 15.4 l-14.3 0.3 0 321.9 0 321.9 19.8 -0.7 c10.8 -0.4 156 -3.8 322.7 -7.6z m-294.5 -261.5 l0 -246.5 2.3 -0.9 2.2 -0.9 288.8 -6.6 288.9 -6.6 0.9 0.6 0.9 0.5 0 21.5 0 21.4 3.5 0 3.5 0 0 -75.5 0 -75.5 -3.5 0 -3.5 0 0 48.9 0 48.9 -1.2 0.9 -1.3 1 -289.8 6.7 -289.8 6.7 -0.9 -0.6 -1 -0.6 0 -49 0 -48.9 -3.5 0 -3.5 0 0 300.5 0 300.5 3.5 0 3.5 0 0 -246.5z m287 239.5 c143.8 -3.3 268.8 -6.2 277.8 -6.6 l16.2 -0.6 0 -3.6 0 -3.5 -20.7 0.7 c-11.5 0.3 -139.5 3.4 -284.5 6.7 l-263.8 6.1 -1.5 -0.6 -1.5 -0.5 0 -219.9 0 -220 1.3 -1 1.2 -1 282.5 -6.6 c155.4 -3.7 283.5 -6.6 284.8 -6.6 l2.2 0 0 -3.5 0 -3.5 -8.2 0 c-4.6 0 -132.9 2.9 -285.3 6.5 -152.3 3.6 -278.9 6.5 -281.2 6.5 l-4.3 0 0 228.9 0 228.9 11.8 -0.4 c6.4 -0.3 129.4 -3.2 273.2 -6.4z m-268 -5.4 l0 -1.4 -2 -0.5 -2 -0.5 0 -3.7 0 -3.7 2 -0.5 2 -0.5 0 -212.4 0 -212.4 -3.5 0 -3.5 0 0 218.5 0 218.5 3.5 0 3.5 0 0 -1.4z m188 -2.6 c98.2 -2.2 183.1 -4.3 188.8 -4.6 l10.2 -0.6 0 -218.4 0 -218.4 -3.7 0 c-10.3 -0.1 -366.8 8.1 -373 8.6 l-7.3 0.6 0 212.5 0 212.5 32.3 -0.3 32.2 -0.4 0 4 0 4 -24 0.6 c-13.2 0.4 -27.7 0.7 -32.2 0.8 l-8.3 0.1 0 1.5 0 1.5 3.3 0 c1.7 0 83.5 -1.8 181.7 -4z m384 -2.5 l0 -3.5 -3.5 0 -3.5 0 0 3.5 0 3.5 3.5 0 3.5 0 0 -3.5z m-529.2 -0.2 l23.2 -0.6 0 -1.4 0 -1.3 -14.2 0 c-7.9 0 -22.1 0.3 -31.5 0.7 l-17.3 0.6 0 1.4 0 1.3 8.3 0 c4.5 0 18.7 -0.3 31.5 -0.7z m363.2 -221.3 l0 -219 -3.9 0 c-2.1 0 -5.9 0.3 -8.5 0.6 l-4.6 0.7 0 218.3 0 218.4 8.5 0 8.5 0 0 -219z m80 217 c31.1 -0.6 58.9 -1.3 61.8 -1.6 l5.2 -0.5 0 -20 0 -19.9 -1.5 0 -1.5 0 -0.2 18.3 -0.3 18.2 -4 0 -4 0 -0.3 -18.2 -0.2 -18.3 -3.3 0 c-1.7 0 -29.5 0.7 -61.7 1.5 l-58.4 1.5 -0.8 -0.8 -0.8 -0.8 0.2 -117.5 0.3 -117.4 19.5 -0.6 c10.7 -0.3 32.8 -0.8 49 -1 l29.5 -0.4 0.3 16.8 0.2 16.7 3.3 0 c1.7 0 7.6 -0.3 13 -0.7 l9.7 -0.6 0 -20.5 0 -20.5 -29.2 0.6 c-16.1 0.4 -44.3 1 -62.6 1.4 l-33.2 0.6 0.2 -72.4 0.3 -72.4 45.5 -1.1 c25 -0.7 53 -1.2 62.2 -1.3 l16.7 -0.1 0.3 -2.2 0.3 -2.3 1.8 -0.3 c1 -0.2 2.9 -0.1 4.3 0.2 l2.4 0.6 0 1.5 0 1.5 1.5 0 1.5 0 0 -3.5 0 -3.5 -7.2 0 c-4 0 -33.2 0.7 -64.8 1.5 -31.6 0.8 -61 1.5 -65.2 1.5 l-7.8 0 0 219.1 0 219.1 10.8 -0.6 c5.9 -0.3 36.1 -1 67.2 -1.6z m76 -22 l0 -20 -3.5 0 -3.5 0 0 20 0 20 3.5 0 3.5 0 0 -20z m10 -0.5 l0 -20.5 -3.5 0 -3.5 0 0 20.5 0 20.5 3.5 0 3.5 0 0 -20.5z m34.2 19.5 l6.8 0 0 -19.9 0 -20 -0.7 -0.4 c-0.5 -0.2 -9 -0.2 -19 0.1 l-18.3 0.4 0 20.6 0 20.5 12.2 -0.6 c6.6 -0.4 15.2 -0.7 19 -0.7z m32.1 -0.7 l12.7 -0.6 0 -20.5 0 -20.4 -2.2 0.6 -2.3 0.6 -15.7 0 -15.8 0 0 20.5 0 20.5 5.3 0 c2.8 0 10.9 -0.3 18 -0.7z m80.7 -1.8 c31.6 -0.8 61 -1.5 65.3 -1.5 l7.7 0 0 -219.1 0 -219.1 -10.2 0.6 c-5.7 0.3 -36.7 1.1 -69 1.8 l-58.8 1.2 0 3.9 0 3.9 18.8 -0.6 c10.3 -0.3 39 -1.1 63.9 -1.7 l45.2 -1.1 1.1 0.7 1 0.6 0 71.4 0 71.4 -0.8 0.5 c-0.4 0.2 -21 0.9 -45.7 1.5 -24.8 0.6 -53.7 1.3 -64.2 1.7 l-19.3 0.6 0 20.7 0 20.7 5.8 -0.3 c3.1 -0.1 29.5 -0.8 58.5 -1.4 l52.9 -1.1 0.9 0.9 0.9 0.9 -0.2 83.5 -0.3 83.4 -19 0.6 c-10.4 0.4 -20.9 0.7 -23.2 0.8 l-4.3 0.1 0 16.4 0 16.5 -0.7 0.4 c-0.5 0.3 -16.7 0.8 -36 1.2 l-35.3 0.8 0 20.3 0 20.4 3.8 0 c2 0 29.6 -0.7 61.2 -1.5z m-172 -19 l0 -17.5 -1.5 0 -1.5 0 0 17.5 0 17.5 1.5 0 1.5 0 0 -17.5z m259.8 16.9 l5.2 -0.7 0 -218.3 0 -218.4 -8.5 0 -8.5 0 0 219 0 219 3.3 0 c1.7 0 5.6 -0.3 8.5 -0.6z m195.2 -4.4 c98.7 -2.2 183.2 -4.3 187.8 -4.6 l8.2 -0.6 0 -218.4 0 -218.4 -3.7 0 c-10.2 -0.1 -361.2 8.1 -370 8.6 l-10.3 0.6 0 218.4 0 218.4 4.3 0 c2.3 0 85 -1.8 183.7 -4z m215 -224.1 l0 -219.2 -6.1 0.7 c-3.4 0.3 -7.3 0.6 -8.5 0.6 l-2.4 0 0 218.5 0 218.5 8.5 0 8.5 0 0 -219.1z m-733.4 193.1 c23.1 -0.6 45.5 -1 49.7 -1 l7.7 0 0 -15.9 0 -15.8 -11.2 0.3 c-17 0.6 -96.3 2.4 -104.5 2.4 l-7.3 0 0 15.9 0 15.9 11.8 -0.4 c6.4 -0.3 30.6 -0.9 53.8 -1.4z m63.4 -17 l0 -16 -1.5 0 -1.5 0 0 16 0 16 1.5 0 1.5 0 0 -16z m5.8 -0.3 l0.3 -15.7 -1.6 0 -1.5 0 0 16.1 0 16.1 1.3 -0.4 1.2 -0.5 0.3 -15.6z m9.2 -0.2 l0 -15.5 -3.5 0 -3.5 0 0 15.5 0 15.5 3.5 0 3.5 0 0 -15.5z m10 0 l0 -15.5 -3.5 0 -3.5 0 0 15.5 0 15.5 3.5 0 3.5 0 0 -15.5z m27.3 14.8 l13.7 -0.6 0 -15.4 0 -15.3 -15.9 0 -15.8 0 -3.2 0.6 -3.1 0.7 0 15.3 0 15.4 5.3 0 c3 0 11.5 -0.3 19 -0.7z m42 -1 l9.7 -0.6 0 -15.4 0 -15.3 -12.7 0 c-7.1 0 -15.2 0.3 -18 0.6 l-5.3 0.7 0 15.3 0 15.4 8.3 0 c4.5 0 12.6 -0.3 18 -0.7z m81.5 -1.8 l1.2 -0.4 0 -15.6 0 -15.5 -24.7 0.5 c-13.7 0.3 -29.4 0.8 -35 1.1 l-10.3 0.6 0 15.5 0 15.4 33.8 -0.6 c18.5 -0.4 34.3 -0.8 35 -1z m-210 -29.2 l28.2 -0.6 0 -82.5 0 -82.4 -2.2 0.5 c-1.3 0.3 -27.5 1.1 -58.3 1.7 -30.8 0.6 -57.5 1.3 -59.2 1.6 l-3.3 0.5 0 81.6 0 81.6 33.3 -0.6 c18.2 -0.4 45.9 -1 61.5 -1.4z m34 -83.1 l0.2 -82.2 -1.5 0 -1.5 0 0 82.6 0 82.6 1.3 -0.4 1.2 -0.5 0.3 -82.1z m6.2 -0.2 l0 -82 -1.5 0 -1.5 0 0 82 0 82 1.5 0 1.5 0 0 -82z m9 0 l0 -82 -3.5 0 -3.5 0 0 82 0 82 3.5 0 3.5 0 0 -82z m10 0 l0 -82 -3.5 0 -3.5 0 0 82 0 82 3.5 0 3.5 0 0 -82z m32.7 81 l8.3 0 0 -82 0 -82 -14.4 0 c-7.9 0 -16.4 0.3 -19 0.6 l-4.6 0.7 0 82 0 82 10.7 -0.6 c5.8 -0.4 14.4 -0.7 19 -0.7z m41.1 -1 l5.2 0 0 -82 0 -82 -11.2 0 c-6.2 0 -14.3 0.3 -18 0.7 l-6.8 0.6 0 82 0 82 12.8 -0.6 c7 -0.4 15.1 -0.7 18 -0.7z m71.7 -1.5 c7.2 -0.2 22.1 -0.4 33.3 -0.4 l20.2 -0.1 0 -82.6 0 -82.7 -17.7 0.7 c-9.8 0.3 -30.6 0.8 -46.3 1.1 -15.7 0.3 -34 0.8 -40.7 1.1 l-12.3 0.6 0 82 0 81.9 25.3 -0.6 c13.8 -0.3 31.1 -0.8 38.2 -1z m-240.2 -161.1 l35.7 -0.7 0 -16 0 -16 -10.7 0.7 c-6 0.3 -27.3 0.9 -47.5 1.2 l-36.8 0.7 0 16 0 16 11.8 -0.7 c6.4 -0.3 27.8 -0.9 47.5 -1.2z m69.7 -22.5 l0 -21.1 -1.2 0.4 -1.3 0.5 -0.3 20.6 -0.2 20.7 1.5 0 1.5 0 0 -21.1z m6 0.1 l0 -21 -1.5 0 -1.5 0 0 21 0 21 1.5 0 1.5 0 0 -21z m9 0 l0 -21 -3.5 0 -3.5 0 0 21 0 21 3.5 0 3.5 0 0 -21z m9.8 -0.2 l0.2 -20.8 -3.5 0 -3.5 0 0 21.1 0 21 3.3 -0.3 3.2 -0.3 0.3 -20.7z m41 -1 l0.2 -20.8 -9.2 0 c-5.1 0 -13.7 0.3 -19 0.7 l-9.8 0.6 0 20.4 0 20.3 18.8 -0.2 18.7 -0.3 0.3 -20.7z m38.2 -0.8 l0 -21 -5.8 0 c-3.3 0 -11.4 0.3 -18 0.7 l-12.2 0.6 0 20.4 0 20.3 18 0 18 0 0 -21z m-173.5 -19 c28.1 -0.6 53.8 -1.3 57.3 -1.6 l6.2 -0.6 0 -69.9 0 -69.9 -4.2 0 c-11.6 -0.1 -103.4 2.1 -110.5 2.6 l-8.3 0.6 0 69.9 0 69.9 4.3 0 c2.3 0 27.2 -0.4 55.2 -1z m69.5 -72 l0 -70 -1.5 0 -1.5 0 0 70 0 70 1.5 0 1.5 0 0 -70z m6 0 l0 -70 -1.5 0 -1.5 0 0 70 0 70 1.5 0 1.5 0 0 -70z m9 -0.5 l0 -70.5 -3.5 0 -3.5 0 0 70.5 0 70.5 3.5 0 3.5 0 0 -70.5z m10 0 l0 -70.5 -3.5 0 -3.5 0 0 70.5 0 70.5 3.5 0 3.5 0 0 -70.5z m39.8 69 l1.2 -0.4 0 -70.2 0 -70.2 -12.2 0.6 c-6.6 0.4 -15.2 0.7 -19 0.7 l-6.8 0 0 70.3 0 70.2 17.7 -0.3 c9.8 -0.2 18.4 -0.5 19.1 -0.7z m25.8 -0.5 l13.4 0 0 -70.6 0 -70.7 -8.2 0.6 c-4.6 0.4 -12.7 0.7 -18 0.7 l-9.8 0 0 70.6 0 70.7 4.6 -0.7 c2.6 -0.3 10.7 -0.6 18 -0.6z m86.4 -2 c22.8 -0.6 45 -1 49.3 -1 l7.7 0 0 -70.5 0 -70.6 -17.2 0.6 c-23 0.8 -95 2.5 -103.3 2.5 l-6.5 0 0 70.5 0 70.4 14.3 -0.5 c7.8 -0.2 32.9 -0.9 55.7 -1.4z m-162 -142.5 l0 -3.5 -3.5 0 -3.5 0 0 3.5 0 3.5 3.5 0 3.5 0 0 -3.5z m10 -0.5 l0 -4 -1.9 0 c-1.1 0 -2.6 0.3 -3.5 0.6 l-1.6 0.6 0 3.4 0 3.4 3.5 0 3.5 0 0 -4z m31.2 3 l9.8 0 0 -4.1 0 -4.1 -2.2 0.6 -2.3 0.6 -16.7 0 -16.8 0 0 4.1 0 4.2 9.2 -0.7 c5 -0.3 13.5 -0.6 19 -0.6z m41.1 -1 l6.7 0 0 -3.5 0 -3.5 -18 0 -18 0 0 4.2 0 4.1 11.3 -0.6 c6.1 -0.4 14.2 -0.7 18 -0.7z m-365.4 -11.5 c152.6 -3.6 278.7 -6.5 280.2 -6.5 l2.9 0 0 -15.5 0 -15.5 -5.3 0 c-2.9 0 -130.2 2.9 -282.8 6.5 -152.6 3.6 -280.4 6.5 -284.1 6.5 l-6.8 0 0 15.5 0 15.5 9.3 0 c5 0 134 -2.9 286.6 -6.5z m-0.4 -43.5 c146.9 -3.3 270.7 -6.3 275.3 -6.6 l8.2 -0.6 0 -48.5 0 -48.5 -14.2 0.6 c-7.9 0.4 -134 3.3 -280.3 6.6 -146.3 3.3 -270.2 6.3 -275.2 6.6 l-9.3 0.6 0 48.5 0 48.5 14.3 -0.6 c7.8 -0.3 134.4 -3.3 281.2 -6.6z m-1 -119.5 c182.1 -4.2 331.6 -7.8 332.3 -8.1 l1.2 -0.3 0 -118.7 0 -118.6 -17.7 0.6 c-9.8 0.4 -154.6 3.8 -321.8 7.6 -167.2 3.8 -311.3 7.2 -320.2 7.6 l-16.3 0.6 0 118.4 0 118.4 5.8 0 c3.1 0.1 154.6 -3.4 336.7 -7.5z m4.1 -302 c200.3 -4.7 365.4 -8.5 366.8 -8.5 l2.6 0 0 -45.6 0 -45.7 -17.7 0.6 c-9.8 0.4 -176.6 4.3 -370.8 8.7 -194.1 4.4 -356.3 8.3 -360.2 8.6 l-7.3 0.6 0 45.1 0 45.2 11.2 -0.3 c6.2 -0.1 175.2 -4.1 375.4 -8.7z m-368.8 -118.2 l0.2 -33.1 7.3 -0.6 c3.9 -0.3 165.3 -4.2 358.5 -8.6 l351.2 -8.1 1 0.6 1 0.6 0 33.1 0 33.1 6.1 -0.7 c3.4 -0.3 7.7 -0.6 9.5 -0.6 l3.4 0 0 -38.2 0 -38.1 -18.2 0.6 c-10.1 0.4 -177.8 4.3 -372.8 8.7 -195 4.5 -356.9 8.3 -359.7 8.6 l-5.3 0.5 0 38 0 38 8.8 -0.3 8.7 -0.3 0.3 -33.2z m363.2 24.7 c187.8 -4.4 344.3 -8 347.8 -8 l6.2 0 0 -32.6 0 -32.6 -16.2 0.6 c-9 0.4 -163 4 -342.3 8.1 -179.3 4.1 -332.9 7.7 -341.2 8.1 l-15.3 0.6 0 31.9 0 31.9 9.8 0 c5.3 0 163.4 -3.6 351.2 -8z m-318 -71.6 l37.5 -0.7 2.5 -0.8 2.5 -0.9 -36 0.5 c-19.8 0.3 -43.5 0.8 -52.7 1.2 l-16.8 0.6 0 1 0 1 12.8 -0.6 c7 -0.4 29.6 -1 50.2 -1.3z m362 -8.4 c167.5 -3.8 310.5 -7.3 317.8 -7.6 l13.2 -0.6 0 -8.4 0 -8.4 -10.2 0 c-5.7 0.1 -24.2 0.5 -41.3 1 -17 0.5 -158.1 3.9 -313.5 7.5 -155.4 3.7 -282.6 6.7 -282.6 6.8 -0.1 0.1 -0.4 3.9 -0.6 8.5 l-0.5 8.2 6.6 0 c3.6 0 143.6 -3.1 311.1 -7z m-345.7 3.3 l25.7 -0.6 0 -6.4 0 -6.5 -11.7 0.6 c-6.5 0.3 -30.1 0.9 -52.5 1.2 l-40.8 0.6 0 6.6 0 6.5 26.8 -0.7 c14.7 -0.3 38.3 -0.9 52.5 -1.3z m-67.1 -35.3 l0.3 -22 -3.1 0 c-1.7 0 -4.6 0.3 -6.3 0.6 l-3.1 0.7 0 21.3 0 21.4 6 0 5.9 0 0.3 -22z m39.6 20.3 l20.2 -0.6 0 -20.5 0 -20.5 -18.7 0.6 c-10.4 0.4 -23.2 0.7 -28.5 0.7 l-9.8 0 0 20.5 0 20.5 8.3 0 c4.5 0 17.3 -0.3 28.5 -0.7z m36.6 -0.9 l1.6 -0.6 0 -19.9 0 -19.9 -8 0 -8 0 0 20.5 0 20.5 6.4 0 c3.5 0 7.1 -0.3 8 -0.6z m16.4 -21.8 l0.2 -21.9 -3.1 0.7 c-1.7 0.3 -4.7 0.6 -6.5 0.6 l-3.4 0 0 21.5 0 21.6 6.3 -0.3 6.2 -0.3 0.3 -21.9z m278.8 15.4 c141.3 -3.2 266 -6.2 277.2 -6.6 l20.2 -0.6 0 -21.4 0 -21.4 -1.2 0 c-0.7 0 -126.2 2.9 -278.8 6.5 -152.6 3.6 -280.9 6.5 -285.2 6.5 l-7.8 0 0 21.5 0 21.5 9.4 0 c5.1 0 125 -2.7 266.2 -6z m359.7 -8 l12.7 0 0 -22 0 -22.1 -29.7 0.6 c-16.4 0.3 -32.6 0.8 -36 1.1 l-6.3 0.6 0 21.5 0 21.6 23.3 -0.6 c12.7 -0.4 28.9 -0.7 36 -0.7z m-662.5 -30.7 l24.2 -0.6 0 -5.6 0 -5.6 -47.7 1.2 c-26.3 0.6 -49.9 1.2 -52.5 1.2 l-4.8 0.1 0 5.7 0 5.6 28.3 -0.6 c15.5 -0.4 39.1 -1 52.5 -1.4z m330.2 -7.8 c153.7 -3.5 294.2 -6.7 312.3 -7.1 l32.7 -0.6 0 -5.9 c0 -3.3 -0.1 -5.9 -0.3 -5.9 -0.1 0 -144.4 3.4 -320.7 7.5 -176.3 4.1 -321.9 7.5 -323.7 7.5 l-3.3 0 0 5.8 0 5.8 11.8 -0.3 c6.4 -0.2 137.5 -3.3 291.2 -6.8z m-355.5 -5.5 c25.9 -0.6 191.7 -4.5 368.5 -8.6 176.8 -4.1 323.9 -7.4 326.8 -7.4 l5.2 0 0 -57.5 0 -57.5 -5.2 0 c-2.9 0 -168.6 3.8 -368.3 8.5 -199.6 4.7 -367.4 8.5 -372.7 8.5 l-9.8 0 0 57.5 0 57.5 4.3 0 c2.3 0 25.3 -0.5 51.2 -1z"/>
  <path d="M1737.7 755.4 l-0.7 -0.7 0 -107.7 0 -107.8 1.4 -1.1 1.5 -1.2 2.8 0.3 2.8 0.3 0 109 0 109 -3.5 0.3 -3.6 0.3 -0.7 -0.7z m5.3 -108.4 l0 -107 -1.5 0 -1.5 0 0 107 0 107 1.5 0 1.5 0 0 -107z"/>
  <path d="M1050.7 1653.3 l-0.7 -0.6 0 -42.9 0 -42.9 1.3 -0.4 c0.6 -0.2 144.5 -3.7 319.7 -7.8 l318.5 -7.4 1.3 1 1.2 0.9 0 42.4 0 42.3 -1.1 0.6 -1.1 0.7 -313.6 7.4 c-172.5 4 -316.2 7.4 -319.3 7.4 l-5.6 0 -0.6 -0.7z m317.8 -8.8 c153.5 -3.5 288.3 -6.7 299.8 -7.1 l20.7 -0.6 0 -41.4 0 -41.4 -9.4 0 c-5.1 0 -143.8 3.1 -308.2 7 -164.4 3.8 -303.5 7 -309.1 7 l-10.3 0 0 42.1 0 42.1 18.8 -0.7 c10.3 -0.3 144.3 -3.5 297.7 -7z"/>
  <path d="M1108.7 1419.3 l-0.7 -0.6 0 -116.8 0 -116.8 1.2 -0.7 1.2 -0.8 48 -1.1 c26.5 -0.6 48.4 -1 48.8 -0.8 l0.8 0.4 0 16.5 0 16.4 6.8 0 c3.7 0 63.3 -1.4 132.6 -3 l125.8 -3 0.9 0.6 0.9 0.5 0 83.4 0 83.4 -0.8 0.5 c-0.4 0.2 -11.9 0.8 -25.5 1.2 l-24.7 0.7 0 16.3 0 16.3 -0.9 0.6 -0.9 0.5 -147.4 3.5 c-81 1.9 -151.4 3.5 -156.4 3.5 l-9.1 0 -0.6 -0.7z m155.8 -4.8 c80.9 -1.9 149.4 -3.5 152.3 -3.5 l5.2 0 0 -15.8 0 -15.7 -7.7 0.2 c-4.3 0.2 -69.9 1.7 -145.8 3.3 -75.9 1.7 -142.6 3.3 -148.2 3.6 l-10.3 0.6 0 15.4 0 15.4 3.8 0 c2 0 69.9 -1.6 150.7 -3.5z m15.5 -34.5 c71.2 -1.6 143.8 -3.2 161.3 -3.6 l31.7 -0.6 0 -82.4 0 -82.3 -14.2 0.5 c-7.9 0.3 -72.1 1.9 -142.8 3.5 -70.7 1.6 -143.3 3.4 -161.5 3.9 -18.1 0.5 -35.6 0.9 -38.7 1 l-5.8 0 0 82.1 0 82.1 20.3 -0.6 c11.1 -0.4 78.5 -2 149.7 -3.6z m-91.7 -164.6 l17.7 -0.7 0 -15.5 0 -15.5 -32.7 0.7 c-18.1 0.3 -39.7 0.9 -48 1.2 l-15.3 0.7 0 15.5 0 15.5 30.3 -0.7 c16.6 -0.3 38.2 -0.9 48 -1.2z"/>
  <path d="M1108.7 1175.4 l-0.7 -0.7 0 -71.3 0 -71.3 0.9 -0.6 1 -0.5 168.3 -4 c92.6 -2.2 174 -4 181.1 -4 l12.7 0 -0.2 72.3 -0.3 72.2 -156 3.6 c-85.8 2 -167.3 3.9 -181 4.3 l-25.1 0.7 -0.7 -0.7z m184.3 -5.9 c88.3 -2 164.2 -3.8 168.8 -4.1 l8.2 -0.6 0 -69.9 0 -69.9 -6.2 0 c-3.5 0 -82.6 1.8 -175.8 4 -93.2 2.2 -171.4 4 -173.7 4 l-4.3 0 0 70.5 0 70.6 11.3 -0.6 c6.1 -0.3 83.4 -2.1 171.7 -4z"/>
  <path d="M1919.5 1399.8 c-0.3 -0.7 -0.4 -53.7 -0.3 -117.8 l0.3 -116.5 7.3 -0.7 c4 -0.3 25.8 -0.8 48.5 -1 l41.2 -0.3 0.3 16.3 0.2 16.2 9.3 0 c5 0 65.6 -1.4 134.6 -3 l125.4 -3 1.4 1.1 1.3 1.1 0 82.9 0 82.8 -0.8 0.5 c-0.4 0.2 -12.6 0.8 -27 1.2 l-26.2 0.7 0 16.3 0 16.3 -1 0.6 -1 0.6 -145.2 3.4 c-79.9 1.9 -150.4 3.5 -156.6 3.5 l-11.3 0 -0.4 -1.2z m159 -4.3 c80.9 -1.9 148.7 -3.5 150.8 -3.5 l3.7 0 0 -15.5 0 -15.5 -9.7 0 c-14.9 0 -275 5.9 -289 6.6 l-12.3 0.6 0 15.4 0 15.4 4.8 0 c2.6 0 70.9 -1.6 151.7 -3.5z m-5.1 -33.9 c82 -1.9 163.4 -3.8 180.9 -4.2 l31.7 -0.6 0 -82.4 0 -82.3 -13.7 0.5 c-7.6 0.3 -71.6 1.8 -142.3 3.5 -70.7 1.6 -143.3 3.4 -161.5 3.9 -18.1 0.5 -36 0.9 -39.7 1 l-6.8 0 0 82 0 82 1.2 0 c0.6 0 68.2 -1.5 150.2 -3.4z m-72.1 -165.2 l13.7 -0.7 0 -15.5 0 -15.5 -29.2 0.7 c-16.1 0.3 -37.1 0.9 -46.5 1.2 l-17.3 0.7 0 15.5 0 15.5 32.8 -0.7 c18 -0.3 38.9 -0.9 46.5 -1.2z"/>
  <path d="M1919.8 1156.4 l-0.8 -0.7 0 -71.3 0 -71.3 0.9 -0.5 0.9 -0.6 174.6 -4.1 174.7 -4.1 1.4 0.6 1.5 0.5 0 71.6 0 71.6 -1.2 0.4 c-0.7 0.2 -70.8 2 -155.8 3.9 -85 2 -163.7 3.8 -175 4.2 l-20.5 0.6 -0.7 -0.8z m183.1 -6 c82.1 -1.9 153.6 -3.4 158.7 -3.4 l9.4 0 0 -70.6 0 -70.6 -20.2 0.7 c-22.2 0.7 -315.5 7.5 -323.7 7.5 l-5.1 0 0 70.5 0 70.5 15.8 -0.6 c8.6 -0.3 82.9 -2.1 165.1 -4z"/>
  <path d="M1089.7 957.4 l-0.7 -0.7 0 -38.8 0 -38.8 0.9 -0.5 0.9 -0.6 82.3 -2 82.2 -2 1.4 1.1 1.3 1.1 0 38.4 0 38.3 -0.9 0.5 c-0.4 0.3 -29.8 1.2 -65.2 2 -35.4 0.9 -72.7 1.8 -82.9 2.1 l-18.5 0.7 -0.8 -0.8z m90.3 -3.9 c35.5 -0.8 66.9 -1.5 69.8 -1.5 l5.2 0 0 -37.9 0 -38 -12.7 0.5 c-14.4 0.5 -138 3.4 -146 3.4 l-5.3 0 0 37.9 0 37.9 12.3 -0.4 c6.7 -0.3 41.2 -1.1 76.7 -1.9z"/>
  <path d="M1110.2 917.4 l0.3 -17.9 23.5 -0.6 c12.9 -0.4 41.2 -1 62.8 -1.4 l39.2 -0.8 -0.2 17.9 -0.3 17.9 -23.5 0.6 c-12.9 0.4 -41.2 1 -62.8 1.4 l-39.2 0.8 0.2 -17.9z m62.3 14.6 c28.1 -0.6 53.4 -1.3 56.3 -1.6 l5.2 -0.5 0 -15.5 0 -15.4 -4.2 0 c-12.7 -0.1 -109.9 2.2 -113.5 2.6 l-4.3 0.5 0 15.5 0 15.4 4.8 0 c2.6 0 27.7 -0.4 55.7 -1z"/>
  <path d="M1476.8 948.4 l-0.8 -0.7 0 -38.8 0 -38.8 0.9 -0.6 1 -0.5 86.1 -2.1 86.1 -2.1 1.5 0.6 1.4 0.5 0 39.1 0 39.1 -1.2 0.4 c-0.7 0.2 -33.2 1.1 -72.3 1.9 -39 0.9 -78 1.9 -86.5 2.2 l-15.5 0.6 -0.7 -0.8z m88.2 -3.9 c35.5 -0.8 69.3 -1.5 75.3 -1.5 l10.7 0 0 -38.1 0 -38.1 -19.2 0.7 c-20.6 0.6 -141.7 3.5 -149.3 3.5 l-4.5 0 0 37.9 0 37.8 11.3 -0.4 c6.1 -0.2 40.2 -1 75.7 -1.8z"/>
  <path d="M1497.7 925.3 l-0.7 -0.6 0 -16.9 0 -16.9 1.3 -0.4 c1.8 -0.5 132.1 -3.4 133 -2.8 l0.7 0.4 0 16.9 0 16.9 -1.2 0.7 -1.3 0.8 -50.5 1.2 c-27.8 0.7 -57.3 1.3 -65.6 1.3 l-15.1 0.1 -0.6 -0.7z m74.3 -2.8 c31.6 -0.8 57.6 -1.5 57.8 -1.5 0.1 0 0.2 -7 0.2 -15.5 l0 -15.5 -9.2 0 c-17 -0.1 -115.2 2.1 -118.5 2.6 l-3.3 0.5 0 15.4 0 15.5 7.8 0 c4.2 0 33.6 -0.7 65.2 -1.5z"/>
  <path d="M1050.7 840.3 l-0.7 -0.6 0 -56.8 0 -56.8 1.1 -0.7 1.1 -0.6 318.5 -7.5 318.5 -7.4 1.4 0.5 1.4 0.5 0 57 0 57 -1.2 0.7 -1.2 0.7 -310 7.3 c-170.6 4 -314.2 7.3 -319.2 7.4 l-9.1 0 -0.6 -0.7z m323.8 -8.8 c155.1 -3.6 289.3 -6.7 298.3 -7.1 l16.2 -0.6 0 -56 0 -56 -18.2 0.7 c-10.1 0.3 -143.8 3.5 -297.3 7 -153.4 3.5 -288.6 6.7 -300.2 7.1 l-21.3 0.6 0 56 0 56 20.3 -0.6 c11.1 -0.4 147.1 -3.6 302.2 -7.1z"/>
  <path d="M1050.7 706.3 l-0.7 -0.6 0 -42.9 0 -42.9 1.3 -0.4 c0.6 -0.2 144.5 -3.8 319.7 -7.8 l318.5 -7.5 1.3 1 1.2 1 0 42.4 0 42.3 -1 0.6 -1.1 0.7 -315.2 7.4 c-173.4 4 -317 7.4 -319.3 7.4 l-4.1 0 -0.6 -0.7z m336.5 -9.4 c164.8 -3.8 300.1 -6.9 300.7 -6.9 l1.1 0 0 -41.5 0 -41.5 -10.7 0 c-6 0 -145.1 3.2 -309.3 7 -164.2 3.8 -302.7 7 -307.7 7 l-9.3 0 0 42.1 0 42 17.8 -0.6 c9.7 -0.3 152.6 -3.7 317.4 -7.6z"/>
  <path d="M1010 537.4 l-1 -1.1 0.2 -34.4 0.3 -34.4 6 -0.6 c3.3 -0.3 156.5 -4.1 340.5 -8.4 l334.5 -7.9 1.8 0.7 1.7 0.6 0 35 0 35 -0.9 0.5 -0.9 0.6 -320.4 7.4 c-176.1 4.1 -329.4 7.6 -340.6 7.8 l-20.3 0.4 -0.9 -1.2z m38 -35.6 l0 -34.1 -13.7 0.6 c-7.5 0.4 -15.6 0.7 -18 0.7 l-4.3 0 0 33.5 0 33.5 18 0 18 0 0 -34.2z m60 30.2 l9.5 0 0 -31.5 0 -31.5 -9.5 0 c-5.2 0 -20 0.3 -32.7 0.7 l-23.3 0.6 0 31.5 0 31.5 23.3 -0.6 c12.7 -0.4 27.5 -0.7 32.7 -0.7z m274.1 -6.6 c129.5 -2.9 236.5 -5.4 237.7 -5.4 l2.2 0 0 -6.5 0 -6.5 -12.2 0 c-6.8 0 -117.4 2.5 -245.8 5.5 -128.4 3 -235.9 5.5 -238.7 5.5 l-5.3 0 0 6.9 0 6.8 13.3 -0.4 c7.2 -0.2 119.2 -2.9 248.8 -5.9z m300.7 -7 l6.2 -0.6 0 -6.5 0 -6.6 -18.7 0.6 c-10.4 0.4 -25 0.7 -32.5 0.7 l-13.8 0 0 7 0 6.9 26.3 -0.5 c14.4 -0.2 29 -0.7 32.5 -1z m-304.8 -8.4 c121.8 -2.8 226.6 -5.3 232.8 -5.6 l11.2 -0.6 0 -15.4 0 -15.4 -9.2 0 c-5.1 0 -114.6 2.5 -243.3 5.5 -128.7 3 -237.5 5.5 -241.7 5.5 l-7.8 0 0 16.1 0 16.2 18.3 -0.7 c10 -0.3 117.9 -2.9 239.7 -5.6z m301.2 -7 l9.8 0 0 -16 0 -16 -29.2 0.5 c-16.1 0.4 -30.8 0.8 -32.5 1.1 l-3.3 0.5 0 15.6 0 15.6 22.7 -0.6 c12.4 -0.4 27.1 -0.7 32.5 -0.7z m-293.7 -27 c124.3 -2.8 228.4 -5.3 231.3 -5.6 l5.2 -0.5 0 -6.6 0 -6.6 -19.2 0.6 c-10.6 0.3 -120.8 2.9 -244.8 5.7 -124 2.8 -228.3 5.3 -231.7 5.6 l-6.3 0.6 0 6.5 0 6.6 19.8 -0.6 c10.8 -0.4 121.4 -2.9 245.7 -5.7z m280.8 -6.7 l22.7 -0.6 0 -6.7 0 -6.7 -16.2 0.4 c-9 0.2 -23.6 0.6 -32.5 0.9 l-16.3 0.6 0 6.4 0 6.4 9.8 0 c5.4 0 20.1 -0.3 32.5 -0.7z"/>
  <path d="M1061.8 522.5 l-0.8 -0.8 0 -19.9 0 -19.8 2.6 -1 2.6 -1 18.2 0.2 18.1 0.3 0.3 19.9 0.2 20 -0.9 0.9 -0.9 0.9 -19.3 0.5 -19.4 0.5 -0.7 -0.7z m38.2 -21.6 l0 -19.1 -2.2 0.6 -2.3 0.6 -15.7 0 -15.8 0 0 18.5 0 18.5 18 0 18 0 0 -19.1z"/>
  <path d="M1089 1911.5 l0 -28.6 1.3 -0.4 c0.6 -0.2 38.1 -1.3 83.2 -2.4 l82 -1.9 1.3 1 1.2 1 0 29.9 0 29.9 -1.5 0 -1.5 0 0 -29.5 0 -29.5 -13.7 0 c-7.6 0 -39.7 0.7 -71.3 1.5 -31.6 0.8 -62.3 1.5 -68.2 1.5 l-10.8 0 0 28 0 28 -1 0 -1 0 0 -28.5z"/>
  <path d="M1110.7 1939.3 l-0.7 -0.6 0 -16.9 0 -16.8 2.3 -0.9 2.2 -0.8 55 -1.2 c30.3 -0.6 57.6 -1.1 60.8 -1.1 l5.7 0 0 17.4 0 17.5 -0.7 0.4 c-0.5 0.3 -24.4 1 -53.3 1.6 -28.9 0.6 -56.6 1.3 -61.6 1.6 l-9.1 0.5 -0.6 -0.7z m92.1 -4 l31.2 -0.6 0 -15.9 0 -15.8 -6.2 0 c-5.5 0.1 -114.9 2.8 -115.5 3 -0.2 0 -0.3 7 -0.3 15.7 l0 15.6 29.8 -0.6 c16.3 -0.4 43.8 -1 61 -1.4z"/>
  <path d="M1465 1907 l0 -33.1 1.3 -0.4 c0.6 -0.2 42.5 -1.3 93 -2.4 l91.9 -2.1 0.9 0.6 0.9 0.5 0 35 0 34.9 -1 0 -1 0 0 -34.6 0 -34.6 -10.2 0.6 c-5.7 0.3 -45.6 1.3 -88.8 2.1 -43.2 0.9 -80 1.8 -81.7 2.1 l-3.3 0.5 0 31.9 0 32 -1 0 -1 0 0 -33z"/>
  <path d="M1486.8 1930.4 l-0.8 -0.7 0 -16.8 0 -16.8 1.1 -0.7 1.1 -0.6 71.2 -1.7 c39.1 -1 71.4 -1.6 71.9 -1.4 l0.7 0.4 0 16.8 0 16.9 -1.2 0.9 -1.3 1 -57 1.2 c-31.3 0.6 -63.3 1.4 -71 1.7 l-14 0.6 -0.7 -0.8z m70.7 -3.4 c30.8 -0.6 59.7 -1.3 64.3 -1.6 l8.2 -0.6 0 -15.4 0 -15.4 -10.2 0 c-5.7 0 -36.2 0.7 -67.8 1.5 -31.6 0.8 -59 1.5 -60.7 1.5 l-3.3 0 0 16 0 16 6.8 -0.5 c3.7 -0.3 31.9 -0.9 62.7 -1.5z"/>
  <path d="M2325.5 1343.8 c-0.3 -0.7 -0.4 -53.9 -0.3 -118.3 l0.3 -117 17 -0.6 c9.4 -0.3 30.7 -0.8 47.5 -1 l30.5 -0.4 0.3 16.8 0.2 16.9 13.3 -0.6 c7.2 -0.4 55.4 -1.6 107 -2.7 l93.8 -2.2 0.6 0.7 c0.4 0.3 0.4 0.8 0.2 1.1 -0.5 0.4 -95.8 2.9 -259.1 6.7 l-49.8 1.2 0 81.8 0 81.8 9.6 0 c11.8 0 258.1 -5.6 282.2 -6.5 l17.2 -0.6 0 1.6 0 1.5 -2.7 0 c-1.6 0 -68.9 1.6 -149.8 3.5 -80.8 1.9 -149.1 3.5 -151.8 3.5 l-4.8 0 0.3 15.6 0.3 15.7 11.5 -0.2 c21 -0.3 270.3 -6 283.8 -6.5 l13.2 -0.5 0 1.4 0 1.5 -10.1 0 c-13.1 0 -262.3 5.7 -283.7 6.5 l-16.2 0.6 -0.5 -1.3z m55.3 -203.4 l37.2 -0.7 0 -15.8 0 -15.8 -20.7 0.6 c-11.5 0.3 -31.8 0.8 -45.3 1.2 l-24.5 0.6 -0.3 15.9 -0.3 15.8 8.3 -0.6 c4.6 -0.3 25.1 -0.9 45.6 -1.2z"/>
  <path d="M2325.7 1099.3 l-0.7 -0.6 0 -47.2 0 -47.3 1.3 -0.9 1.2 -1 145 -3.1 c79.8 -1.8 149.2 -3.5 154.3 -3.8 l9.2 -0.6 0 1.4 0 1.4 -144.2 3.2 c-79.4 1.8 -148.9 3.5 -154.5 3.8 l-10.3 0.6 0 46.4 0 46.4 3.3 0 c1.7 0 71.1 -1.6 154.1 -3.5 l150.8 -3.6 0.6 0.6 0.5 0.5 -0.5 0.6 -0.6 0.6 -143.9 3.4 c-79.1 1.8 -148.6 3.4 -154.4 3.4 l-10.6 0 -0.6 -0.7z"/>
 </g>
 <g fill="#737373">
  <path d="M990 1060 l0 -879.9 3.3 -0.5 c1.7 -0.3 26.2 -1 54.2 -1.6 28.1 -0.6 75.5 -1.7 105.5 -2.5 53.7 -1.4 122.7 -3.1 436.8 -10.3 l159.3 -3.7 0.8 -1.3 0.8 -1.4 0.7 3.2 0.6 3.3 0 420.5 0 420.5 18.8 -0.7 c10.3 -0.3 40.8 -1.1 67.7 -1.6 27 -0.6 66.1 -1.5 87 -2 20.9 -0.6 183.1 -4.4 360.5 -8.5 177.4 -4.1 328.7 -7.6 336.3 -7.8 l13.7 -0.5 0 1.4 0 1.4 -10.7 0 c-6 0 -77.2 1.6 -158.3 3.5 -81.1 1.9 -148.1 3.5 -148.7 3.5 l-1.3 0 0 219.2 0 219.1 20.3 -0.6 c11.1 -0.4 82.6 -2.1 159 -3.8 l138.7 -3.2 0.7 0.6 c0.3 0.4 0.4 0.9 0.2 1.1 -0.2 0.3 -70.2 2 -155.4 4 -85.3 1.9 -171.2 4 -191 4.5 -19.8 0.5 -148.5 3.6 -286 6.7 l-250 5.7 -0.7 0.6 -0.6 0.6 -0.3 242.5 c-0.2 133.4 -0.5 243.7 -0.7 245.3 l-0.4 2.7 -0.9 0 -0.9 0 0 -39.5 0 -39.5 -5.7 0 c-3.2 0 -11.5 0.3 -18.5 0.7 l-12.8 0.6 -0.3 39.1 -0.2 39.1 -0.3 -39.2 -0.2 -39.3 -8.8 0 c-4.9 0 -13.7 0.3 -19.5 0.7 l-10.7 0.6 0 38.4 0 38.3 -1 0 -1 0 0 -38.5 0 -38.5 -4 0 -4 0 -0.3 38.8 -0.2 38.7 -0.3 -38.9 -0.2 -38.9 -15.7 0.6 c-8.7 0.4 -136.8 3.4 -284.8 6.7 -147.9 3.4 -271.4 6.3 -274.2 6.6 l-5.3 0.5 0 31.5 0 31.4 -1 0 -1 0 0 -31.5 0 -31.5 -3.5 0 -3.5 0 0 31.5 0 31.5 -1.5 0 -1.5 0 0 -31.5 0 -31.5 -8.8 0 c-4.9 0 -13.7 0.3 -19.5 0.7 l-10.7 0.6 -0.3 31.1 -0.2 31.1 -0.3 -31.2 -0.2 -31.3 -11.7 0 c-6.5 0 -14.8 0.3 -18.5 0.7 l-6.8 0.6 0 30.3 0 30.4 -1 0 -1 0 0 -880z m39 751.9 l0 -64.2 -6.1 0.7 c-3.4 0.3 -11.8 0.6 -18.5 0.6 l-12.4 0 0 63.5 0 63.5 18.5 0 18.5 0 0 -64.1z m40.8 61.9 l1.2 -1.2 136.8 -3.2 c75.2 -1.8 142.4 -3.3 149.5 -3.3 l12.7 -0.1 0 -9.3 0 -9.2 -11.2 0.3 c-48.2 1.2 -313.4 7.2 -320.2 7.2 l-8.6 0 0 10 0 10 19.3 0 19.3 0 1.2 -1.2z m453.9 -11.8 l128.3 -3 29.5 0.7 29.5 0.6 0 -10.4 0 -10.5 -6.7 0.3 c-3.8 0.2 -79.5 1.9 -168.3 3.9 -88.8 2 -162.1 3.7 -162.7 4 l-1.3 0.3 0 8.4 c0 4.6 0.2 8.6 0.4 8.8 0.2 0.2 5.5 0.3 11.8 0.1 6.2 -0.1 69 -1.6 139.5 -3.2z m208.9 -3 l16.4 0 0 -63.5 0 -63.5 -18.2 0.2 -18.3 0.3 -0.3 62.5 -0.2 62.5 0.5 1.4 0.5 1.3 1.6 -0.6 1.6 -0.6 16.4 0z m-523.1 -9 c73.7 -1.7 140 -3.3 147.3 -3.6 l13.2 -0.6 0 -4.2 0 -4.1 -47.7 1.2 c-26.3 0.6 -50.7 1.2 -54.1 1.2 l-6.4 0.1 -0.5 1.9 -0.5 1.9 -19.1 0.6 c-10.6 0.3 -40.3 1.1 -66.2 1.6 -25.9 0.5 -53.2 1.2 -60.8 1.5 l-13.9 0.6 -0.5 -2.2 -0.6 -2.2 -24.6 0.4 -24.6 0.4 -0.3 -48.2 -0.2 -48.3 -9 0 -9 0 0 52.3 0 52.4 0.8 0.7 0.7 0.8 21 -0.6 c11.6 -0.3 81.3 -2 155 -3.6z m-19 -5.5 c36.9 -0.9 67.6 -1.8 68.4 -2.1 l1.4 -0.5 -0.9 -0.9 -1 -1 -77.8 1.9 -77.7 1.8 -1.2 1.2 -1.1 1.1 11.5 0 c6.2 0 41.5 -0.7 78.4 -1.5z m341.5 -2 c86.1 -1.9 161.1 -3.8 166.8 -4.1 l10.2 -0.6 0 -53 0 -53 -2.2 0.6 c-1.3 0.3 -5.3 0.6 -9 0.6 l-6.8 0 -0.2 48.3 -0.3 48.2 -13.5 0.6 c-7.4 0.4 -30.1 1 -50.4 1.4 l-36.8 0.7 -0.5 1.8 -0.5 1.8 -5.1 0.6 c-2.9 0.3 -15.5 0.7 -28.2 0.8 l-23 0.3 -0.3 -1.7 -0.3 -1.8 -4.7 0 c-10.9 -0.1 -152.8 3.2 -153.9 3.6 l-1.3 0.3 0 4.1 0 4 1.8 0 c0.9 0 72.1 -1.5 158.2 -3.5z m-433.2 0 l1.2 -0.4 0 -14.4 0 -14.4 5.3 -0.7 c2.8 -0.3 12.9 -0.6 22.2 -0.6 9.4 0 20.7 -0.3 25.2 -0.7 l8.3 -0.6 0.2 -19.6 0.3 -19.6 18.5 -0.7 c10.2 -0.4 19.1 -0.6 19.8 -0.3 l1.2 0.4 0 19.7 0 19.7 30 -0.7 30 -0.7 0 14.5 0 14.5 0.8 0.4 c0.5 0.4 105.9 -1.9 108 -2.3 0.1 0 0.2 -21.6 0.2 -47.9 l0 -48 -10.7 0.5 c-6 0.2 -72 1.8 -146.8 3.4 -74.8 1.7 -141.5 3.3 -148.2 3.6 l-12.3 0.6 0 47.7 0 47.7 22.8 -0.4 c12.5 -0.2 23.3 -0.5 24 -0.7z m91.7 -2 c36.9 -0.9 67.6 -1.8 68.3 -2 l1.2 -0.4 0 -13.5 0 -13.5 -0.8 -0.5 c-0.5 -0.3 -15.4 0 -33.3 0.5 -17.8 0.5 -48.1 1.2 -67.4 1.5 -19.2 0.3 -39.9 0.9 -46 1.2 l-11 0.7 -0.3 13.8 -0.3 13.7 11.3 0 c6.2 0 41.4 -0.7 78.3 -1.5z m281.5 -6.5 c30.5 -0.7 56.5 -1.4 57.8 -1.6 l2.3 -0.5 -0.6 -33.7 -0.6 -33.7 0.8 -1.1 0.8 -1.1 29 -0.4 29 -0.4 0.3 19.5 0.3 19.5 -1.1 2 -1.1 2 0.3 13 0.3 13 30.1 -0.4 c16.6 -0.2 39.1 -0.6 50 -1 l19.9 -0.6 0.3 -47.9 0.2 -47.9 -21.7 0.6 c-12 0.4 -83 2.1 -157.8 3.7 -74.8 1.7 -136.6 3.3 -137.2 3.5 l-1.3 0.4 0 47.7 0 47.7 22.3 -0.6 c12.2 -0.4 47.2 -1.1 77.7 -1.7z m104.8 1.3 l11.3 -0.6 -0.4 -1 -0.3 -1.1 -21.5 0.2 c-11.8 0.2 -24 0.5 -27.1 0.9 l-5.8 0.6 0 0.8 0 0.9 16.3 0 c8.9 0 21.3 -0.3 27.5 -0.7z m0 -4 l11.2 -0.6 0 -13.9 0 -13.9 -26.2 0.6 c-14.5 0.4 -26.9 0.8 -27.5 1 l-1.3 0.4 0 13.6 0 13.5 16.3 0 c8.9 0 21.3 -0.3 27.5 -0.7z m-388.5 -21.3 l11.7 0 0 -19 0 -19 -7.2 0 c-4 0 -12.4 0.3 -18.5 0.7 l-11.3 0.6 0 19 0 19 6.8 -0.6 c3.7 -0.4 12 -0.7 18.5 -0.7z m390.9 -9 l9.8 0 0 -19.2 0 -19.1 -18.7 0.6 c-10.4 0.4 -23 0.7 -28 0.7 l-9.3 0 0 19.2 0 19.1 18.2 -0.6 c9.9 -0.4 22.5 -0.7 28 -0.7z m-555 -55 l4.8 0 0 -2.1 0 -2.1 -16.2 0.4 -16.3 0.3 0 -3.5 0 -3.5 15 -0.6 c8.3 -0.4 15.6 -0.7 16.3 -0.8 l1.2 -0.1 0 -89 0 -89.1 1.3 -0.4 c1.7 -0.5 680 -16.3 681 -15.8 l0.7 0.4 0 88.9 0 88.9 13.8 0.3 13.7 0.3 0.3 2.6 0.3 2.6 -1.4 1.1 -1.3 1.1 -12.5 0.3 -12.4 0.3 -0.3 1.8 -0.3 1.7 10.3 0 c5.7 0 14 -0.3 18.6 -0.7 l8.2 -0.6 0 -139.9 0 -139.8 -18.2 0.2 -18.3 0.3 -0.3 15.8 -0.3 15.7 -7.2 0 c-3.9 0.1 -157.3 3.6 -340.7 7.9 -183.4 4.3 -333.8 7.7 -334.2 7.4 l-0.8 -0.4 0 -443.5 0 -443.5 1.3 -0.4 c1.7 -0.6 680 -16.3 681 -15.8 l0.7 0.4 0 207.1 0 207.1 12.8 -0.6 c7 -0.4 15.3 -0.7 18.5 -0.7 l5.7 0 0 -236.3 0 -236.3 -12.7 0.4 c-17.3 0.4 -740.1 17.2 -742.4 17.2 l-1.9 0 0 598.2 0 598.1 13.7 -0.6 c7.5 -0.4 15.8 -0.7 18.5 -0.7z m25.8 -2 l0 -2.1 -8.7 0.3 -8.8 0.3 -0.3 1.8 -0.3 1.7 9 0 9.1 0 0 -2z m323.7 -6 c164.5 -3.9 303 -7 307.7 -7 l8.6 0 0 -2 0 -2 -3.7 0 c-10.2 -0.2 -628.2 14.2 -631 14.6 l-3.3 0.5 0 1.7 0 1.7 11.2 -0.3 c6.2 -0.1 145.9 -3.4 310.5 -7.2z m-349.9 2.4 l5.2 -0.7 0 -1.8 0 -1.9 -4.2 0 c-2.4 0 -9.4 0.3 -15.5 0.7 l-11.3 0.6 0 1.9 0 1.8 10.3 0 c5.6 0 12.6 -0.3 15.5 -0.6z m26.2 -2.4 l0 -2.1 -8.7 0.3 -8.8 0.3 -0.3 1.8 -0.3 1.7 9 0 9.1 0 0 -2z m335.1 -6.1 c164.8 -3.8 300.8 -6.9 302.2 -6.9 l2.7 0 0 -2 0 -2 -3.2 0 c-9.6 -0.2 -627 14.2 -630.5 14.6 l-4.3 0.5 0 2 0 1.9 16.8 -0.6 c9.2 -0.3 151.5 -3.7 316.3 -7.5z m-335.1 -28.4 l0 -30.6 1.3 -0.4 c0.6 -0.2 140.5 -3.5 310.7 -7.4 170.2 -3.9 313.8 -7.2 319 -7.3 l9.5 -0.3 0.5 30.5 0.5 30.5 8.5 0 8.5 0 0.3 -87.7 0.2 -87.8 -3.7 0 c-8.9 -0.1 -670.9 15.2 -672 15.6 l-1.3 0.3 0 87.6 0 87.5 9 0 9 0 0 -30.5z m336.1 22.4 c164.8 -3.8 300.6 -6.9 301.7 -6.9 l2.2 0 0 -30 0 -30 -3.2 0 c-8.7 -0.2 -630.6 14.2 -632.5 14.6 l-2.3 0.4 0 30 0 30.1 17.3 -0.6 c9.4 -0.4 152 -3.8 316.8 -7.6z m316.7 4.1 l6.2 0 0 -2.1 0 -2.2 -8.6 0.6 c-4.8 0.3 -8.9 0.8 -9.2 1.1 -0.2 0.3 -0.2 1.3 0.2 2.2 l0.6 1.6 2.3 -0.6 c1.2 -0.3 5 -0.6 8.5 -0.6z m4.6 -5.6 l1.6 -0.6 0 -2.1 0 -2 -8.7 0.7 c-4.8 0.3 -8.9 0.8 -9.1 1.1 -0.3 0.2 -0.2 1.1 0.1 2 l0.6 1.5 7 0 c3.8 0 7.6 -0.3 8.5 -0.6z m30.6 -2.4 l0 -2.1 -12.7 0.3 -12.8 0.3 -0.3 1.8 -0.3 1.7 13 0 13.1 0 0 -2z m-365.2 -234.5 c176.4 -4.1 324.5 -7.6 329.2 -7.7 l8.5 -0.3 0.3 -15 0.3 -15 -19.3 0.5 -19.3 0.5 -0.3 4.7 -0.3 4.6 -7.2 0.6 c-4 0.3 -138.9 3.6 -299.8 7.2 l-292.6 6.7 -1.6 -0.6 -1.7 -0.6 0 -301.4 0 -301.5 1.3 -0.9 1.2 -1 292.5 -6.6 c160.9 -3.7 295.9 -6.8 300 -7 l7.5 -0.2 0.3 76.9 0.2 76.9 10.7 -0.6 c5.8 -0.4 14.6 -0.7 19.5 -0.7 l8.8 0 0 -86.3 0 -86.2 -7.7 0.7 -7.8 0.8 -331 7.6 c-182.1 4.1 -331.8 7.4 -332.5 7.2 l-1.5 -0.3 -0.3 322.3 -0.2 322.2 11.1 0 c6 0 155.3 -3.4 331.7 -7.5z m-293.8 -261.9 l0 -246.5 1.1 -0.6 1 -0.7 289.7 -6.8 289.7 -6.8 1.3 1 1.2 1 0 20.9 0 20.9 3.5 0 3.5 0 0 -75.5 0 -75.5 -4 0 -4 0 0 49.5 0 49.5 -4.7 0.1 c-2.7 0 -133.5 3.1 -290.8 6.8 -157.3 3.7 -286.3 6.6 -286.8 6.4 l-0.7 -0.4 0 -49 0 -48.9 -3.5 0 -3.5 0 0 300.5 0 300.5 3.5 0 3.5 0 0 -246.4z m301.5 239.4 c148 -3.4 271.4 -6.3 274.3 -6.6 l5.2 -0.5 0 -3.5 0 -3.4 -7.7 0 c-4.3 0 -132.4 2.9 -284.7 6.5 l-276.8 6.5 -0.9 -0.6 -0.9 -0.5 0 -220.5 0 -220.5 1.3 -0.3 c0.6 -0.2 122.5 -3.2 270.7 -6.5 148.2 -3.4 276.1 -6.4 284.3 -6.8 l14.7 -0.6 0 -4 0 -3.9 -14.7 0.6 c-8.2 0.3 -135.2 3.3 -282.3 6.6 -147.1 3.4 -270.8 6.3 -274.7 6.6 l-7.3 0.6 0 229 0 229.1 15.3 -0.7 c8.3 -0.3 136.3 -3.3 284.2 -6.6z m-281.5 -4.9 l0 -1.9 -2 -0.5 -2 -0.5 0 -3.6 0 -3.6 2 0 2 0 0 -212.8 c0 -117.1 -0.2 -213.1 -0.5 -213.3 -0.2 -0.3 -2 -0.3 -4 -0.1 l-3.5 0.4 0 218.9 0 218.9 4 0 4 0 0 -1.9z m200.3 -3.3 l185.7 -4.3 0 -219 0 -219 -11.2 0.3 c-55.3 1.4 -356.5 8.2 -364.1 8.2 l-9.7 0 0.2 213.3 0.3 213.2 7 0 c3.9 0 18.5 -0.3 32.5 -0.5 l25.5 -0.5 0 3.5 0 3.5 -11.5 0.6 c-6.3 0.4 -20.4 0.7 -31.2 0.8 l-19.6 0.1 -1.6 0.6 -1.6 0.6 0 1.4 0 1.4 6.8 0 c3.7 0.1 90.3 -1.8 192.5 -4.2z m370.7 -2.9 l0 -4.1 -2.2 0.6 c-1.3 0.3 -2.9 0.6 -3.5 0.6 l-1.3 0 0 3.5 0 3.5 3.5 0 3.5 0 0 -4.1z m-516.2 0.5 l10.2 -0.6 0 -1.9 0 -1.9 -28.7 0.6 c-15.9 0.3 -30.3 0.7 -32 1 l-3.3 0.5 0 1.3 c0 0.7 0.3 1.5 0.6 1.9 l0.6 0.5 21.1 -0.4 c11.7 -0.3 25.8 -0.7 31.5 -1z m350.2 -221.4 l0 -219.1 -8.7 0.3 -8.8 0.3 -0.3 218.8 -0.2 218.7 9 0 9 0 0 -219z m67.5 217.5 c31.4 -0.8 62.1 -1.5 68.3 -1.5 l11.2 0 0 -21.1 0 -21 -1.7 0.3 -1.8 0.3 -0.5 18.5 -0.5 18.5 -3.5 0 -3.5 0 -0.3 -18.4 -0.2 -18.4 -33.3 0.6 c-18.2 0.4 -46.4 1 -62.4 1.4 l-29.3 0.6 0 -117.6 0 -117.7 0.8 -0.1 c3 -0.3 96.9 -2.4 97.5 -2.1 l0.7 0.3 0 16.5 0 16.4 13 0 13 0 0 -21.6 0 -21.6 -18.7 0.6 c-10.4 0.4 -38 1.1 -61.6 1.7 l-42.8 1 -0.9 -0.6 -1 -0.6 0 -70.9 0 -70.9 0.9 -0.5 c0.6 -0.4 109.2 -3.5 123.2 -3.6 0.4 0 0.9 -0.9 1.2 -2 l0.5 -2 3.6 0 3.6 0 0 2 0 2 2 0 2 0 0 -4 0 -4 -12.7 0 c-7.1 0 -38.7 0.7 -70.3 1.5 -31.6 0.8 -58.5 1.5 -59.7 1.5 l-2.3 0 0 219 0 219 4.3 0 c2.3 0 29.9 -0.7 61.2 -1.5z m86.3 -2.1 l2.2 -0.6 0 -20.4 0 -20.4 -3.5 0 -3.5 0 0 21 0 21 1.3 0 c0.6 0 2.2 -0.3 3.5 -0.6z m12.2 -20.9 l0 -20.5 -3.5 0 -3.5 0 0 20.5 0 20.5 3.5 0 3.5 0 0 -20.5z m32.8 19.8 l8.2 -0.6 0 -20.3 0 -20.4 -11.8 0 c-6.6 0 -15.3 0.3 -19.5 0.6 l-7.7 0.7 0 20.3 0 20.4 11.3 0 c6.1 0 14.9 -0.3 19.5 -0.7z m41.6 -0.9 l4.6 -0.7 0 -20.5 0 -20.5 -17.6 0.6 c-9.6 0.4 -17.9 0.9 -18.5 1.2 l-0.9 0.6 0 20 0 19.9 13.9 0 c7.6 0 15.9 -0.3 18.5 -0.6z m84.1 -1.9 c31.4 -0.8 58.2 -1.5 59.8 -1.5 l2.7 0 0 -219 0 -219 -4.2 0 c-2.4 0 -30.2 0.7 -61.8 1.5 -31.6 0.8 -61 1.5 -65.2 1.5 l-7.8 0 0 4 0 4 15.8 -0.1 c8.6 0 37.3 -0.6 63.7 -1.3 26.4 -0.7 48.3 -1.1 48.8 -0.9 l0.7 0.4 0 71.4 0 71.5 -2.2 0.4 c-1.3 0.3 -30.3 1 -64.5 1.7 l-62.3 1.2 0 21.4 0 21.3 5.8 0 c3.1 -0.1 29.6 -0.7 58.7 -1.4 29.2 -0.8 53.3 -1.2 53.8 -0.9 l0.7 0.4 0 82.9 0 82.9 -1.1 0.7 -1.1 0.6 -22.1 0.7 -22.2 0.6 -0.5 16.5 -0.5 16.5 -7.5 0.6 c-4.1 0.4 -15.1 0.7 -24.5 0.8 -9.3 0 -22.1 0.4 -28.2 0.8 l-11.3 0.6 0 20.4 0 20.3 9.8 0 c5.3 0 35.4 -0.7 66.7 -1.5z m-183.5 -19.6 l0 -18 -1.7 0.3 -1.8 0.3 -0.3 17.8 -0.2 17.7 2 0 2 0 0 -18.1z m265 -201.5 l0 -219.7 -6.7 0.6 c-3.8 0.4 -7.8 0.7 -9 0.7 l-2.3 0 0 219 0 219 9 0 9 0 0 -219.6z m200 214.5 c101.5 -2.2 185.1 -4.3 185.8 -4.5 l1.2 -0.3 0 -218.6 0 -218.5 -7.7 0 c-12.9 -0.1 -375.7 8.2 -377 8.6 l-1.3 0.3 0 218.4 c0 120.1 0.2 218.6 0.5 218.8 0.2 0.3 3.5 0.3 7.2 0.2 3.7 -0.2 89.8 -2.1 191.3 -4.4z m200.8 -4.5 l5.2 -0.7 0 -218.8 0 -218.9 -9 0 -9 0 0 219.5 0 219.5 3.8 0 c2 0 6.1 -0.3 9 -0.6z m-726.3 -25.9 c29.7 -0.8 54.1 -1.4 54.3 -1.4 0.1 -0.1 0.2 -7.3 0.2 -16.1 l0 -16 -6.2 0 c-5.4 0.1 -116.9 2.8 -117.5 3 -0.2 0 -0.3 6.9 -0.3 15.3 l0 15.4 0.7 0.6 0.6 0.7 7.1 0 c3.9 -0.1 31.4 -0.7 61.1 -1.5z m60.5 -17.5 l0 -16 -2 0 -2 0 0 16 0 16 2 0 2 0 0 -16z m6 0 l0 -16 -2 0 -2 0 0 16 0 16 2 0 2 0 0 -16z m9 -0.5 l0 -16.5 -1.2 0 c-0.7 0 -2.3 0.3 -3.5 0.6 l-2.3 0.6 0 15.9 0 15.9 3.5 0 3.5 0 0 -16.5z m10 0 l0 -16.5 -3.5 0 -3.5 0 0 16.5 0 16.5 3.5 0 3.5 0 0 -16.5z m40.8 -1.2 l0.2 -16.3 -18.2 0.6 c-10.1 0.3 -18.9 0.7 -19.5 1 l-1.3 0.3 0 15.6 0 15.5 19.3 -0.2 19.2 -0.3 0.3 -16.2z m38.2 -0.7 l0 -16.4 -17.2 0.5 c-9.5 0.2 -17.9 0.6 -18.5 0.8 l-1.3 0.4 0 15.4 c0 8.5 0.2 15.6 0.4 15.8 0.2 0.2 8.6 0.3 18.5 0.1 l18.1 -0.3 0 -16.3z m58 14.6 l15.5 -0.7 0.3 -15.7 0.3 -15.8 -11.4 0 c-6.3 0 -22.2 0.3 -35.5 0.7 l-24.2 0.6 0 16.1 0 16.1 19.7 -0.3 c10.9 -0.2 26.8 -0.7 35.3 -1z m-227 -28.7 c31.6 -0.8 57.8 -1.5 58.3 -1.5 l0.7 0 0 -82.7 0 -82.6 -18.7 0.6 c-10.4 0.4 -37.7 1.2 -60.8 1.7 -23.1 0.6 -42.6 1.3 -43.2 1.5 l-1.3 0.4 0 82.1 0 82 3.8 0 c2 0 29.6 -0.7 61.2 -1.5z m65 -84 l0 -82.5 -2 0 -2 0 0 82.5 0 82.5 2 0 2 0 0 -82.5z m6 0 l0 -82.5 -2 0 -2 0 0 82.5 0 82.5 2 0 2 0 0 -82.5z m9 -0.6 l0 -83.1 -1.6 0.6 c-0.9 0.3 -2.4 0.6 -3.5 0.6 l-1.9 0 0 82.5 0 82.5 3.5 0 3.5 0 0 -83.1z m8.8 82.1 l1.2 0 0 -82.5 0 -82.5 -3.5 0 -3.5 0 0 83.1 0 83.1 2.3 -0.6 c1.2 -0.3 2.8 -0.6 3.5 -0.6z m40 -0.6 l2.2 -0.6 0 -81.9 0 -82 -1.2 -0.4 c-0.7 -0.2 -9.4 -0.1 -19.3 0.3 l-18 0.7 -0.3 82.3 -0.2 82.2 17.2 0 17.3 0 2.3 -0.6z m40.2 -83.2 l0 -82.8 -17.2 0.4 c-9.5 0.2 -17.9 0.5 -18.5 0.7 l-1.3 0.4 0 82.1 0 82 18.5 0 18.5 0 0 -82.8z m107 79.9 l13.5 -0.6 0.3 -82.4 0.2 -82.4 -32.7 0.7 c-18.1 0.3 -44.6 0.9 -59 1.3 l-26.3 0.6 0 82.5 0 82.4 45.3 -0.7 c24.8 -0.4 51.3 -1 58.7 -1.4z m-261.2 -160.7 l16.2 -0.7 0 -15.9 0 -16 -35.7 0.7 c-19.7 0.4 -41.2 1 -47.8 1.4 l-12 0.6 -0.3 15.9 -0.3 15.9 31.8 -0.7 c17.5 -0.3 39.1 -0.9 48.1 -1.2z m50.2 -22 l0 -21.5 -1.7 0.3 -1.8 0.3 -0.3 20 c-0.1 11 0 20.5 0.2 21.2 l0.5 1.3 1.6 0 1.5 0 0 -21.6z m6 -0.4 l0 -21 -2 0 -2 0 0 21 0 21 2 0 2 0 0 -21z m9 0 l0 -21 -3.5 0 -3.5 0 0 21 0 21 3.5 0 3.5 0 0 -21z m10 -0.5 l0 -21.5 -1.9 0 c-1.1 0 -2.6 0.3 -3.5 0.6 l-1.6 0.6 0 20.9 0 20.9 3.5 0 3.5 0 0 -21.5z m35.2 20.5 l5.8 0 -0.2 -21.1 -0.3 -21.2 -18.4 0.2 c-10.2 0.1 -18.8 0.4 -19.3 0.7 l-0.8 0.5 0 21.1 0 21.1 13.7 -0.6 c7.5 -0.4 16.3 -0.7 19.5 -0.7z m31.6 -0.7 l12.2 -0.6 0 -20.9 0 -20.8 -18.2 0.2 -18.3 0.3 -0.3 20 c-0.1 11 0 20.5 0.2 21.2 l0.5 1.3 5.9 0 c3.2 0 11.4 -0.3 18 -0.7z m-150 -40.3 c22.1 -0.6 42.9 -1 46.2 -1 l6 0 0 -71 0 -71.1 -10.2 0.6 c-5.7 0.3 -33.2 1 -61.3 1.6 -28 0.6 -51.3 1.3 -51.7 1.6 l-0.8 0.4 0 69.8 0 69.8 0.6 0.6 0.7 0.7 15.1 -0.6 c8.3 -0.2 33.2 -0.9 55.4 -1.4z m58.2 -72.1 l0 -71 -1.7 0.3 -1.8 0.3 -0.3 70.8 -0.2 70.7 2 0 2 0 0 -71.1z m6 0 l0 -71 -1.7 0.3 -1.8 0.3 -0.3 69.5 c-0.1 38.2 0 70.1 0.3 70.8 l0.4 1.2 1.6 0 1.5 0 0 -71.1z m9 -0.5 l0 -70.4 -3.5 0 -3.5 0 0 70.8 0 70.8 3.5 -0.4 3.5 -0.4 0 -70.4z m10 0.1 l0 -70.5 -3.5 0 -3.5 0 0 70.5 0 70.5 3.5 0 3.5 0 0 -70.5z m30.3 69.8 l10.7 -0.6 0 -70.4 0 -70.3 -17.9 0 -17.9 0 -1.6 0.6 -1.6 0.6 0 70.4 0 70.4 8.8 0 c4.9 0 13.7 -0.3 19.5 -0.7z m42 -1 l6.7 -0.6 0 -70.3 0 -70.4 -14.7 0 c-8.2 0 -16.5 0.3 -18.5 0.6 l-3.8 0.7 0 69.7 0 69.7 0.7 0.6 0.6 0.7 11.1 0 c6.1 0 14.1 -0.3 17.9 -0.7z m82.2 -1.8 c30.3 -0.8 55.1 -1.4 55.3 -1.5 0.1 0 0.2 -31.7 0.2 -70.5 l0 -70.5 -6.2 0 c-13.8 -0.1 -107.8 2.1 -114.5 2.6 l-7.3 0.6 0 70.4 0 70.4 8.8 0 c4.8 0 33.5 -0.7 63.7 -1.5z m-164.5 -143 l0 -4.5 -3.5 0 -3.5 0 0 4.5 0 4.5 3.5 0 3.5 0 0 -4.5z m10 -0.5 l0 -4 -3.5 0 -3.5 0 0 4 0 4 3.5 0 3.5 0 0 -4z m37.3 3.4 l3.7 -0.7 0 -4 0 -4 -11.2 0.6 c-6.2 0.4 -15 0.7 -19.5 0.7 l-8.3 0 0 4 0 4 15.8 0 c8.6 0 17.4 -0.3 19.5 -0.6z m41.7 -5 l0 -4.7 -7.7 0.7 c-4.2 0.3 -12.5 0.6 -18.5 0.6 l-10.8 0 0 4 0 4 18.5 0 18.5 0 0 -4.6z m-368.5 -7.4 c148 -3.4 271.4 -6.3 274.3 -6.6 l5.2 -0.5 0 -15.5 0 -15.4 -11.2 0 c-6.2 0 -135.9 2.9 -288.3 6.5 -152.3 3.6 -277.6 6.5 -278.2 6.5 l-1.3 0 0 16.1 0 16.2 15.3 -0.7 c8.3 -0.3 136.3 -3.3 284.2 -6.6z m-4.5 -43.5 c155.4 -3.6 283.1 -6.8 283.8 -7 l1.2 -0.4 0 -48.6 0 -48.5 -2.7 0 c-1.6 0 -127.6 2.9 -280.2 6.5 -152.6 3.6 -281.9 6.5 -287.3 6.5 l-9.8 0 0 49 0 49 6.3 0 c3.4 0 133.3 -2.9 288.7 -6.5z m-4 -119.5 c166.4 -3.8 310.3 -7.2 319.8 -7.6 l17.2 -0.6 0 -118.9 0 -118.9 -5.2 0 c-11 -0.1 -669.4 15.2 -670.5 15.6 l-1.3 0.3 0 118.4 0 118.4 0.7 0.7 0.8 0.8 18 -0.7 c9.9 -0.3 154.1 -3.7 320.5 -7.5z m-0.5 -302 c190.9 -4.4 353.9 -8.2 362.3 -8.6 l15.2 -0.6 0 -45.4 0 -45.4 -2.2 0 c-7.2 -0.2 -752.5 17.2 -753.5 17.6 l-1.3 0.3 0 45.6 0 45.6 16.3 -0.6 c8.9 -0.3 172.3 -4.2 363.2 -8.5z m-360.5 -118 l0 -33.1 1.3 -0.4 c0.6 -0.3 156.9 -4 347.2 -8.4 190.3 -4.4 351.4 -8.2 358 -8.3 l12 -0.3 0.3 33.3 0.2 33.2 9.5 0 9.5 0 0 -38.5 0 -38.5 -3.7 0 c-9.9 -0.1 -751 17.2 -752.1 17.6 l-1.2 0.3 0 38.1 0 38 9.5 0 9.5 0 0 -33z m353 24.5 c177.4 -4.1 331.8 -7.7 343.3 -8.1 l20.7 -0.6 0 -32.4 0 -32.4 -4.7 0 c-11 -0.1 -708.9 16.2 -710 16.6 l-1.3 0.3 0 31.9 0 31.9 0.6 0.6 0.6 0.6 14.1 -0.5 c7.8 -0.3 159.3 -3.8 336.7 -7.9z m-296.2 -72.1 l30.3 -0.7 0.5 -0.9 0.5 -0.8 -1.3 -0.5 c-0.7 -0.3 -24.7 0.1 -53.2 0.8 l-51.9 1.2 -0.5 1.4 -0.5 1.4 22.9 -0.6 c12.6 -0.4 36.5 -1 53.2 -1.3z m362.7 -8.5 c172.7 -3.9 315 -7.3 316.3 -7.5 l2.2 -0.4 0 -9 0 -8.9 -15.7 0.5 c-8.7 0.2 -31.1 0.9 -49.8 1.4 -18.7 0.5 -153.5 3.7 -299.5 7 -146 3.3 -269.7 6.3 -274.7 6.6 l-9.3 0.6 0 8.8 0 8.9 8.3 -0.5 c4.5 -0.2 149.5 -3.6 322.2 -7.5z m-386 4.6 c18.7 -0.3 38.4 -0.8 43.8 -1.1 l9.7 -0.6 0 -6.6 0 -6.5 -32.7 0.7 c-18.1 0.3 -41.9 0.9 -53 1.3 l-20.3 0.6 0 6.2 0 6.2 0.8 0.7 0.7 0.8 8.5 -0.6 c4.7 -0.3 23.8 -0.8 42.5 -1.1z m-42.3 -14.1 l3.7 -0.6 0.3 -22 0.3 -21.9 -7 0.3 -7 0.3 -0.3 21 c-0.1 11.5 0 21.5 0.2 22.2 l0.5 1.3 2.8 0 c1.5 0 4.5 -0.3 6.5 -0.6z m52.6 -2 l10.2 -0.6 -0.2 -20.5 -0.3 -20.6 -18.5 0.2 c-10.2 0 -23.1 0.4 -28.7 0.7 l-10.3 0.7 0 20.2 c0 11.1 0.2 20.4 0.4 20.6 0.6 0.5 34.5 0.1 47.4 -0.7z m28.2 -21.4 l0 -21.1 -8.2 0.3 -8.3 0.3 -0.3 20.8 -0.2 20.7 8.5 0 8.5 0 0 -21z m15 -1 l0 -22 -7 0 -7 0 0 22 0 22 7 0 7 0 0 -22z m298.5 15 c141.9 -3.3 262.5 -6.1 268 -6.2 l10 -0.3 0 -21.9 0 -21.9 -11 0.2 c-24 0.3 -532 12.1 -547.2 12.7 l-16.3 0.6 0 22 0 22 19.3 -0.7 c10.5 -0.3 135.3 -3.3 277.2 -6.5z m331.8 -7.6 l20.7 -0.6 0 -22.2 0 -22.1 -17.2 0.3 c-9.5 0.2 -25.8 0.6 -36.3 1 l-19 0.7 -0.3 21 c-0.1 11.5 0 21.5 0.2 22.2 l0.5 1.2 15.3 -0.5 c8.4 -0.2 24.6 -0.7 36.1 -1z m-696.3 -29.4 c20.6 -0.5 43.9 -1.2 51.8 -1.6 l14.2 -0.6 0 -6 0 -6 -11.2 0.6 c-6.2 0.3 -26.4 0.8 -44.8 1.1 -18.4 0.3 -37.2 0.8 -41.7 1.1 l-8.3 0.6 0 5.9 0 5.9 1.3 0 c0.6 0 18.1 -0.4 38.7 -1z m351 -8.4 c152.6 -3.6 292.4 -6.7 310.5 -7.1 18.2 -0.3 38.1 -0.8 44.3 -1.1 l11.2 -0.6 0 -5.9 0 -5.9 -7.7 0 c-14.2 -0.1 -626.7 14.1 -634 14.6 l-7.3 0.6 0 5.9 0 5.9 2.8 0 c1.5 0 127.6 -2.9 280.2 -6.4z m-322.5 -6.6 c147.3 -3.1 669.5 -15.1 678.3 -15.6 l10.2 -0.6 0 -57.4 0 -57.4 -10.7 0 c-6 0 -174.3 3.8 -374.2 8.5 -199.9 4.7 -365.3 8.5 -367.7 8.5 l-4.4 0 0 57.5 0 57.5 9.3 0 c5 0 31.7 -0.4 59.2 -1z"/>
  <path d="M1738.7 755.4 l-0.7 -0.7 0 -108.4 0 -108.3 3.5 0 3.5 0 -0.2 108.8 -0.3 108.7 -2.5 0.3 -2.6 0.3 -0.7 -0.7z m5.1 -108.6 l-0.3 -107.3 -1.7 -0.3 -1.8 -0.3 0 107.5 0 107.6 2 0 2 0 -0.2 -107.2z"/>
  <path d="M1050.6 1653.3 l-0.6 -0.6 0 -42.3 0 -42.3 1.1 -0.7 1.2 -0.7 311.6 -7.3 c171.4 -4 315.1 -7.3 319.4 -7.4 l7.7 0 0 43 0 43.1 -1.2 0.4 c-0.7 0.2 -139.9 3.5 -309.3 7.4 -169.4 3.9 -312.8 7.3 -318.6 7.5 l-10.6 0.5 -0.7 -0.6z m333.9 -8.6 l305 -7.2 0.3 -41.4 0.2 -41.5 -0.7 -0.7 -0.8 -0.8 -318 7.4 c-174.9 4.1 -318.1 7.5 -318.2 7.5 -0.2 0 -0.3 18.9 -0.3 42 l0 42 13.8 -0.1 c7.5 0 151 -3.3 318.7 -7.2z"/>
  <path d="M1108.5 1418.9 l-0.5 -1.4 0.2 -116.5 0.3 -116.5 19 -0.6 c10.5 -0.4 32.7 -0.8 49.5 -1 l30.5 -0.4 0.3 16.8 0.2 16.7 15.8 -0.6 c23.4 -0.8 226.5 -5.4 239.8 -5.4 l11.4 0 0 83.4 0 83.4 -1.6 0.6 -1.6 0.6 -19.1 0 c-10.6 0 -21.6 0.3 -24.4 0.6 l-5.3 0.7 0 16.4 0 16.4 -1.2 0.3 c-0.7 0.2 -65 1.8 -142.8 3.5 -77.8 1.7 -147.9 3.4 -155.7 3.8 l-14.3 0.6 -0.5 -1.4z m158 -3.9 c76.5 -1.7 142.7 -3.3 147.3 -3.6 l8.2 -0.6 0 -15.9 0 -15.9 -2.2 0 c-1.3 0 -68.4 1.6 -149.3 3.5 -80.8 1.9 -150 3.5 -153.7 3.5 l-6.8 0 0 16.4 0 16.5 8.8 -0.5 c4.8 -0.2 71.3 -1.8 147.7 -3.4z m20.5 -34.5 c91 -2 170.2 -3.9 176 -4.3 l10.5 -0.7 0.3 -81.8 0.2 -81.8 -1.4 -0.5 -1.5 -0.6 -132.8 3.2 c-145.6 3.5 -227.7 5.6 -228 5.9 -0.2 0 -0.3 37 -0.3 82.1 l0 82 5.8 0 c3.1 0.1 80.2 -1.5 171.2 -3.5z m-118.2 -164.1 l37.2 -0.7 0 -16.5 0 -16.5 -12.2 0.6 c-6.8 0.4 -28.4 1 -48 1.3 l-35.8 0.7 0 16.5 0 16.5 10.8 -0.7 c5.9 -0.3 27.5 -0.9 48 -1.2z"/>
  <path d="M1108.7 1174.3 l-0.7 -0.6 0 -70.9 0 -70.9 1.3 -0.3 c0.6 -0.2 82.1 -2.2 181 -4.5 l179.9 -4.1 0.9 0.6 0.9 0.5 0 70.9 0 70.9 -0.9 0.5 -0.9 0.6 -169.4 4 c-93.1 2.2 -174.3 4 -180.4 4 l-11.1 0 -0.6 -0.7z m181.3 -4.3 c93.2 -2.2 171.9 -4 174.8 -4 l5.2 0 0 -71.1 0 -71 -11.7 0.6 c-6.5 0.3 -84.2 2.1 -172.8 4 -88.5 2 -164.3 3.8 -168.2 4.1 l-7.3 0.6 0 70.4 0 70.4 5.3 0 c2.8 0 81.5 -1.8 174.7 -4z"/>
  <path d="M1920.5 1399.9 l-0.5 -1.4 0.2 -116.5 0.3 -116.5 20.5 -0.6 c11.3 -0.4 32.8 -0.9 47.8 -1.3 l27.2 -0.7 0 16.5 0 16.5 0.8 0.5 c0.4 0.2 56.1 -0.8 123.7 -2.4 67.7 -1.6 128.5 -3 135.3 -3 l12.2 0 -0.2 83.8 -0.3 83.7 -24.5 0.6 c-13.5 0.3 -25.3 0.7 -26.2 0.8 l-1.8 0.1 0 16.5 0 16.6 -1.2 0.3 c-0.7 0.3 -64.3 1.8 -141.3 3.5 -77 1.7 -147.1 3.4 -155.7 3.8 l-15.8 0.6 -0.5 -1.4z m160.5 -4 c77.8 -1.6 143.9 -3.2 146.8 -3.5 l5.2 -0.5 0 -16.1 0 -16.1 -18.2 0.7 c-10.1 0.3 -79.7 2 -154.8 3.7 -75.1 1.6 -137.1 3.2 -137.7 3.4 l-1.3 0.4 0 15.4 0 15.4 0.6 0.6 0.7 0.7 8.6 -0.5 c4.7 -0.3 72.3 -1.9 150.1 -3.6z m194.8 -38.6 l11.2 -0.5 0 -82.4 0 -82.4 -6.7 0 c-3.8 0 -61.9 1.4 -129.3 3 -67.4 1.6 -144.3 3.4 -171 4 -26.7 0.6 -50.9 1.3 -53.7 1.6 l-5.3 0.5 0 81.8 c0 45 0.2 82 0.4 82.2 0.5 0.4 336.4 -6.9 354.4 -7.8z m-286.3 -160.2 l25 -0.6 0.3 -15.4 0.3 -15.4 -0.8 -0.7 -0.8 -0.7 -46 1.1 -46 1.1 -0.3 15 c-0.1 8.2 0 15.5 0.2 16.2 l0.5 1.3 21.3 -0.6 c11.7 -0.3 32.6 -0.9 46.3 -1.3z"/>
  <path d="M1920.4 1155.5 c-0.2 -0.5 -0.3 -32.9 -0.2 -72 l0.3 -71 175.5 -4.1 c96.5 -2.3 175.8 -3.9 176.3 -3.7 l0.7 0.4 0 70.9 0 70.9 -1.2 0.7 -1.2 0.8 -174.9 4 -175 4.1 -0.3 -1z m182.6 -4.5 c92.1 -2.2 167.6 -4 167.8 -4 0.1 0 0.2 -31.7 0.2 -70.5 l0 -70.5 -8.2 0 c-14.2 -0.1 -320.7 7 -331.5 7.6 l-10.3 0.6 0 70.4 0 70.4 7.3 0 c3.9 0 82.6 -1.8 174.7 -4z"/>
  <path d="M1089.2 917.9 l0.3 -39.4 47 -1.1 c25.9 -0.6 63.5 -1.5 83.8 -1.9 l36.7 -0.8 -0.2 39.4 -0.3 39.4 -47 1.1 c-25.9 0.6 -63.5 1.5 -83.8 1.9 l-36.7 0.8 0.2 -39.4z m97.3 36.1 c28.1 -0.6 55.2 -1.3 60.3 -1.6 l9.2 -0.6 0 -37.9 0 -37.9 -3.2 0 c-10 -0.1 -145.8 3.1 -153.5 3.6 l-9.3 0.6 0 37.2 0 37.3 0.8 0.8 0.7 0.7 22 -0.6 c12.1 -0.3 45 -1 73 -1.6z"/>
  <path d="M1110.7 934.3 l-0.7 -0.6 0 -16.3 0 -16.3 0.9 -0.6 1 -0.5 60.7 -1.6 60.8 -1.5 1.3 0.5 1.3 0.5 0 16.5 0 16.5 -0.9 0.6 -1 0.5 -58.3 1.5 c-68.6 1.7 -64.3 1.7 -65.1 0.8z m74.8 -2.4 c26.4 -0.6 48.3 -1.3 48.7 -1.5 l0.8 -0.5 0 -15.4 0 -15.4 -0.7 -0.4 c-0.5 -0.3 -25.1 0.1 -54.8 0.9 -29.7 0.7 -57 1.3 -60.7 1.4 l-6.8 0 0 16.5 0 16.6 12.8 -0.6 c7 -0.3 34.3 -1 60.7 -1.6z"/>
  <path d="M1476 909 l0 -39.1 1.3 -0.3 c1.7 -0.6 174 -4.4 175 -3.9 l0.7 0.4 0 38.4 0 38.4 -1.2 0.7 -1.1 0.7 -74.6 1.8 c-41 1 -80.3 1.8 -87.3 1.9 l-12.8 0 0 -39z m92 36 c44.3 -1.1 81.1 -2 81.8 -2 l1.2 0 0 -38 0 -38 -6.7 0 c-14 -0.1 -153.1 3.1 -160 3.6 l-7.3 0.6 0 37.2 0 37.3 0.7 0.6 0.6 0.7 4.6 0 c2.5 0 40.8 -0.9 85.1 -2z"/>
  <path d="M1497.7 925.3 l-0.7 -0.6 0 -16.3 0 -16.3 1 -0.6 1 -0.6 57.2 -1.4 c31.5 -0.8 61.2 -1.5 66.1 -1.5 l8.7 0 0 17.5 0 17.5 -6.2 0 c-3.5 0 -32.2 0.7 -63.8 1.5 -68.4 1.7 -62.5 1.7 -63.3 0.8z m74.8 -2.4 c30.3 -0.6 55.6 -1.2 56.3 -1.4 l1.2 -0.4 0 -16.1 0 -16 -3.2 0 c-1.8 0 -29.2 0.7 -60.8 1.5 -31.6 0.8 -59.6 1.5 -62.2 1.5 l-4.8 0 0 16.6 0 16.5 9.3 -0.5 c5 -0.3 34 -1.1 64.2 -1.7z"/>
  <path d="M1050.7 840.3 l-0.7 -0.6 0 -56.9 0 -56.9 1.3 -0.4 c0.6 -0.2 139.8 -3.5 309.2 -7.4 169.4 -3.9 313 -7.2 319 -7.3 l11 -0.3 0.3 57.3 0.2 57.3 -1.2 0.4 c-0.7 0.2 -138.1 3.6 -305.3 7.4 -167.2 3.9 -310.6 7.3 -318.6 7.6 l-14.5 0.5 -0.7 -0.7z m326.8 -8.4 c170.5 -3.9 310.6 -7.2 311.3 -7.5 l1.2 -0.3 0 -56.1 0 -56 -3.7 -0.1 c-2.1 0 -145.7 3.3 -319 7.3 l-315.3 7.3 0 56.2 0 56.3 7.8 0 c4.2 0.1 147.2 -3.1 317.7 -7.1z"/>
  <path d="M1050.6 706.2 l-0.6 -0.5 0 -42.3 0 -42.3 1.2 -0.7 1.2 -0.7 310 -7.3 c170.6 -4 314.3 -7.3 319.4 -7.4 l9.2 0 0 43 0 43.1 -1.2 0.4 c-0.7 0.2 -140.6 3.5 -310.8 7.4 -170.2 3.9 -313.6 7.3 -318.7 7.5 l-9.1 0.4 -0.6 -0.6z m320.9 -8.2 c171.6 -3.9 313.5 -7.4 315.3 -7.6 l3.2 -0.5 0 -41.4 0 -41.4 -0.9 -0.5 -0.8 -0.6 -299.9 7 c-165 3.8 -308.1 7.2 -318.1 7.6 l-18.3 0.6 0 41.9 0 41.9 3.8 0 c2 0.1 144.1 -3.1 315.7 -7z"/>
  <path d="M1010.2 502.9 l0.3 -35.4 21 -0.7 c11.6 -0.4 164.7 -4.1 340.4 -8.3 l319.3 -7.5 0.9 0.6 0.9 0.5 0 35 0 35 -1.2 0.3 c-1 0.3 -421.3 10.1 -655.1 15.3 l-26.7 0.6 0.2 -35.4z m32.6 33.1 l5.2 0 0 -34 0 -34 -18.2 0.2 -18.3 0.3 -0.3 33 -0.2 33 0.5 1.4 0.6 1.4 12.7 -0.6 c7 -0.4 15.1 -0.7 18 -0.7z m61 -3.6 l14.2 -0.6 0 -31.9 0 -31.8 -22.7 0.5 c-12.6 0.2 -27.4 0.7 -33 1 l-10.3 0.6 0 31.8 0 31.9 18.8 -0.5 c10.3 -0.2 25.1 -0.7 33 -1z m271.2 -6.4 c121.3 -2.8 226.5 -5.3 233.8 -5.6 l13.2 -0.6 0 -7 0 -7.1 -19.2 0.7 c-10.6 0.3 -119.2 2.9 -241.3 5.6 -122.1 2.8 -226.6 5.3 -232.2 5.6 l-10.3 0.6 0 7 0 7 17.8 -0.6 c9.7 -0.4 116.9 -2.9 238.2 -5.6z m314.3 -7.9 l0.8 -0.8 -0.3 -6.3 -0.3 -6.3 -21 0.3 c-11.5 0.1 -26.4 0.5 -33 0.9 l-12 0.6 -0.3 6.9 -0.3 6.9 32.8 -0.7 32.8 -0.7 0.8 -0.8z m-310.8 -7.6 c132.6 -3.1 241.6 -5.8 242.3 -6 l1.2 -0.4 0 -16.2 0 -16.1 -16.7 0.6 c-9.3 0.4 -115.8 2.9 -236.8 5.6 -121 2.7 -226.4 5.3 -234.2 5.6 l-14.3 0.6 0 15.9 0 15.9 8.8 0 c4.8 0 117.2 -2.5 249.7 -5.5z m296.3 -7.1 l14.2 -0.6 0 -16.1 0 -16 -32.1 0.7 c-17.7 0.3 -32.6 0.9 -33 1.2 l-0.9 0.5 0 15.3 c0 8.4 0.2 15.5 0.5 15.8 l0.6 0.5 18.2 -0.3 c10 -0.3 24.6 -0.7 32.5 -1z m-295.3 -26.9 c129.8 -3 237.5 -5.5 239.3 -5.5 l3.2 0 0 -7 0 -7 -7.7 0 c-7 0 -466 10.6 -486.3 11.2 l-8.5 0.3 -0.3 5.9 c-0.2 3.2 -0.1 6.4 0.1 7 l0.5 1.2 11.8 -0.3 c6.6 -0.2 118.1 -2.8 247.9 -5.8z m301.3 -7.1 l9.2 -0.6 0 -7 0 -7 -32.2 0.7 c-17.8 0.4 -32.9 0.8 -33.5 1 l-1.3 0.4 0 6.4 0 6.4 0.6 0.6 0.6 0.6 23.7 -0.5 c13 -0.2 27.8 -0.7 32.9 -1z"/>
  <path d="M1062.4 521.6 c-0.3 -0.7 -0.3 -9.9 -0.2 -20.6 l0.3 -19.5 18.4 -0.8 18.4 -0.8 1.4 0.5 1.3 0.5 0 20.1 0 20.1 -1.2 0.4 c-0.7 0.2 -9.6 0.5 -19.6 0.8 l-18.4 0.4 -0.4 -1.1z m32.3 -1.6 l6.3 0 0 -19 0 -19 -9.3 0 c-5.2 0 -13.5 0.3 -18.5 0.6 l-9.2 0.7 0 19 0 19 12.2 -0.6 c6.6 -0.4 15 -0.7 18.5 -0.7z"/>
  <path d="M1089.2 1911.8 l-0.2 -28.6 6.3 -0.6 c5.3 -0.4 145.7 -3.7 157.5 -3.6 l4.2 0 -0.2 30.8 -0.3 30.7 -0.2 -30.2 -0.3 -30.3 -3.3 0 c-1.7 0 -38.7 0.9 -82.1 2 l-78.9 1.9 -0.8 0.8 -0.9 0.9 -0.3 27.4 -0.2 27.5 -0.3 -28.7z"/>
  <path d="M1465.2 1907.8 l-0.2 -32.7 1 -0.6 1 -0.6 78.7 -1.9 c43.4 -1.1 85.2 -2 93.1 -2 l14.2 0 0 35 0 35 -1 0 -1 0 0 -34.5 0 -34.5 -6 0 c-14.8 0 -176.6 4.1 -177.7 4.5 l-1.3 0.4 -0.3 32.3 -0.2 32.3 -0.3 -32.7z"/>
  <path d="M1110.7 1938.3 l-0.7 -0.6 0 -16.4 0 -16.4 1.3 -0.4 c0.6 -0.3 28.6 -1.1 62.1 -1.9 l60.9 -1.5 0.9 0.5 0.8 0.5 0 17 c0 9.3 -0.1 16.9 -0.2 17 -0.8 0.1 -109.6 2.8 -116.4 2.9 l-8.1 0 -0.6 -0.7z m81.2 -2.4 c22.7 -0.5 41.8 -1.2 42.2 -1.5 l0.9 -0.5 0 -15.4 0 -15.4 -0.7 -0.3 c-0.5 -0.2 -22.6 0.1 -49.3 0.8 -26.7 0.7 -54 1.3 -60.7 1.3 l-12.3 0.1 0 16.6 0 16.6 19.3 -0.7 c10.5 -0.3 37.8 -1 60.6 -1.6z"/>
  <path d="M1486.7 1929.3 l-0.7 -0.6 0 -16.4 0 -16.4 1.3 -0.4 c0.6 -0.2 23.5 -0.8 50.7 -1.4 27.2 -0.6 59.3 -1.4 71.3 -1.7 l21.7 -0.7 0 17.7 0 17.6 -2.7 0 c-1.6 0 -28.7 0.7 -60.3 1.5 -31.6 0.8 -62.7 1.5 -69.1 1.5 l-11.6 0 -0.6 -0.7z m70.8 -1.8 c31.4 -0.8 60.5 -1.5 64.8 -1.5 l7.7 0 0 -16.6 0 -16.7 -12.2 0.6 c-6.8 0.4 -38.7 1.2 -71 1.9 l-58.8 1.2 0 16.3 0 16.3 6.3 0 c3.4 0 31.9 -0.7 63.2 -1.5z"/>
  <path d="M2326 1226.5 c0 -64.6 0.1 -117.6 0.3 -117.6 0.6 -0.4 92.3 -2.4 93 -2.1 l0.7 0.3 0 16.5 0 16.4 7.7 0 c10.4 0 172.8 -3.8 192.6 -4.5 l15.7 -0.5 0 0.8 0 0.8 -100.2 2.2 c-90.4 2.1 -123.5 2.9 -188.5 4.8 l-20.3 0.6 0 82.5 0 82.5 19.3 -0.7 c28.9 -0.9 273 -6.5 282.2 -6.4 l8 0 -2 0.9 -2 0.8 -145.5 3.1 c-80 1.8 -148.8 3.4 -152.7 3.7 l-7.3 0.6 0 15.9 0 15.9 2.3 0 c1.2 0 68.4 -1.6 149.2 -3.5 80.9 -1.9 149.4 -3.5 152.4 -3.5 l5.4 0 -0.5 0.5 c-0.5 0.5 -283 7.5 -302 7.5 l-7.8 0 0 -117.5z m75.3 -86.1 l17.7 -0.7 0 -16 0 -16 -32.2 0.7 c-17.8 0.3 -38.5 0.9 -46 1.2 l-13.8 0.7 0 16 0 16 28.3 -0.7 c15.5 -0.3 36.2 -0.9 46 -1.2z"/>
  <path d="M2326 1051.6 l0 -48.6 1.8 0 c0.9 0 68.1 -1.6 149.2 -3.5 81.1 -1.9 150.2 -3.5 153.4 -3.5 l5.9 0 -0.5 0.5 c-0.4 0.4 -285.1 7.5 -302.5 7.5 l-6.3 0 0 46.9 0 47 0.8 0.4 c0.4 0.2 69.8 -1.3 154.2 -3.3 84.4 -2 153.7 -3.5 153.9 -3.3 0.2 0.2 0.2 0.5 0 0.7 -0.2 0.2 -62.9 1.7 -139.4 3.5 -76.4 1.7 -146.1 3.4 -154.7 3.7 l-15.8 0.7 0 -48.7z"/>
 </g>
 <g fill="#888888">
  <path d="M990.8 1893.6 l-0.8 -46.9 0 -833.4 0 -833.3 0.8 0 c0.4 0 33.1 -0.9 72.7 -2 39.6 -1 91.8 -2.4 116 -3 71.2 -1.7 124.7 -2.9 145 -3.5 10.5 -0.3 29.4 -0.7 42 -1 12.7 -0.3 31.6 -0.7 42 -1 10.5 -0.3 30.5 -0.7 44.5 -1 32.3 -0.6 66.4 -1.4 89.5 -2 9.9 -0.3 29.7 -0.7 44 -1 14.3 -0.3 32.1 -0.7 39.5 -1 7.4 -0.2 28.4 -0.7 46.5 -1.1 18.2 -0.4 43.2 -0.9 55.8 -1.3 l22.7 -0.6 0 422.3 0 422.2 10.8 0 c5.9 0 203.1 -4.5 438.2 -10 235.1 -5.5 429.5 -10 431.9 -10 l4.4 0 -0.5 0.5 -0.5 0.6 -361.4 8.4 c-198.8 4.6 -370.2 8.6 -380.9 8.9 -10.7 0.3 -42.4 1.1 -70.5 1.6 -28 0.6 -55.6 1.3 -61.2 1.6 l-10.3 0.6 0 180.3 0 180.4 0.7 0.4 c0.5 0.3 16.5 0.1 35.7 -0.4 l35 -0.9 0.7 0.7 0.8 0.8 -15.7 0.2 c-8.6 0.2 -25 0.6 -36.4 0.9 l-20.7 0.7 -0.1 37.3 0 37.3 0.8 0.5 c0.4 0.2 17.2 0.1 37.2 -0.4 83.5 -2.1 133.9 -3.3 317.5 -7.5 106.2 -2.5 203.1 -4.7 215.5 -5 73 -2 313.5 -7.3 313.8 -7 0.2 0.2 -2 0.6 -5 0.9 -2.9 0.3 -201.7 5 -441.7 10.6 l-436.3 10 -0.9 0.6 -0.9 0.5 -0.2 245.7 c-0.2 135.1 -0.4 227.8 -0.5 205.9 l-0.3 -39.9 -34.8 0.6 c-19.1 0.4 -36.6 0.9 -38.9 1.2 l-4.3 0.5 0 38.5 0 38.4 -1 0 -1 0 0 -38.5 0 -38.5 -8.2 0 c-4.6 0 -132.9 2.9 -285.3 6.5 -152.3 3.5 -281.9 6.5 -288 6.6 -6 0.1 -12.5 0.4 -14.2 0.7 l-3.3 0.5 -0.3 31.6 -0.2 31.6 -0.3 -31.9 -0.2 -31.8 -38.2 0.7 -38.3 0.7 -0.7 0.7 -0.8 0.7 -0.2 30.4 -0.3 30.5 -0.7 -46.9z m45.2 -18.2 l33.5 -0.6 1.2 -1 1.2 -1 143.3 -3.4 c78.8 -1.8 145.9 -3.4 149.1 -3.4 l5.7 0 0 -63.1 0 -63.1 -17.7 0.7 c-9.8 0.3 -86.2 2.1 -169.8 4 -83.6 1.9 -160.7 3.7 -171.2 4.1 l-19.3 0.6 0 64 0 63.9 5.3 -0.5 c2.8 -0.3 20.3 -0.8 38.7 -1.2z m500 -13.5 l133.5 -3.1 1.6 1 1.5 1 31.5 -0.9 c17.3 -0.4 34.4 -0.8 38.2 -0.9 l6.7 0 0 -64 0 -64 -15.2 0.6 c-12.6 0.4 -353.2 8.4 -359.7 8.4 l-2.1 0 0 63.1 0 63 15.3 -0.6 c8.3 -0.3 75.3 -1.9 148.7 -3.6z m-157 -123.7 l369.5 -8.7 0.3 -140.8 0.2 -140.8 -21.2 0.6 c-11.7 0.3 -29.1 0.8 -38.5 1.1 l-17.3 0.6 0 4.3 0 4.4 -1 0.6 -1 0.6 -294.8 7 c-162.1 3.8 -297.1 6.9 -299.9 6.9 l-5.3 0 0 -302.4 0 -302.4 9.3 -0.6 c5 -0.3 139.8 -3.6 299.4 -7.2 l290.1 -6.7 1.6 0.6 1.6 0.6 0 76.2 0 76.2 26.3 -0.6 c14.4 -0.4 31.7 -0.7 38.5 -0.7 l12.2 0 0 -237.1 0 -237.1 -16.2 0.6 c-9 0.4 -172.4 4.3 -363.3 8.6 -190.9 4.4 -353.9 8.2 -362.2 8.6 l-15.3 0.6 0 597.9 0 597.9 8.8 -0.1 c4.8 0 175 -3.9 378.2 -8.7z m-300 -512.7 l0 -246.6 1.3 -0.4 c1 -0.3 567.7 -13.6 578 -13.5 l3.7 0 0 21.4 0 21.5 0.8 0.4 c0.4 0.3 2.2 0.2 4 0 l3.2 -0.5 0 -75.7 0 -75.7 -6.7 0.3 c-3.8 0.2 -138 3.3 -298.3 6.9 -160.3 3.6 -292.1 6.8 -292.7 7 l-1.3 0.3 0 300.6 0 300.5 4 0 4 0 0 -246.5z m286.5 240 c152.9 -3.6 281.8 -6.6 286.5 -6.7 l8.5 -0.3 0 -4 0 -4 -15 0.3 c-8.2 0.2 -136.5 3.2 -285 6.7 -148.5 3.4 -270.3 6.1 -270.7 5.8 l-0.8 -0.4 0 -220.4 0 -220.3 8.3 -0.6 c6 -0.4 444.7 -10.6 552.2 -12.9 l11 -0.2 0.3 -4.2 0.3 -4.3 -3.4 0 c-1.9 0 -128.2 2.9 -280.8 6.5 -152.6 3.6 -281.6 6.5 -286.6 6.5 l-9.3 0 0 229.5 0 229.5 3.3 0 c1.7 0 128.3 -2.9 281.2 -6.5z m22.6 -10.6 c141.2 -3.2 258 -5.9 259.8 -5.9 l3.1 0 0 -38 0 -38 -2 0 -2 0 -0.2 35.8 -0.3 35.7 -2.4 0.3 -2.3 0.4 -0.9 -0.9 -0.9 -0.9 0 -34.7 0 -34.7 -14.8 0.1 c-8.1 0 -36.2 0.6 -62.5 1.2 l-47.7 1.2 0 -0.7 0 -0.8 5.3 0 c13.3 0.1 107.9 -2.1 113.5 -2.6 l6.2 -0.6 0 -177.6 -0.1 -177.5 1 -1 0.9 -0.9 2.3 0.4 2.4 0.3 0.3 178.3 0.2 178.2 2 0 2 0 0 -180.9 0 -181 -13.7 0.5 c-19 0.7 -526.1 12.4 -537.3 12.4 l-9 0 0 219.6 0 219.6 20.3 -0.7 c11.1 -0.3 135.7 -3.3 276.8 -6.6z m280 3.1 l1.9 0 0 -4.1 0 -4 -3.7 0.3 -3.8 0.3 -0.3 2.8 c-0.2 1.6 -0.1 3.6 0.2 4.4 l0.6 1.5 1.6 -0.6 c0.9 -0.3 2.4 -0.6 3.5 -0.6z m-7.4 -47.2 l0.3 -37.8 -4 0 -4 0 0 38.1 0 38 3.8 -0.3 3.7 -0.3 0.2 -37.7z m9.3 0.2 l0 -38 -4 0 -3.9 0 -0.1 37.3 0 37.4 0.7 0.6 c0.3 0.4 2.1 0.7 4 0.7 l3.3 0 0 -38z m40.5 36.5 c12.7 -0.2 26.5 -0.5 30.8 -0.5 l7.7 0 0 -38.1 0 -38 -23.2 0.6 c-12.8 0.3 -30.2 0.8 -38.5 1.1 l-15.3 0.6 0 37.2 0 37.3 0.6 0.6 0.7 0.7 7.1 -0.5 c3.9 -0.3 17.5 -0.7 30.1 -1z m-64.5 -38.9 l0 -34.3 -0.6 -0.5 -0.5 -0.6 -2 0.5 -1.9 0.5 0 34.4 0 34.4 2.5 0 2.5 0 0 -34.4z m0 -214.6 l-0.1 -178 -2.4 0 -2.5 0 0 178 0 178 2.5 0 2.5 0 0 -178z m15 -3 l0 -181 -4 0 -4 0 0 181 0 181 4 0 4 0 0 -181z m9 0 l0 -181 -4 0 -4 0 0 181 0 181 4 0 4 0 0 -181z m39.5 179.5 c12.7 -0.2 26.7 -0.5 31.3 -0.5 l8.2 0 0 -181.1 0 -181.1 -35.2 0.7 c-19.4 0.3 -36.8 0.8 -38.5 1.1 l-3.3 0.5 0 180.9 0 181 7.3 -0.5 c3.9 -0.3 17.6 -0.7 30.2 -1z m-343 -365 c152.4 -3.6 280.9 -6.5 285.8 -6.5 l8.7 0 0 -16.7 0 -16.6 -17.2 0.6 c-9.5 0.3 -139 3.4 -287.8 6.7 -148.8 3.4 -271.5 6.4 -272.7 6.6 l-2.3 0.4 0 16 0 16 4.3 0 c2.3 0 128.9 -2.9 281.2 -6.5z m18 -465.5 c194.7 -4.5 356.4 -8.3 359.3 -8.6 l5.2 -0.5 0 -45.5 0 -45.4 -10.7 0 c-6 0 -174.4 3.8 -374.3 8.5 -199.9 4.7 -365.4 8.5 -367.7 8.5 l-4.3 0 0 46.2 0 46.1 19.3 -0.6 c10.5 -0.4 178.5 -4.3 373.2 -8.7z m-7.5 -93.6 c204.3 -4.7 371.6 -8.7 371.8 -8.9 0.1 -0.1 0.1 -17.5 0 -38.6 l-0.3 -38.4 -370 8.7 c-203.5 4.8 -373.7 8.7 -378.2 8.7 l-8.3 0.1 0 38.5 0 38.5 6.8 0 c3.7 0 173.9 -3.8 378.2 -8.6z m-4.5 -78.9 c199.7 -4.7 366 -8.5 369.8 -8.5 l6.7 0 0 -98 0 -97.9 -14.7 0.5 c-8.2 0.3 -169.6 4.1 -358.8 8.4 -189.2 4.4 -352.9 8.2 -363.7 8.6 l-19.8 0.6 0 57.8 0 57.8 14.8 -0.4 c8.1 -0.3 32 -0.9 53.1 -1.4 l38.5 -0.9 0.8 0.5 0.8 0.5 0 6.5 0 6.4 8.3 0 c4.5 0 133.5 -2.9 286.7 -6.5 153.2 -3.6 279.2 -6.4 280 -6.2 3.7 0.8 -43.2 2.1 -295.5 7.8 -147.9 3.3 -271.4 6.2 -274.2 6.5 l-5.3 0.5 0 22 0 21.9 4.6 0 c7.6 0 561.5 -12.9 566.7 -13.2 l4.7 -0.3 0 0.8 c0 0.4 -0.3 0.7 -0.7 0.7 -0.5 0 -125.6 2.9 -278.2 6.5 -152.6 3.6 -281.8 6.5 -287.2 6.5 l-9.8 0 -0.3 7.8 -0.3 7.7 -21 0.6 c-11.6 0.4 -35.7 1 -53.7 1.4 l-32.8 0.7 0 1.4 0 1.4 8.8 0 c4.8 0 172.1 -3.8 371.7 -8.5z m-302 2.6 l28 -0.6 0 -6.8 0 -6.9 -19.5 0.1 c-10.7 0.1 -31.6 0.3 -46.5 0.5 l-27 0.4 17 -0.8 c9.4 -0.4 30 -1.1 46 -1.5 15.9 -0.3 29.3 -0.9 29.7 -1.1 l0.8 -0.5 0 -21.6 0 -21.5 -15.4 0.4 -15.4 0.4 -1.7 1.4 -1.7 1.4 0.3 -1.9 0.4 -2 16 -0.6 c8.8 -0.4 16.3 -0.7 16.8 -0.8 l0.7 -0.1 0 -6.1 0 -6 -26.7 0.6 c-14.8 0.4 -38.7 1 -53.3 1.4 l-26.5 0.6 -0.3 36.8 -0.2 36.8 25.2 -0.7 c13.9 -0.3 37.9 -0.9 53.3 -1.3z"/>
  <path d="M1161.2 1791.8 l0.3 -20.3 19.3 -0.5 19.4 -0.5 0.4 0.6 c0.2 0.3 0.4 9.5 0.4 20.5 l0.2 19.9 -20.1 0.3 -20.1 0.2 0.2 -20.2z m33.6 18.6 l5.2 -0.7 0 -18.8 0 -18.9 -15.2 0 c-8.4 0 -17 0.3 -19 0.6 l-3.8 0.7 0 18.8 0 18.9 13.8 0 c7.5 0 16.1 -0.3 19 -0.6z"/>
  <path d="M1532 1783.5 l0 -20.2 8.8 -0.6 c4.8 -0.4 17.9 -0.8 29.2 -0.9 l20.5 -0.3 0.2 19.5 0.3 19.5 -0.8 1.1 -0.7 1.1 -28.7 0.6 -28.8 0.5 0 -20.3z m45.8 17.9 l11.2 -0.6 0 -18.9 0 -18.9 -13.7 0 c-7.6 0 -20.2 0.3 -28 0.7 l-14.3 0.6 0 19.1 0 19.1 16.7 -0.2 c9.3 -0.2 21.9 -0.5 28.1 -0.9z"/>
  <path d="M996.7 1742.3 c-0.4 -0.3 -0.7 -1.9 -0.7 -3.4 l0 -2.8 0.8 -0.4 c0.4 -0.3 13.5 -0.7 29.2 -1.1 15.7 -0.4 173.4 -4 350.5 -8.1 177.1 -4.2 331 -7.6 342 -7.8 l20 -0.2 0.3 3.1 0.3 3.2 -10.3 0.6 c-5.7 0.3 -22.4 0.8 -37.3 1.1 -14.8 0.3 -161.8 3.7 -326.5 7.5 -164.7 3.9 -312.5 7.2 -328.5 7.5 -15.9 0.3 -31.3 0.8 -34.1 1 l-5.1 0.5 -0.6 -0.7z m378.8 -9.8 c177.1 -4.1 327.4 -7.7 334 -7.9 6.6 -0.3 15.7 -0.5 20.3 -0.5 l8.2 -0.1 0 -2.6 0 -2.6 -8.7 0.6 c-4.9 0.3 -21.2 0.8 -36.3 1.1 -15.1 0.3 -162.3 3.7 -327 7.5 -164.7 3.9 -313 7.3 -329.5 7.6 -16.5 0.2 -31.9 0.7 -34.2 1 l-4.3 0.5 0 2.1 0 2.1 27.8 -0.7 c15.2 -0.4 172.6 -4 349.7 -8.1z"/>
  <path d="M1738.5 754.8 c-0.3 -0.7 -0.4 -49.7 -0.3 -108.8 l0.3 -107.5 3.3 -0.3 3.2 -0.3 0 107.5 0 107.4 -0.6 1.6 -0.6 1.6 -2.4 0 -2.5 0 -0.4 -1.2z m5.5 -108.4 l0 -107.5 -2.2 0.3 -2.3 0.3 -0.3 107.3 -0.2 107.2 2.5 0 2.5 0 0 -107.6z"/>
  <path d="M1096.6 1457.2 l-1.7 -0.4 0.3 -3.1 0.3 -3.2 20 -0.7 c11 -0.5 26.8 -0.7 35 -0.5 l15 0.2 0 3 0 3 -22.5 0.7 c-41.4 1.2 -44.7 1.3 -46.4 1z m53.7 -2.2 l13.7 0 0 -2.6 0 -2.6 -31.7 0.8 c-17.5 0.4 -32.8 0.7 -34 0.7 l-2.3 -0.1 0 2.6 0 2.5 20.3 -0.6 c11.1 -0.4 26.4 -0.7 34 -0.7z"/>
  <path d="M1109 1384.9 l0 -1 0.8 0.4 c0.4 0.3 70.9 -1.2 156.7 -3.3 l156 -3.7 0.9 0.9 1 0.8 -9 0 c-4.9 0 -75 1.6 -155.9 3.5 -80.8 1.9 -147.8 3.5 -148.7 3.5 l-1.8 0 0 -1.1z"/>
  <path d="M1109 1218.9 l0 -0.7 24.8 -0.6 c13.6 -0.4 35.6 -1 49 -1.4 l24.2 -0.7 0 0.6 0 0.7 -21.2 0.6 c-11.7 0.4 -33.8 1 -49.1 1.4 l-27.7 0.7 0 -0.6z"/>
  <path d="M1515 1209.3 l0 -1 1.8 0.1 c5.1 0.3 81 -1.5 88.1 -2 l8.4 -0.7 -0.6 1 -0.6 1 -36.3 0.7 c-20 0.3 -41.8 0.9 -48.5 1.3 l-12.3 0.6 0 -1z"/>
  <path d="M1049 536.4 l1.5 -0.4 0 -33.8 0 -33.7 -1.5 -0.6 -1.5 -0.7 1.5 -0.5 c1.1 -0.4 428.9 -10.5 631.5 -14.9 l12 -0.3 0.3 34.4 0.2 34.5 -0.9 0.9 -1 1 -311.3 7.3 c-294.3 6.9 -334.4 7.7 -330.8 6.8z m302 -9.4 c289.3 -6.7 293.1 -6.8 319.8 -7.6 l19.2 -0.6 0 1.1 0 1.1 1.1 0 1.1 0 -1.1 -1.4 -1.2 -1.4 0 -31.7 0 -31.8 -33.2 0.7 c-18.3 0.3 -39 0.8 -46.2 1.1 -7.1 0.2 -135.7 3.2 -285.7 6.7 l-272.8 6.3 0 32.3 0 32.4 20.8 -0.6 c11.4 -0.4 136.6 -3.4 278.2 -6.6z"/>
  <path d="M1062.7 521.3 l-0.7 -0.6 0 -19.3 0 -19.3 0.8 -0.5 c0.4 -0.2 9.3 -0.6 19.7 -0.7 l19 -0.3 0.3 18.4 0.3 18.5 -0.6 2.3 -0.5 2.2 -18.9 0 -18.8 0 -0.6 -0.7z m30.6 -0.9 l7.7 -0.7 0 -18.8 0 -18.9 -17.4 0 -17.4 0 -1.6 0.6 -1.6 0.6 0 18.9 0 18.9 11.3 0 c6.3 0 14.8 -0.3 19 -0.6z"/>
  <path d="M1118.7 517.3 l-0.7 -0.6 0 -16.9 0 -16.8 1 0 1 0 0 17.5 c0 9.6 -0.1 17.5 -0.3 17.5 -0.2 0 -0.7 -0.3 -1 -0.7z"/>
  <path d="M1920.3 1366.4 l0.6 -0.6 156.6 -3.6 156.7 -3.7 0.5 0.8 0.4 0.7 -7.8 0 c-4.3 0 -73.9 1.6 -154.8 3.5 -80.8 1.9 -148.3 3.5 -149.9 3.5 l-2.9 0 0.6 -0.6z"/>
  <path d="M2326 1309.8 l0 -0.8 4.7 0 c2.5 0 71.9 -1.6 154.1 -3.5 82.3 -2 150 -3.4 150.6 -3.2 2.3 0.9 -30.6 1.8 -161.9 4.7 -74.8 1.7 -138.6 3.1 -141.8 3.3 l-5.7 0.2 0 -0.7z"/>
  <path d="M1944.5 1198.9 c13.8 -0.5 35.5 -1.2 48.3 -1.6 l23.2 -0.8 0 0.6 0 0.6 -14.2 0.7 c-7.9 0.3 -29.6 0.8 -48.3 1 l-34 0.4 25 -0.9z"/>
  <path d="M2326 1143.3 l0 -1 38.8 -0.7 c21.3 -0.3 42.5 -0.9 47.1 -1.2 l8.4 -0.7 -0.6 1 -0.6 1 -37.3 0.7 c-20.5 0.3 -41.5 0.9 -46.5 1.2 l-9.3 0.6 0 -0.9z"/>
 </g>
 <g fill="#9c9c9c">
  <path d="M990.8 1893 l-0.8 -47.5 0 -832.7 0 -832.8 5.3 0.2 5.2 0.1 -4.3 0.4 -4.2 0.4 0 58 0 58 23.8 -0.7 c46.3 -1.2 82.7 -2 83.4 -1.6 l0.8 0.3 0 37.5 0 37.4 -0.7 0 -0.8 0 0.2 -37.2 0.3 -37.1 -28.8 0.7 c-15.8 0.3 -39.8 0.9 -53.4 1.3 l-24.8 0.6 0 39.2 0 39.3 12.8 -0.5 c7 -0.2 177.1 -4.2 378.1 -8.9 200.9 -4.6 365.7 -8.7 366.2 -8.9 l0.8 -0.6 0.1 -97.4 0 -97.5 -0.7 0 c-0.5 0 -144.8 3.4 -320.8 7.5 -176 4.1 -324 7.4 -329 7.4 -20.1 -0.4 138.6 -4.4 509 -12.9 71.5 -1.6 132.8 -3.1 136.3 -3.2 l6.2 -0.3 0 422.3 0 422.2 12.8 0 c13.1 0 81.2 -1.5 111.2 -2.5 l16.5 -0.5 -1.5 0.9 -1.5 0.8 -59.5 1.2 c-32.7 0.6 -63.7 1.4 -68.8 1.7 l-9.2 0.6 0 219.5 0 219.4 16.8 -0.6 c51.8 -1.8 125.4 -3 122.7 -2 -0.5 0.2 -22.8 0.8 -49.5 1.4 -26.7 0.6 -57.8 1.4 -69.2 1.7 l-20.8 0.7 -0.2 246.1 c-0.2 135.3 -0.4 228.1 -0.5 206.2 l-0.3 -39.9 -29.8 0.6 c-16.3 0.4 -33.9 0.7 -38.9 0.7 l-9.3 0 -0.2 39.3 -0.3 39.2 -0.5 -39 -0.5 -39 -14 0.3 c-7.7 0.2 -138.9 3.2 -291.5 6.8 -152.6 3.5 -281.1 6.4 -285.7 6.4 l-8.3 0 -0.2 32.3 -0.3 32.2 -0.5 -32 -0.5 -31.9 -19 0.3 c-10.4 0.2 -21 0.5 -23.5 0.5 -2.5 0.1 -11.4 0.3 -19.7 0.4 l-15.3 0.2 -0.2 31.3 -0.3 31.2 -0.7 -47.5z m57.7 -17.6 l21 -0.6 1 -0.8 1.1 -0.9 131.4 -3 c72.3 -1.7 139.7 -3.3 149.7 -3.7 l18.3 -0.6 0 -62.9 0 -62.9 -4.7 0 c-2.7 0 -70.9 1.6 -151.8 3.5 -80.8 1.9 -160.3 3.7 -176.5 4 -16.2 0.3 -33.2 0.8 -37.7 1.1 l-8.3 0.6 0 64 0 64 17.8 -0.6 c9.7 -0.3 27.2 -0.8 38.7 -1.2z m475.9 -12.9 l146 -3.4 1.2 1 1.3 1 24.3 -0.6 c13.4 -0.3 30.7 -0.8 38.6 -1.1 l14.2 -0.6 0 -64 0 -64 -21.7 0.6 c-37.1 1.1 -56.7 1.5 -195.3 4.6 -74 1.7 -140.5 3.3 -147.7 3.6 l-13.3 0.6 0 62.9 0 62.9 3.3 0 c1.7 0 68.9 -1.6 149.1 -3.5z m-150.9 -124 c176 -4.1 332.2 -7.8 347 -8.1 14.9 -0.3 27.6 -0.7 28.3 -0.9 l1.2 -0.4 0 -140.6 0 -140.6 -21.7 0.6 c-12 0.3 -29.5 0.8 -39 1.1 l-17.2 0.6 -0.3 4.7 -0.3 4.6 -4 0.3 c-2.2 0.1 -137.2 3.4 -299.9 7.2 l-296 6.9 -0.8 -0.5 -0.8 -0.5 0 -301.4 0 -301.4 1 -0.6 0.9 -0.6 298.8 -7 298.7 -7 1.3 0.5 1.3 0.5 0 76.2 0 76.1 38.3 -0.7 c21 -0.4 38.5 -0.9 39 -1.2 l0.7 -0.4 0 -236.6 0 -236.6 -19.7 0.6 c-10.9 0.3 -180 4.2 -375.8 8.7 -195.8 4.5 -357.5 8.4 -359.2 8.6 l-3.3 0.5 0 598.1 0 598.1 30.8 -0.7 c16.9 -0.4 174.7 -4 350.7 -8.1z m-296.1 -266.1 l1.6 -0.6 0 -246.4 0 -246.5 1.2 -0.4 c1.1 -0.3 567.8 -13.6 578.1 -13.5 l3.7 0 0 21.4 0 21.5 0.8 0.4 c0.4 0.2 2.4 0.2 4.5 0 l3.7 -0.5 0 -75.9 0 -75.9 -17.2 0.6 c-19.3 0.6 -571.8 13.4 -578.5 13.4 l-4.3 0 0 300.8 0 300.9 0.7 0.6 c0.8 0.9 3.6 0.9 5.7 0.1z m298.7 -6.9 c152.6 -3.6 279.1 -6.5 281.2 -6.5 l3.7 0 0 -4.6 0 -4.7 -13.2 0.6 c-7.3 0.4 -135.2 3.5 -284.3 6.9 l-271 6.2 -1.7 -0.7 -1.8 -0.6 0 -219.5 0 -219.5 1 -0.6 0.9 -0.6 274.8 -6.4 c151.2 -3.6 279.4 -6.5 285 -6.5 l10.2 0 0.1 -21.5 0 -21.5 -5.7 0.1 c-3.2 0 -133.6 3 -289.8 6.7 l-284 6.7 -0.3 246.3 -0.2 246.2 8.8 0 c4.9 0 133.7 -2.9 286.3 -6.5z m-83.1 -8 c105.3 -2.4 201.6 -4.7 214 -5 37.9 -1 145.2 -3.5 149.7 -3.5 l4.3 0 0 -219.6 0 -219.5 -5.2 0.2 c-2.9 0.1 -42.4 1 -87.8 2 -285.5 6.5 -475.7 11 -476.7 11.4 l-1.3 0.4 0 219.1 0 219 5.8 0 c3.1 0 91.9 -2 197.2 -4.5z m377.8 -3.2 l0.3 -4.3 -4.5 0 -4.6 0 0 4.6 0 4.5 4.3 -0.3 4.2 -0.3 0.3 -4.2z m-0.1 -225 l0.3 -219.3 -4.5 0 -4.5 0 0 219.6 0 219.5 4.3 -0.3 4.2 -0.3 0.2 -219.2z m59.3 217.9 l19.5 -0.7 0.2 -219.3 0.3 -219.4 -35.8 0.7 c-19.6 0.3 -37.2 0.8 -38.9 1.1 l-3.3 0.5 0 219.2 0 219.3 19.3 -0.4 c10.5 -0.2 28 -0.7 38.7 -1z m-356 -906.7 c205.4 -4.8 374.1 -8.8 374.8 -9 l1.2 -0.4 0 -45.5 0 -45.5 -0.7 -0.4 c-0.6 -0.4 -428.1 9.4 -756 17.3 l-1.3 0 0 46 0 46 4.3 0 c2.3 0.1 172.3 -3.8 377.7 -8.5z m10.3 -94.1 l363.9 -8.4 0.9 -0.6 0.9 -0.5 0 -38.5 0 -38.5 -16.2 0.6 c-9 0.3 -171.8 4.2 -361.8 8.5 -190 4.4 -353.3 8.2 -362.7 8.6 l-17.3 0.6 0 38.8 0 38.9 14.3 -0.5 c7.8 -0.3 177.9 -4.3 378 -9z"/>
  <path d="M1162.5 1811.5 c0.6 -0.2 9.4 -0.5 19.7 -0.8 l18.8 -0.4 -0.6 0.8 -0.5 0.9 -19.2 -0.1 c-10.6 0 -18.7 -0.2 -18.2 -0.4z"/>
  <path d="M1532.5 1803 l-0.5 -0.8 18.8 -0.1 c10.3 0 23.4 -0.4 29.2 -0.7 l10.5 -0.6 -1 1 -1 1 -27.8 0.5 -27.7 0.5 -0.5 -0.8z"/>
  <path d="M1118.5 533.1 l-0.6 -1.1 10.3 0 c5.7 0 115.6 -2.5 244.3 -5.5 233.8 -5.5 251.2 -5.8 250.4 -5.1 -0.4 0.4 -22.3 1 -68.4 2.1 -11.5 0.3 -30 0.7 -41 1 -11 0.3 -30.3 0.7 -43 1 -90.6 2.1 -110.5 2.5 -130 3 -12.1 0.3 -30.3 0.7 -40.5 1 -10.2 0.3 -30 0.7 -44 1 -14 0.3 -32.7 0.8 -41.5 1 -8.8 0.2 -30.6 0.7 -48.5 1 -17.9 0.3 -35.7 0.8 -39.6 1.1 l-7.2 0.6 -0.7 -1.1z"/>
  <path d="M1118.4 500.5 l0 -17 0.3 8.2 c0.2 4.5 0.2 12.2 0 17 l-0.3 8.8 0 -17z"/>
  <path d="M1690.4 487 l0 -17.5 0.3 8.8 c0.2 4.8 0.2 12.6 0 17.5 l-0.3 8.7 0 -17.5z"/>
  <path d="M1123.5 467 l6 -0.8 57 -1.1 c31.4 -0.6 62 -1.4 68 -1.6 6.1 -0.3 22.9 -0.7 37.5 -1 35.3 -0.7 193.1 -4.3 219 -5 11.3 -0.3 30 -0.7 41.5 -1 11.6 -0.3 32.3 -0.8 46 -1.1 l25 -0.6 -0.7 0.7 -0.6 0.6 -251.4 6 c-138.2 3.2 -251.7 5.8 -252.3 5.8 -0.5 -0.1 1.7 -0.5 5 -0.9z"/>
  <path d="M1911.5 1443.4 c2.9 -0.6 385.8 -9.5 386.2 -9 0.3 0.2 -4.2 0.7 -9.9 1 -12.4 0.7 -363.7 8.7 -372.3 8.5 l-6 -0.2 2 -0.3z"/>
  <path d="M2320.5 1434 l4 -0.9 141.5 -3.1 c77.8 -1.6 148 -3.2 156 -3.5 l14.5 -0.4 -5 0.9 -5 0.9 -141.5 3.1 c-77.8 1.6 -147.6 3.2 -155 3.5 l-13.5 0.4 4 -0.9z"/>
  <path d="M1911.2 1003.5 l0.7 -0.8 183.8 -4.3 c189 -4.5 203 -4.7 202.2 -3.9 -0.3 0.2 -78.1 2.2 -173 4.4 -94.8 2.2 -181.8 4.3 -193.4 4.7 l-21 0.6 0.7 -0.7z"/>
  <path d="M2316.8 993.9 l0.7 -0.7 158.8 -3.7 c87.4 -2 159.1 -3.5 159.3 -3.2 0.8 0.7 -28.1 1.5 -169.1 4.7 -72 1.6 -135.4 3.1 -140.7 3.2 l-9.7 0.3 0.7 -0.6z"/>
  <path d="M1023.3 179.3 c3.7 -0.2 9.7 -0.2 13.5 0 l6.7 0.3 -13.5 0 -13.5 0 6.8 -0.3z"/>
  <path d="M1061.8 178.3 c4.5 -0.2 11.9 -0.2 16.5 0 l8.2 0.3 -16.5 0 -16.5 0 8.3 -0.3z"/>
 </g>
 <g fill="#b1b1b1">
 </g>
 <g fill="#c1c1c1">
 </g>
 <g fill="#d2d2d2">
 </g>
 <g fill="#e2e2e2">
 </g>
 <g fill="#f3f3f3">
 </g>
 <g fill="#ffffff">
 </g>
</svg>
