<svg version="1.1" xmlns="http://www.w3.org/2000/svg" viewBox="0 0 581.04296875 562.4296875" width="1162.0859375" height="1124.859375" filter="invert(93%) hue-rotate(180deg)">
  <!-- svg-source:excalidraw -->
  
  <defs>
    <style class="style-fonts">
      @font-face {
        font-family: "Virgil";
        src: url("https://unpkg.com/@excalidraw/excalidraw@undefined/dist/excalidraw-assets/Virgil.woff2");
      }
      @font-face {
        font-family: "Cascadia";
        src: url("https://unpkg.com/@excalidraw/excalidraw@undefined/dist/excalidraw-assets/Cascadia.woff2");
      }
    </style>
    
  </defs>
  <rect x="0" y="0" width="581.04296875" height="562.4296875" fill="#ffffff"></rect><g stroke-linecap="round" transform="translate(152.376953125 10) rotate(0 63.333984375 64.4453125)"><path d="M63.9 0.96 C73.39 0.47, 86.07 4.05, 94.93 8.8 C103.79 13.56, 111.8 21.24, 117.08 29.5 C122.35 37.76, 125.78 48.6, 126.56 58.37 C127.33 68.14, 125.46 78.8, 121.73 88.14 C118 97.47, 111.47 107.72, 104.16 114.4 C96.86 121.08, 87.42 126.06, 77.91 128.22 C68.41 130.39, 56.75 130.08, 47.14 127.4 C37.52 124.72, 27.62 119.2, 20.21 112.15 C12.79 105.09, 5.8 94.54, 2.64 85.06 C-0.51 75.58, -0.27 64.94, 1.26 55.27 C2.78 45.6, 6.28 35.06, 11.79 27.05 C17.3 19.05, 25.14 11.79, 34.32 7.23 C43.51 2.67, 61.07 0.51, 66.9 -0.29 C72.72 -1.09, 69.32 1.42, 69.29 2.44 M85.81 5.17 C94.83 7.17, 104.81 13.25, 111.24 20.25 C117.67 27.25, 122.32 37.49, 124.39 47.17 C126.47 56.84, 125.78 68.15, 123.68 78.3 C121.58 88.45, 118.2 100.55, 111.79 108.04 C105.39 115.53, 94.28 119.93, 85.22 123.24 C76.16 126.56, 66.8 128.8, 57.44 127.93 C48.09 127.06, 37.44 123.37, 29.08 118.05 C20.73 112.72, 12.2 104.86, 7.32 95.98 C2.44 87.1, -0.24 74.89, -0.19 64.77 C-0.15 54.65, 3.2 43.84, 7.58 35.26 C11.97 26.67, 18.28 19.08, 26.11 13.26 C33.95 7.44, 44.54 1.65, 54.61 0.33 C64.67 -1, 81.38 4.36, 86.5 5.31 C91.62 6.27, 85.91 5.28, 85.3 6.07" stroke="none" stroke-width="0" fill="#b2f2bb"></path><path d="M70.97 -0.2 C80.31 -0.04, 89.81 6.21, 97.84 11.75 C105.87 17.29, 114.38 24.22, 119.15 33.05 C123.93 41.89, 126.25 54.49, 126.49 64.76 C126.73 75.02, 124.97 85.97, 120.6 94.66 C116.24 103.35, 108.46 111.27, 100.31 116.9 C92.16 122.53, 81.49 127.21, 71.71 128.45 C61.93 129.69, 50.96 127.88, 41.61 124.34 C32.27 120.8, 22.39 114.42, 15.64 107.21 C8.9 99.99, 3.52 90.7, 1.15 81.07 C-1.22 71.44, -0.96 59.31, 1.44 49.42 C3.84 39.54, 9.16 29.17, 15.55 21.74 C21.93 14.31, 29.92 8.47, 39.76 4.84 C49.61 1.21, 68.3 0.44, 74.64 -0.03 C80.98 -0.5, 77.93 0.92, 77.78 2.01 M83.34 4.14 C92.64 5.93, 102.28 11.05, 109.11 17.87 C115.94 24.68, 121.5 35.32, 124.31 45.04 C127.12 54.76, 127.67 66.19, 125.95 76.19 C124.23 86.18, 120 97.42, 113.99 105.03 C107.98 112.64, 99.07 117.81, 89.88 121.87 C80.7 125.93, 68.82 129.63, 58.87 129.39 C48.92 129.15, 38.43 125.55, 30.2 120.41 C21.97 115.27, 14.75 107.03, 9.51 98.53 C4.26 90.03, -0.34 79.34, -1.26 69.42 C-2.17 59.5, -0.28 48.45, 4.02 38.99 C8.32 29.52, 16.4 18.8, 24.55 12.62 C32.7 6.43, 43.09 3.48, 52.92 1.89 C62.74 0.31, 78.73 2.55, 83.49 3.1 C88.25 3.66, 82.04 4.08, 81.47 5.23" stroke="#1e1e1e" stroke-width="2" fill="none"></path></g><g stroke-linecap="round" transform="translate(10 211.5859375) rotate(0 63.333984375 64.4453125)"><path d="M47.34 1.7 C56.18 -2.01, 67.22 -1.62, 76.78 0.61 C86.33 2.85, 97.1 8.68, 104.65 15.12 C112.2 21.56, 118.47 30.18, 122.09 39.25 C125.71 48.31, 127.15 59.52, 126.37 69.51 C125.59 79.51, 122.72 90.81, 117.4 99.23 C112.08 107.64, 103.15 115.16, 94.45 120.03 C85.75 124.89, 75.09 127.95, 65.2 128.41 C55.31 128.88, 44.08 127.05, 35.11 122.8 C26.13 118.54, 17.23 111.13, 11.36 102.9 C5.5 94.67, 1.19 83.25, -0.07 73.41 C-1.34 63.58, 0.29 53.25, 3.79 43.87 C7.29 34.5, 13.26 24.17, 20.93 17.18 C28.61 10.2, 44.13 4.42, 49.85 1.98 C55.58 -0.47, 55.08 1.59, 55.31 2.51 M81.59 2.43 C90.77 4.23, 100.2 12.61, 106.97 19.51 C113.75 26.4, 119.06 34.53, 122.22 43.82 C125.38 53.1, 127.44 65.12, 125.94 75.21 C124.45 85.3, 119.1 96.44, 113.26 104.36 C107.41 112.27, 99.76 118.81, 90.86 122.7 C81.95 126.58, 69.58 128.11, 59.83 127.69 C50.07 127.26, 40.54 124.86, 32.32 120.12 C24.09 115.38, 15.88 108, 10.47 99.23 C5.06 90.45, 0.46 77.47, -0.17 67.48 C-0.8 57.49, 2.9 48.07, 6.68 39.27 C10.45 30.47, 14.82 20.78, 22.48 14.66 C30.14 8.55, 42.83 4.39, 52.66 2.59 C62.49 0.79, 76.65 3.84, 81.46 3.87 C86.27 3.9, 81.82 1.87, 81.52 2.77" stroke="none" stroke-width="0" fill="#b2f2bb"></path><path d="M78.18 1.4 C87.49 2.8, 98.27 10.03, 105.8 16.65 C113.34 23.28, 120.09 31.93, 123.4 41.16 C126.7 50.39, 127 62, 125.62 72.04 C124.25 82.08, 120.69 93.25, 115.14 101.41 C109.59 109.56, 100.98 116.29, 92.33 120.96 C83.69 125.63, 72.98 129.49, 63.27 129.45 C53.57 129.42, 42.64 125.29, 34.09 120.75 C25.54 116.2, 17.46 110.11, 11.95 102.18 C6.45 94.25, 2.39 83.18, 1.04 73.17 C-0.3 63.15, 0.68 51.65, 3.9 42.09 C7.12 32.52, 12.97 22.47, 20.38 15.75 C27.79 9.03, 36.41 3.16, 48.35 1.76 C60.29 0.36, 82.93 4.81, 92.02 7.33 C101.11 9.85, 103.54 15.99, 102.91 16.89 M87.82 3.22 C96.96 5.7, 106.06 14.99, 112.49 22.82 C118.92 30.65, 124.48 40.6, 126.42 50.21 C128.36 59.82, 126.79 70.99, 124.11 80.48 C121.44 89.97, 116.85 99.55, 110.35 107.16 C103.85 114.77, 94.63 122.52, 85.11 126.14 C75.59 129.76, 63.07 130.3, 53.23 128.88 C43.39 127.45, 33.88 123.36, 26.07 117.58 C18.26 111.8, 10.93 103.45, 6.36 94.19 C1.79 84.93, -1.42 72, -1.34 62.04 C-1.26 52.07, 2.01 42.87, 6.83 34.41 C11.65 25.95, 18.99 17.1, 27.59 11.29 C36.19 5.49, 48.59 0.59, 58.43 -0.43 C68.26 -1.45, 81.66 3.87, 86.6 5.17 C91.54 6.47, 88.54 6.73, 88.07 7.4" stroke="#1e1e1e" stroke-width="2" fill="none"></path></g><g stroke-linecap="round" transform="translate(306.9375 203.6484375) rotate(0 63.333984375 64.4453125)"><path d="M66.85 -0.77 C76.31 -1.43, 87.34 3.76, 95.7 8.99 C104.07 14.21, 111.95 22.09, 117.02 30.57 C122.08 39.05, 125.26 49.87, 126.11 59.88 C126.96 69.89, 125.97 81.64, 122.11 90.65 C118.26 99.65, 110.53 107.92, 102.97 113.92 C95.41 119.92, 86.38 124.47, 76.74 126.64 C67.1 128.8, 54.65 129.4, 45.14 126.89 C35.64 124.38, 26.78 118.67, 19.69 111.58 C12.6 104.49, 5.72 94, 2.6 84.35 C-0.53 74.7, -0.68 63.48, 0.94 53.69 C2.57 43.89, 6.45 33.38, 12.36 25.57 C18.28 17.76, 26.15 11.01, 36.45 6.82 C46.74 2.64, 66.53 0.81, 74.13 0.45 C81.74 0.09, 82.21 3.55, 82.06 4.67 M76.57 2.32 C86.19 3.5, 95.64 8.92, 103.13 15 C110.63 21.07, 117.42 29.6, 121.54 38.78 C125.65 47.96, 128.63 60.33, 127.82 70.06 C127.02 79.8, 122.12 88.72, 116.71 97.18 C111.3 105.64, 103.5 115.7, 95.34 120.8 C87.18 125.91, 77.27 127.41, 67.73 127.8 C58.18 128.18, 47.33 127.32, 38.09 123.13 C28.85 118.94, 18.52 110.74, 12.29 102.65 C6.06 94.56, 2.43 84.06, 0.71 74.6 C-1.01 65.14, -1.04 55.25, 1.96 45.89 C4.95 36.52, 11.4 25.76, 18.68 18.39 C25.97 11.02, 36.26 4.67, 45.65 1.67 C55.03 -1.34, 69.97 0.46, 74.98 0.36 C80 0.27, 75.97 0.14, 75.74 1.11" stroke="none" stroke-width="0" fill="#a5d8ff"></path><path d="M75.84 1.81 C85.44 2.76, 96.42 7.74, 103.94 14 C111.46 20.26, 117.03 30.08, 120.94 39.37 C124.84 48.66, 128.08 59.91, 127.37 69.75 C126.66 79.58, 121.9 90.09, 116.67 98.37 C111.44 106.65, 104.23 114.4, 95.98 119.45 C87.74 124.5, 77.14 128.19, 67.2 128.67 C57.26 129.14, 45.28 126.63, 36.34 122.28 C27.41 117.93, 19.6 110.36, 13.58 102.55 C7.55 94.74, 1.96 85.1, 0.17 75.4 C-1.63 65.7, -0.41 53.75, 2.8 44.36 C6.01 34.98, 12.41 26.03, 19.45 19.08 C26.49 12.12, 35.44 5.37, 45.04 2.63 C54.64 -0.1, 71.24 2.38, 77.05 2.65 C82.86 2.92, 79.88 3.42, 79.89 4.28 M36.36 6.16 C44.49 1.56, 58.85 0.87, 68.83 1.62 C78.81 2.37, 88.05 5.88, 96.23 10.66 C104.41 15.45, 112.89 21.87, 117.9 30.33 C122.91 38.79, 125.68 51.07, 126.27 61.43 C126.85 71.79, 125.37 83.46, 121.39 92.48 C117.41 101.5, 110.19 109.52, 102.39 115.54 C94.59 121.56, 84.57 126.66, 74.59 128.6 C64.61 130.53, 51.79 130.48, 42.49 127.16 C33.18 123.84, 25.56 115.92, 18.74 108.67 C11.92 101.43, 4.38 93.17, 1.54 83.72 C-1.3 74.26, -0.51 61.9, 1.71 51.95 C3.92 42, 8.84 31.71, 14.84 24.01 C20.83 16.3, 33.58 8.82, 37.67 5.7 C41.75 2.59, 39 4.3, 39.34 5.3" stroke="#1e1e1e" stroke-width="2" fill="none"></path></g><g stroke-linecap="round" transform="translate(244.1796875 423.5390625) rotate(0 63.333984375 64.4453125)"><path d="M40.52 3.69 C48.82 -0.75, 60.18 -1.76, 69.76 -0.51 C79.34 0.73, 89.9 5.47, 98.01 11.15 C106.12 16.83, 113.48 24.97, 118.41 33.58 C123.35 42.2, 127.39 52.79, 127.62 62.85 C127.86 72.91, 124.58 84.77, 119.83 93.93 C115.09 103.08, 107.09 112.18, 99.15 117.77 C91.22 123.35, 81.89 126.25, 72.23 127.44 C62.56 128.62, 50.36 128.11, 41.16 124.86 C31.96 121.61, 23.51 115.44, 17.01 107.96 C10.51 100.48, 4.67 89.78, 2.18 79.99 C-0.32 70.2, -0.3 58.72, 2.03 49.21 C4.36 39.71, 8.68 30.82, 16.16 22.97 C23.64 15.11, 40.34 5.74, 46.9 2.08 C53.46 -1.58, 55.12 -0.06, 55.52 0.99 M88.79 5.04 C98.08 7.66, 107.68 15.77, 113.69 23.75 C119.69 31.73, 123.07 43.09, 124.81 52.92 C126.55 62.76, 126.7 73.42, 124.12 82.75 C121.54 92.08, 116.33 101.59, 109.34 108.9 C102.36 116.21, 91.86 123.25, 82.22 126.6 C72.57 129.94, 61.04 130.83, 51.48 128.95 C41.92 127.06, 32.56 121.57, 24.84 115.29 C17.13 109, 9.25 100.37, 5.17 91.24 C1.08 82.11, -0.15 70.29, 0.31 60.52 C0.78 50.76, 3.08 40.95, 7.95 32.67 C12.82 24.39, 20.93 16.42, 29.52 10.87 C38.1 5.32, 49.61 0.56, 59.48 -0.62 C69.35 -1.79, 83.94 2.53, 88.73 3.83 C93.52 5.13, 88.9 5.82, 88.21 7.2" stroke="none" stroke-width="0" fill="#a5d8ff"></path><path d="M58.88 -0.67 C68.04 -2.37, 78.62 1.36, 87.7 5.42 C96.77 9.48, 107.05 15.98, 113.34 23.68 C119.64 31.37, 123.51 41.64, 125.47 51.58 C127.42 61.52, 127.96 73.61, 125.08 83.31 C122.2 93, 115.08 102.69, 108.19 109.76 C101.3 116.83, 92.82 122.72, 83.74 125.71 C74.66 128.7, 63.37 129.24, 53.73 127.7 C44.09 126.17, 33.67 122.5, 25.89 116.5 C18.11 110.49, 11.42 100.66, 7.04 91.68 C2.65 82.71, -0.49 72.62, -0.41 62.62 C-0.33 52.62, 2.45 40.42, 7.52 31.69 C12.6 22.95, 20.06 15.61, 30.03 10.23 C39.99 4.86, 59.93 0.72, 67.3 -0.57 C74.67 -1.86, 74.48 1.36, 74.25 2.48 M59 -0.6 C68.23 -2.21, 80.19 2.12, 89.22 6.25 C98.24 10.37, 106.99 16.68, 113.14 24.15 C119.29 31.61, 124.48 40.97, 126.11 51.04 C127.73 61.12, 125.63 74.75, 122.88 84.59 C120.14 94.44, 116.18 103.19, 109.64 110.11 C103.1 117.03, 93.13 122.93, 83.66 126.12 C74.18 129.3, 62.41 131.09, 52.8 129.21 C43.19 127.33, 33.97 121.23, 25.97 114.85 C17.98 108.46, 8.97 99.71, 4.83 90.91 C0.68 82.1, 0.58 71.7, 1.09 61.99 C1.6 52.28, 3.03 41.52, 7.89 32.62 C12.75 23.72, 21.93 14.05, 30.25 8.6 C38.57 3.14, 53.18 1.26, 57.82 -0.11 C62.45 -1.48, 57.62 -0.69, 58.06 0.4" stroke="#1e1e1e" stroke-width="2" fill="none"></path></g><g stroke-linecap="round" transform="translate(444.375 408.86328125) rotate(0 63.333984375 64.4453125)"><path d="M92.92 6.78 C101.54 10.32, 110.11 19.72, 115.6 28.08 C121.1 36.43, 124.66 46.97, 125.86 56.9 C127.06 66.83, 126.23 78.21, 122.8 87.66 C119.36 97.1, 112.62 107.05, 105.24 113.59 C97.86 120.12, 88.13 124.55, 78.5 126.87 C68.86 129.2, 56.84 129.9, 47.43 127.53 C38.01 125.17, 29.3 119.26, 22.01 112.68 C14.72 106.11, 7.21 97.55, 3.71 88.09 C0.22 78.64, -0.1 66.12, 1.06 55.95 C2.22 45.79, 5.17 35.1, 10.68 27.08 C16.19 19.07, 25.51 12.33, 34.11 7.85 C42.7 3.37, 51.85 -0.17, 62.27 0.19 C72.69 0.54, 89.99 7.59, 96.62 9.96 C103.25 12.34, 102.43 13.59, 102.05 14.44 M69.69 0.6 C78.79 0.18, 88.71 3.15, 96.79 8.64 C104.87 14.14, 113.25 24.51, 118.18 33.57 C123.12 42.63, 126.06 53.08, 126.4 63.01 C126.74 72.94, 124.38 84.19, 120.23 93.15 C116.08 102.11, 109.46 111, 101.51 116.76 C93.56 122.52, 82.21 126.06, 72.53 127.73 C62.85 129.4, 52.77 129.73, 43.41 126.78 C34.05 123.84, 23.36 117.45, 16.37 110.05 C9.38 102.65, 4.02 92.32, 1.47 82.4 C-1.09 72.48, -1.08 60.43, 1.04 50.55 C3.17 40.66, 8.12 30.54, 14.22 23.09 C20.33 15.64, 28.61 9.88, 37.65 5.83 C46.69 1.79, 63.32 -0.52, 68.46 -1.19 C73.6 -1.87, 68.53 0.73, 68.47 1.79" stroke="none" stroke-width="0" fill="#a5d8ff"></path><path d="M73.77 0.13 C83.21 0.68, 93.21 6.77, 100.8 12.92 C108.38 19.07, 114.94 28.28, 119.29 37.04 C123.65 45.8, 127.16 55.68, 126.93 65.48 C126.7 75.29, 122.68 87.02, 117.9 95.87 C113.11 104.72, 106.31 113.25, 98.2 118.57 C90.08 123.89, 78.99 127, 69.21 127.78 C59.44 128.56, 48.5 126.82, 39.57 123.23 C30.63 119.64, 22.06 113.78, 15.59 106.26 C9.11 98.73, 2.95 88.06, 0.72 78.09 C-1.51 68.11, -0.57 56.01, 2.19 46.41 C4.96 36.8, 10.43 27.71, 17.31 20.46 C24.18 13.21, 33.56 6.06, 43.44 2.91 C53.31 -0.25, 70.83 1.36, 76.58 1.52 C82.34 1.68, 78.33 2.94, 77.95 3.87 M87.87 4.5 C96.68 7.35, 104.9 16.13, 110.88 23.99 C116.86 31.85, 121.52 42.15, 123.72 51.65 C125.93 61.16, 126.61 71.65, 124.11 81.01 C121.61 90.37, 115.33 100.63, 108.72 107.83 C102.1 115.02, 93.66 120.68, 84.43 124.18 C75.2 127.68, 63.13 129.93, 53.36 128.81 C43.59 127.69, 33.46 123.6, 25.81 117.47 C18.17 111.34, 11.75 101.39, 7.51 92.02 C3.28 82.66, 0.25 71, 0.41 61.29 C0.56 51.57, 3.92 42.05, 8.44 33.74 C12.96 25.42, 19.15 16.98, 27.54 11.38 C35.94 5.79, 48.75 1.36, 58.81 0.17 C68.88 -1.03, 83.31 3.37, 87.92 4.23 C92.53 5.08, 86.89 4.41, 86.46 5.3" stroke="#1e1e1e" stroke-width="2" fill="none"></path></g><g stroke-linecap="round"><g transform="translate(271.8022724136738 125.12723687061407) rotate(0 28.474872078160104 35.339467002603044)"><path d="M-0.35 0.79 C8.82 12.46, 45.58 59.19, 54.98 70.52 M1.66 0.16 C11.22 11.43, 48.34 57.12, 57.3 68.68" stroke="#1e1e1e" stroke-width="2" fill="none"></path></g><g transform="translate(271.8022724136738 125.12723687061407) rotate(0 28.474872078160104 35.339467002603044)"><path d="M31.71 53.03 C40.65 56.51, 47.79 62.89, 57.3 68.68 M31.71 53.03 C36.12 55.39, 41.2 60.09, 57.3 68.68" stroke="#1e1e1e" stroke-width="2" fill="none"></path></g><g transform="translate(271.8022724136738 125.12723687061407) rotate(0 28.474872078160104 35.339467002603044)"><path d="M47.76 40.24 C52 47.46, 54.39 57.62, 57.3 68.68 M47.76 40.24 C49.05 45.26, 50.89 52.54, 57.3 68.68" stroke="#1e1e1e" stroke-width="2" fill="none"></path></g></g><mask></mask><g stroke-linecap="round"><g transform="translate(162.748046875 122.5390625) rotate(0 -22.560642296423737 38.33799458969156)"><path d="M0.24 -0.06 C-7.24 12.76, -37.56 64.28, -45.15 77.14 M-0.17 -0.46 C-7.67 12.19, -37.8 63.41, -45.36 76.43" stroke="#1e1e1e" stroke-width="2" fill="none"></path></g><g transform="translate(162.748046875 122.5390625) rotate(0 -22.560642296423737 38.33799458969156)"><path d="M-39.98 46.92 C-41.3 54.53, -42.27 61.36, -45.36 76.43 M-39.98 46.92 C-41.32 56.37, -43.61 65.71, -45.36 76.43" stroke="#1e1e1e" stroke-width="2" fill="none"></path></g><g transform="translate(162.748046875 122.5390625) rotate(0 -22.560642296423737 38.33799458969156)"><path d="M-22.27 57.28 C-27.88 62.44, -33.1 66.78, -45.36 76.43 M-22.27 57.28 C-29.36 63.43, -37.35 69.43, -45.36 76.43" stroke="#1e1e1e" stroke-width="2" fill="none"></path></g></g><mask></mask><g stroke-linecap="round"><g transform="translate(343.6861459572158 338.5656495407066) rotate(0 -11.212903762915857 34.40506593327021)"><path d="M0.22 0.15 C-3.56 11.58, -18.83 57.39, -22.64 68.78 M0.06 0.03 C-3.66 11.5, -18.52 57.06, -22.24 68.5" stroke="#1e1e1e" stroke-width="2" fill="none"></path></g><g transform="translate(343.6861459572158 338.5656495407066) rotate(0 -11.212903762915857 34.40506593327021)"><path d="M-23.27 38.52 C-22.6 47.8, -22.14 57.38, -22.24 68.5 M-23.27 38.52 C-22.76 46.47, -22.8 54.67, -22.24 68.5" stroke="#1e1e1e" stroke-width="2" fill="none"></path></g><g transform="translate(343.6861459572158 338.5656495407066) rotate(0 -11.212903762915857 34.40506593327021)"><path d="M-3.76 44.87 C-9.35 52.15, -15.14 59.7, -22.24 68.5 M-3.76 44.87 C-8.56 51.14, -13.9 57.61, -22.24 68.5" stroke="#1e1e1e" stroke-width="2" fill="none"></path></g></g><mask></mask><g stroke-linecap="round"><g transform="translate(424.87633272368384 318.33633592927686) rotate(0 29.241711071852137 41.039705943227204)"><path d="M0.76 -0.5 C10.7 13.51, 49.01 70.08, 58.78 83.88 M-0.29 -1.81 C9.53 11.88, 47.82 68, 57.66 82.17" stroke="#1e1e1e" stroke-width="2" fill="none"></path></g><g transform="translate(424.87633272368384 318.33633592927686) rotate(0 29.241711071852137 41.039705943227204)"><path d="M33.23 64.76 C38.03 68.1, 45.8 73.14, 57.66 82.17 M33.23 64.76 C40.02 69.77, 45.09 73.2, 57.66 82.17" stroke="#1e1e1e" stroke-width="2" fill="none"></path></g><g transform="translate(424.87633272368384 318.33633592927686) rotate(0 29.241711071852137 41.039705943227204)"><path d="M50.13 53.13 C51 59.27, 54.86 67, 57.66 82.17 M50.13 53.13 C53.09 60.85, 54.23 66.99, 57.66 82.17" stroke="#1e1e1e" stroke-width="2" fill="none"></path></g></g><mask></mask></svg>