<?xml version="1.0" encoding="utf-8"?>
<!-- Generator: Adobe Illustrator 17.1.0, SVG Export Plug-In . SVG Version: 6.00 Build 0)  -->
<!DOCTYPE svg PUBLIC "-//W3C//DTD SVG 1.1//EN" "http://www.w3.org/Graphics/SVG/1.1/DTD/svg11.dtd">
<svg version="1.1" id="Layer_1" xmlns="http://www.w3.org/2000/svg" xmlns:xlink="http://www.w3.org/1999/xlink" x="0px" y="0px"
	 viewBox="0 0 200 200" enable-background="new 0 0 200 200" xml:space="preserve">
<g>
	<path fill="none" stroke="#97DCCF" stroke-width="7.2248" stroke-miterlimit="10" d="M100.8,144c8.5-14.8,9.2-33.7,0-49.5
		C91.7,78.6,75,69.7,57.9,69.7c-8.5,14.8-9.2,33.7,0,49.5C67.1,135.1,83.7,144,100.8,144z"/>
	<path fill="none" stroke="#97DCCF" stroke-width="7.2248" stroke-miterlimit="10" d="M99.2,144c17.1,0,33.7-8.9,42.9-24.8
		c9.2-15.9,8.5-34.7,0-49.5c-17.1,0-33.7,8.9-42.9,24.8C90,110.4,90.6,129.2,99.2,144z"/>
</g>
<path fill="none" stroke="#97DCCF" stroke-width="7.2248" stroke-miterlimit="10" d="M100,142.4c14.8-8.6,24.8-24.6,24.8-42.9
	c0-18.3-10-34.3-24.8-42.9c-14.8,8.6-24.8,24.6-24.8,42.9C75.2,117.8,85.2,133.8,100,142.4z"/>
</svg>
